<?xml version="1.0" encoding="UTF-8" standalone="no"?>
<svg width="97px" height="52px" viewBox="0 0 97 52" version="1.1" xmlns="http://www.w3.org/2000/svg" xmlns:xlink="http://www.w3.org/1999/xlink">
    <!-- Generator: Sketch 40.1 (33804) - http://www.bohemiancoding.com/sketch -->
    <title>Group 14</title>
    <desc>Created with Sketch.</desc>
    <defs></defs>
    <g id="Page-1" stroke="none" stroke-width="1" fill="none" fill-rule="evenodd">
        <g id="Step-6---All-Filled" transform="translate(-116.000000, -672.000000)">
            <g id="Group-14" transform="translate(117.000000, 673.000000)">
                <g id="Boston-MA" stroke="#4FBFB2" stroke-linecap="round">
                    <path d="M62.3418785,9.23527644 C63.0778931,7.93299279 67.5226276,7.52313702 67.5027949,6.02694311 C67.4873695,5.26011619 65.4005258,5.81320112 65.0986276,5.70743189 C64.3648167,5.47165465 64.5058495,4.08563702 63.2894422,4.55058093 C62.963304,4.67177484 62.9588967,5.17417869 62.6944604,5.39453125 C62.4807076,5.57301683 62.1699949,5.59725561 61.9011513,5.69641426 C59.8010858,6.50070112 57.9257913,1.94160657 57.2514785,0.593048878 C57.169944,0.427784455 57.0751876,0.251502404 56.9077113,0.178786058 C56.757864,0.112680288 56.5859804,0.145733173 56.4273185,0.178786058 C53.6264967,0.762720353 53.315784,2.36027644 51.3170858,4.15174279 C50.6097185,4.78635817 49.8913331,4.16496394 49.5387513,5.44080529 C49.5387513,5.44080529 49.7503004,7.20803285 49.7503004,7.21023638 C49.6599513,7.40194311 49.3514422,7.3578726 49.1531149,7.43279247 C47.9190785,7.8911258 48.443544,9.16035657 47.5664967,9.87429888 C45.7727367,11.341847 23.5865258,17.6064704 19.6155731,18.8514623 C13.150104,20.9536258 6.66480218,23.0271434 0.179500364,25.0698117 C0.454954909,31.0854367 0.728205818,37.0966546 0.977216727,43.1100761 C1.07197309,45.4281851 0.428511273,48.5792268 2.41398764,49.9388021 C5.09581309,49.1190905 17.0020604,44.6106771 18.8531149,44.8420473 C19.5692967,44.9323918 19.088904,45.976863 20.0408749,45.6441306 C20.8363876,45.3686899 20.0563004,44.5489784 20.6667076,44.0377604 C21.5966422,43.2665264 23.0796895,43.5199319 24.1704895,43.2422877 C25.4596167,42.9161659 26.3895513,42.2484976 27.6147731,41.6645633 C30.627144,40.2344752 33.9105622,39.4764623 37.0375222,38.3438502 C38.4963295,37.8194111 42.0618131,35.710637 43.5404531,35.9772636 C43.6043585,35.9860777 43.7079295,36.1976162 43.8467585,36.4796675 C45.1402931,35.9992989 53.7609185,32.7601162 53.824824,32.7975761 C54.1311295,32.9408053 54.0606131,33.4277845 54.1796095,33.7384816 C55.618584,37.5990585 55.1492095,35.4021434 56.6498858,36.6669671 C57.4255658,37.3214143 57.1368895,39.1922075 57.8596822,39.9127604 C58.2276895,40.2807492 61.0659731,41.1797877 61.8614858,41.378105 C61.9915004,41.1445312 62.1325331,40.9219752 62.3132313,40.7126402 C62.4608749,40.5385617 62.2889913,38.8484575 62.7098858,39.1569511 C62.7980313,39.2208534 62.8288822,39.3376402 62.8487149,39.445613 C62.9699149,40.1463341 62.9192313,40.7963742 62.9192313,41.508113 C62.9192313,41.54998 62.9258422,41.6182893 62.9280458,41.6821915 C63.4921767,41.8761018 63.9835876,42.1008614 64.3273549,42.4115585 C65.2793258,43.2665264 65.6010567,44.513722 66.0483949,45.6661659 C66.7072822,47.1954127 69.6469331,44.7649239 70.8324895,43.6631611 C71.6919076,42.8566707 71.8704022,41.6403245 72.8752604,40.9285857 C72.9105185,40.904347 72.9479804,40.8779046 72.9898495,40.8801082 C73.0317185,40.8801082 73.0691804,40.908754 73.1044385,40.9351963 C74.8497185,42.283754 74.6668167,44.132512 73.9484313,46.023137 C73.7346785,46.5850361 72.2450204,49.1301082 73.5517767,49.2645232 C73.8140095,49.2909655 74.7241113,46.1421274 75.8413549,44.0642027 C76.3768385,43.0660056 77.5271367,42.4688502 78.5165695,42.0193309 C79.4575222,41.591847 80.4711949,41.3604768 81.4143513,40.9351963 C81.4606276,40.9131611 81.5091076,40.8911258 81.5333476,40.8470553 C81.5597913,40.8029848 81.555384,40.7501002 81.5509767,40.6994191 C81.4760531,39.9502204 81.288744,38.9211739 81.7537113,38.2557091 C82.0776458,37.7797476 90.3192458,32.0439704 90.693864,32.0417668 C92.2892967,32.0197316 93.3007658,32.0461739 93.8538785,31.8632812 C96.5709622,30.9642428 94.0125404,26.5153245 93.8538785,26.0922476" id="Stroke-1"></path>
                    <path d="M93.8532175,26.0926883 C92.6324029,22.7984175 88.3749775,16.5095553 84.4260611,16.529387 C84.1087375,16.5315905 81.1889193,17.0538261 80.5696975,19.1934495 C79.9747156,21.258153 80.9222793,22.7609575 82.178352,22.6353566 C83.5556247,22.498738 83.9677047,18.9180088 84.9703593,20.2974159 C85.4551593,20.9650841 85.8165556,22.2607572 86.420352,22.8314704 C87.5728538,23.9222155 90.0475375,24.0808694 90.1092393,26.3438902 C90.1731447,28.6179287 84.1285702,32.0840745 82.2973484,32.4785056 C75.2435084,34.0099559 78.5379447,29.7681691 76.8014793,27.8026242 C76.3893993,27.3420873 73.4387302,28.2719752 72.5528684,27.5756611 C72.046032,27.1702123 74.0733775,24.0147636 71.2967956,21.4873197" id="Stroke-3"></path>
                </g>
                <polygon id="Star" fill="#FFFFFF" points="66.5 18.1294364 63.7188471 19.5981811 64.25 16.48733 62 14.2842129 65.1094235 13.8303459 66.5 11 67.8905765 13.8303459 71 14.2842129 68.75 16.48733 69.2811529 19.5981811"></polygon>
            </g>
        </g>
    </g>
</svg>