<?xml version="1.0" encoding="UTF-8" standalone="no"?>
<svg width="48px" height="80px" viewBox="0 0 48 80" version="1.1" xmlns="http://www.w3.org/2000/svg" xmlns:xlink="http://www.w3.org/1999/xlink">
    <!-- Generator: Sketch 40.1 (33804) - http://www.bohemiancoding.com/sketch -->
    <title>Group 15</title>
    <desc>Created with Sketch.</desc>
    <defs></defs>
    <g id="Page-1" stroke="none" stroke-width="1" fill="none" fill-rule="evenodd">
        <g id="Step-6---All-Filled" transform="translate(-135.000000, -394.000000)">
            <g id="Group-15" transform="translate(136.000000, 395.000000)">
                <g id="Group-10" stroke-linecap="round" stroke="#4FBFB2">
                    <g id="Chicago">
                        <path d="M33.5615234,0.0534667969 C23.9431004,1.36954726 15.6883885,3.1205977 6.04873462,4.25170115 C5.72319615,4.82256322 7.53931154,5.59256322 8.01700385,5.8864023 C8.63269615,6.26255172 8.42215769,6.92634483 8.84411923,7.42197701 C9.96492692,8.73186207 11.7739654,8.40262069 12.0021962,10.5400345 C12.0658885,11.1383333 11.8703885,12.6039885 11.6280038,13.1527241 C11.4475423,13.5589655 10.8902346,13.7952759 10.7071192,14.2006322 C10.3886577,14.9015977 10.7725808,15.922954 10.4656192,16.5628506 C10.1268115,17.2735517 8.91842692,17.4080805 8.32838846,17.7514828 C7.90819615,17.9966437 7.66404231,18.5975977 7.22792692,18.8126667 C6.69008077,19.0781839 3.84515769,19.2144828 3.63904231,19.6897586 C2.07504231,23.3184943 5.63296538,23.391954 5.21100385,25.8028506 C5.08450385,26.5153218 4.22465769,27.1056552 4.01765769,27.8013103 C3.79296538,28.5615747 3.83631154,29.3855632 3.57358077,30.1794598 C3.47804231,30.4573678 1.23996538,31.2273678 0.913542308,31.8654943 C0.764042308,32.1513678 2.69604231,34.233908 1.00731154,34.4144598 C1.00731154,34.4144598 0.745465385,34.5596092 0.680003846,34.6826322 C0.333234615,35.3216437 0.463273077,36.3350345 0.479196154,37.0280345 C0.509273077,37.9679655 0.607465385,38.8981609 1.04092692,39.7584368 C1.18688846,40.0522759 1.57611923,40.3133678 1.67165769,40.6213678 C1.75835,40.901046 1.50623462,41.2825057 1.59292692,41.5604138 C1.69023462,41.8754943 2.08565769,42.1224253 2.22454231,42.4215747 C2.37758077,42.7481609 2.32450385,43.2544138 2.52531154,43.5526782 C3.20823462,44.5651839 4.91200385,45.0829425 5.83819615,45.7449655 C6.19204231,45.998977 6.34154231,46.5362069 6.67858077,46.8141149 C7.69146538,47.6478391 9.47219615,47.8991954 10.0410038,49.2214713 C10.2497731,49.7064828 10.1719269,50.3313333 10.40635,50.8048391 C10.4903885,50.9800805 10.7584269,51.0358391 10.82035,51.2234713 C11.0494654,51.9403678 10.6611192,53.6042759 12.0676577,54.0945977 C12.8770808,54.3822414 13.3123115,53.0608506 13.91385,52.7165632 C14.2252346,52.5386667 17.0931577,53.7963333 17.3859654,54.1538966 C17.7760808,54.6335977 16.8843885,55.392092 16.8569654,55.8443563 C16.8375038,56.2116552 17.2010808,56.6010805 17.17985,56.9692644 C17.0816577,58.6437931 14.5914654,60.9573333 15.8485038,62.7053218 C16.2235808,63.2248506 16.9940808,64.0107816 17.5310423,64.3577241 C17.8035038,64.5329655 18.2466962,64.5019885 18.5005808,64.7028966 C18.7066962,64.8648621 18.75535,65.1728621 18.95085,65.3436782 C19.3586577,65.7038966 20.6431192,65.7118621 20.8934654,66.0304828 C21.1349654,66.3367126 20.5431577,66.6075402 21.0075808,66.9447471 C21.63035,67.3978966 21.5878885,66.5535517 22.0761962,66.5783333 C22.2752346,66.5854138 22.3345038,66.8889885 22.5025808,66.9872299 C22.7785808,67.1527356 23.2244269,67.1314943 23.4765423,67.3262069 C23.8693115,67.6333218 23.9834269,68.313931 24.3885808,68.6024598 C24.7601192,68.8724023 25.6385423,68.76 25.9437346,69.0963218 C26.25335,69.4441494 25.9976962,70.4858621 26.18435,70.9213103 C26.4444269,71.5488161 27.3095808,71.963908 27.5289654,72.6038046 C27.8677731,73.5888736 27.46085,74.9332759 27.46085,74.9332759 C27.46085,74.9332759 27.5289654,76.2962644 28.6329654,76.9653678 C29.7369654,77.6344713 30.4995038,78.0398276 31.0019654,77.9026437 C31.66985,77.7203218 31.5017731,76.8060575 31.6167731,76.2962644 C31.7556577,75.6776092 31.9299269,75.0624943 32.50935,74.7146667 C34.1246577,73.7756207 36.9333115,76.1882874 38.7175808,75.9316207 C38.8281577,75.9156897 38.81135,75.7227471 38.8591192,75.6227356 C39.8790808,73.4092069 37.0253115,73.9251954 38.0903885,71.6063448 C38.3433885,71.0558391 38.9166192,71.4470345 39.3465423,71.1885977 C39.3483115,71.1885977 39.6473115,70.6823448 39.6473115,70.6823448 C40.2745038,70.1530805 41.26085,70.2159195 41.9685423,69.8734023 C42.0994654,69.8114483 42.2790423,69.7344483 42.3020423,69.5901839 C42.4674654,68.6033448 41.0724269,68.4767816 41.0803885,67.6766897 C41.0892346,66.8925287 41.9411192,65.926046 42.2056192,65.1834828 C42.2056192,65.1834828 41.1847731,64.4550805 41.4156577,64.0594598 L42.0021577,63.816069 C42.0048115,63.8107586 41.5067731,61.8246897 41.5120808,61.7928276 C41.5492346,61.568023 42.0269269,61.6211264 42.0720423,61.398092 C42.2144654,60.6873908 41.5306577,61.6211264 41.8385038,60.8697126 C41.9499654,60.5997701 42.4515423,60.4971034 42.5789269,60.2333563 C42.6098885,60.1634368 42.5939654,60.0651954 42.5426577,60.0067816 C41.9880038,59.3297126 41.7155423,59.4314943 42.1215808,58.4375747 C42.3896192,57.779092 42.3462731,58.549977 42.6656192,58.3552644 C42.8071577,58.2694138 42.6143115,57.8976897 42.7744269,57.872023 C42.8761577,57.856977 42.9221577,58.0047816 42.9938115,58.072046 C43.0654654,58.1401954 43.1291577,58.3295977 43.2114269,58.272069 C43.3220038,58.1941839 43.2538885,58.0065517 43.27335,57.8755632 C43.3901192,57.1347701 43.6210038,57.2666437 43.9067346,56.7665862 C44.05535,56.5072644 43.8616192,56.0718161 43.9474269,55.8257701 C44.1199269,55.3345632 44.7435808,55.2301264 44.9258115,54.977 C45.0204654,54.8460115 44.5640038,54.2583333 44.6055808,54.0919425 C44.6586577,53.8591724 45.0080808,53.7812874 45.0761962,53.5529425 L44.9691577,52.8696782 C45.2318885,52.235092 46.3633115,52.3067816 45.7299269,50.649954" id="Stroke-1"></path>
                        <path d="M45.7296615,50.649777 C45.6173154,50.356823 45.3032769,50.094846 45.2280846,49.7939264 C45.1962385,49.6664782 45.2280846,49.5328345 45.2280846,49.4053862 C45.2307385,49.2726276 45.2307385,49.1451793 45.2307385,49.0150759 C45.2307385,48.8849724 45.2723154,48.7469034 45.2307385,48.6247655 C44.9582769,47.8839724 43.8702,47.2316851 43.4393923,46.5670069 C43.0218538,45.9226851 44.0975462,45.7571793 44.1559308,45.2863287 C44.2098923,44.8924782 43.3783538,44.4012713 43.4102,44.0021103 C43.4438154,43.565777 44.2735846,43.4471793 44.3726615,43.1498 C44.6141615,42.4275931 43.7242385,38.8413402 43.5765077,37.8801678 C42.2088923,28.8100989 41.0025934,23.0378424 39.6323242,13.9677734" id="Stroke-3"></path>
                    </g>
                </g>
                <polygon id="Star" fill="#FFFFFF" points="36.5 9.12943644 33.7188471 10.5981811 34.25 7.48732997 32 5.28421295 35.1094235 4.83034588 36.5 2 37.8905765 4.83034588 41 5.28421295 38.75 7.48732997 39.2811529 10.5981811"></polygon>
            </g>
        </g>
    </g>
</svg>