<?xml version="1.0" encoding="UTF-8" standalone="no"?>
<svg width="86px" height="79px" viewBox="0 0 86 79" version="1.1" xmlns="http://www.w3.org/2000/svg" xmlns:xlink="http://www.w3.org/1999/xlink">
    <!-- Generator: Sketch 40.1 (33804) - http://www.bohemiancoding.com/sketch -->
    <title>Group 11</title>
    <desc>Created with Sketch.</desc>
    <defs></defs>
    <g id="Page-1" stroke="none" stroke-width="1" fill="none" fill-rule="evenodd">
        <g id="Step-6---All-Filled" transform="translate(-756.000000, -126.000000)">
            <g id="Group-11" transform="translate(757.000000, 127.000000)">
                <path d="M83.6016383,38.4127235 L83.9120776,38.2678356 C83.9288078,38.1501434 83.5737546,37.9367972 83.5537712,37.8158228 C83.5230991,37.6493659 83.7800944,37.3567767 83.7192149,37.2015732 C83.6922606,37.1331148 83.3372073,37.1687507 83.2832987,37.1162347 C83.181523,37.0191738 83.2233486,36.7598761 83.1369089,36.6459351 C83.0695232,36.554501 82.7061048,36.4293066 82.6847272,36.3228679 C82.6568435,36.1845445 82.8789841,36.0846703 82.8696895,35.9472847 C82.8511004,35.7151828 82.1860726,35.4061824 82.1656245,35.1590758 C82.1619067,35.1060909 82.255782,35.0845219 82.2622882,35.0310681 C82.272977,34.9640164 82.2529936,34.8880557 82.2116327,34.8341331 C82.0759317,34.6545471 81.6655757,34.6306335 81.5717003,34.3633646 C81.4996673,34.1565829 81.6576753,33.8518025 81.6223558,33.6365807 C81.549858,33.1976969 81.3133108,32.6931682 80.9940417,32.3583787 C80.7481998,32.1037699 80.1491636,31.8890169 79.9804668,31.5917388 C79.8131643,31.2963363 79.8522015,29.8568352 79.8224588,29.4399895 C79.6965172,27.7154015 79.5696461,25.9926891 79.4423102,24.26857 C79.3870074,23.5220925 79.4028082,20.9445884 79.1583605,20.4170839 C79.035672,20.1479394 78.1457152,20.4002038 78.0151262,20.3795725 C77.2552936,20.2600048 77.8998733,20.3190853 77.5085712,20.5375894 C77.4295672,20.5821342 76.9950452,20.631368 76.9838917,20.4536576 C76.981568,20.4002038 77.1154101,20.3636301 77.0786965,20.3279943 C77.0447712,20.2918895 76.7505975,20.328932 76.6576516,20.2332779 C76.5633115,20.1371549 76.5289216,19.9927359 76.4276106,19.8877039 C76.4276106,19.8877039 75.9916944,19.7878297 75.7923255,19.6884244 C75.7207571,19.6527885 75.6733547,19.8183077 75.5943507,19.8229966 C75.4619029,19.8328434 75.0747833,19.6926444 74.9590657,19.6241861 C74.5180374,19.3550416 74.2373409,19.4572602 74.0096235,19.3226879 C73.8674163,19.2382872 73.8218728,18.9269424 73.670371,18.8598907 C73.6071678,18.8317571 73.5267696,18.9044355 73.4654254,18.8739575 C73.3413426,18.8111258 73.37155,18.5555792 73.2363138,18.5241634 C73.1359322,18.5011876 73.1354675,18.7042182 72.9295924,18.5443258 C72.8250282,18.4636762 72.7176757,18.2489233 72.5973108,18.2010962 C72.5973108,18.2006273 72.2901247,18.2203208 72.2891952,18.2203208 C72.1088802,18.1284178 72.013146,17.7664325 71.6520512,17.8944403 C71.4889312,17.9535208 71.6483334,18.3797444 71.4745246,18.3905289 C71.4224749,18.3928734 71.4173629,18.2733057 71.3657779,18.2756502 C71.3253465,18.2789324 71.3959853,18.3642709 71.3727489,18.3966245 C71.2756204,18.5241634 71.1190066,18.5921528 70.9758699,18.6620179 C70.8410984,18.727194 70.1904773,18.766581 70.0496642,18.7145339 C69.8372829,18.6399799 69.6606857,18.1302934 69.3999725,18.1452979 C69.3483876,18.149518 68.9417494,18.534479 68.5453352,18.5560481 C68.4937502,18.5588615 68.4291528,18.5288523 68.3919745,18.5644882 C68.3919745,18.5649571 68.3083232,18.9302246 68.3083232,18.9306935 C68.1791284,19.04229 67.4578684,18.6127841 67.3635283,18.617942 C67.3031135,18.6202864 67.0056867,18.9644538 66.867662,19.0061853 C66.6455214,19.072768 66.2398126,19.0361944 66.0492736,19.1670155 C65.9089253,19.2631385 65.9066016,19.5716701 65.7639297,19.6659175 C65.6496063,19.7390648 65.3503205,19.6012103 65.2485448,19.6884244 C65.1621051,19.7671984 65.1574578,20.0616631 65.0654414,20.1826375 C64.9645951,20.3111141 64.5691104,19.6241861 64.5231022,19.6021481 C64.459899,19.5716701 64.3850776,19.6077748 64.3162976,19.6110571 C64.3153682,19.6110571 63.9036179,19.628875 63.9036179,19.628875 L63.7911534,19.3920841 C63.6675354,19.2908032 63.3626729,19.2978366 63.2655444,19.17358 C63.1925819,19.0793325 63.3306065,18.7712699 63.2446316,18.6892137 C62.9341924,18.3909978 62.8421759,19.121064 62.7520184,19.1960869 C62.6572136,19.269703 61.7547091,19.1416953 61.7175308,19.1159062 C61.5237386,18.9850851 61.6366679,18.3928734 61.2783615,18.4069402 C60.6481884,18.4313226 61.0432084,18.9428847 60.6923377,19.2757987 C60.6426117,19.3231568 60.3024298,19.235005 60.2805875,19.291741 L60.4938983,19.5243119 C60.4938983,19.5271252 60.0984136,20.1910775 60.0059324,20.2684449 C59.9441234,20.3209609 59.8730198,20.1732596 59.8084224,20.1249636 C59.4468629,19.8628525 59.7754266,18.9471048 59.445004,18.9588271 C59.3418341,18.9621093 59.2507471,19.3283147 59.1485067,19.331128 C59.017453,19.3348792 58.9575029,19.0671413 58.8310965,19.0999638 C58.615462,19.1590443 58.5666654,19.7217158 58.1265667,19.6077748 C57.8872311,19.545881 58.0461685,19.1130928 57.9011729,19.0099364 C57.8523764,18.9761761 57.7817375,19.0132186 57.7208579,19.016032 C57.6009577,19.020252 57.4815223,19.0240032 57.3606926,19.0277543 C57.3021367,19.029161 57.2273153,19.0718303 57.1808424,19.0324433 C56.9159466,18.8097191 57.6655551,18.6798358 56.7518971,18.4411693 C56.2908856,18.320195 55.8721644,19.7437537 54.9199338,19.217187 C54.6187892,19.0483856 55.0365809,18.6864003 54.9022741,18.4932165 C54.7800503,18.3159749 54.2377111,18.4167869 54.0736616,18.2700234 C53.8059774,18.0299503 54.2233044,17.4813456 53.9486494,17.3050419 C53.9295955,17.2928507 52.5233243,17.4297674 52.4131834,17.4607143 C52.1310927,17.5399572 52.1241217,17.8273886 51.7044711,17.9586786 C51.3754427,18.0637106 51.1226299,17.4330497 50.8726055,17.3692802 C50.6332698,17.3087931 50.3019178,17.5183882 50.0537523,17.5043214 C49.5253549,17.4729056 49.0741027,16.958999 48.609838,16.919612 C48.2352661,16.8877273 47.6864207,17.1620296 47.2783883,16.9350854 C47.0339406,16.8005132 47.2579402,16.2758221 47.1673179,16.0901405 C46.9939739,15.7337819 46.5738585,15.7065861 46.3438174,15.4923021 C46.2527305,15.4064947 46.337776,15.2067463 46.2387886,15.1298479 C46.0584736,14.9896489 45.9808638,15.8875788 45.7336277,15.8580385 C45.5430887,15.8397517 45.3056119,15.4810486 45.118326,15.4998044 C44.989596,15.5138711 44.9338284,15.6972083 44.8139282,15.7440975 C44.0833736,16.0362178 43.4820138,14.6979975 42.9708114,14.4180685 C42.8327868,14.3430456 42.3466798,14.4208819 42.2574518,14.2980319 C42.2160909,14.2398892 42.2574518,14.1550196 42.2574518,14.0842168 L42.2574518,13.9229176 L42.2574518,11.5700132 L42.2574518,3.64009693 L42.2574518,1.06446839 L42.2574518,0.458658795 C42.2574518,0.417865115 42.293236,0.356440149 42.2574518,0.337215541 C42.1947133,0.302517468 42.1138504,0.337215541 42.0418174,0.337215541 L41.8271124,0.337215541 C41.5394449,0.337215541 41.2527068,0.336277755 40.9655041,0.334402184 C39.7455894,0.332057719 38.52521,0.324555433 37.3048306,0.310488647 C33.0135193,0.266412717 28.7217432,0.161849607 24.4327556,8.15657718e-05 C24.0935031,-0.0121096489 24.1841253,1.34580411 24.1701835,1.73029626 C24.0967562,3.6818284 24.0237937,5.63148496 23.9503665,7.58395488 C23.638533,15.9368125 23.1185008,24.2751345 22.8015554,32.6275232 C22.8015554,32.6289299 21.7963457,32.5895429 21.4993836,32.5764139 C20.1967471,32.5229601 18.8955047,32.4634107 17.5937977,32.400579 C13.1454078,32.1839505 8.70073585,31.9058971 4.25978168,31.5715765 C3.19415716,31.4909269 2.12992683,31.4074639 1.06476704,31.3202499 C0.92999551,31.3089964 0.0716403039,31.1481662 7.19759257e-05,31.2330358 C-0.0041105887,31.2372558 0.174810231,32.2350599 0.323988369,32.4643485 C0.418793167,32.6120497 0.687871491,32.7588132 0.823572477,32.8680652 C2.08903064,33.3224224 1.90267415,34.3774314 2.56119571,35.1754871 C3.08819885,35.8136503 4.09015545,36.0968616 4.69709205,36.6614086 C5.84683259,37.7290777 6.59039963,39.1137183 7.82193255,40.1265269 C8.2290355,40.4603786 8.73837893,40.6146444 9.13525784,40.9325538 C9.63809505,41.3358016 10.4457948,42.2599895 10.7446158,42.8329766 C10.9123831,43.1536993 10.8594039,43.592583 11.0048642,43.9264347 C11.1893618,44.3517206 11.6829044,44.7268349 11.7995515,45.1722831 C11.9347878,45.6852519 11.5927469,46.3206018 11.7033525,46.8406039 C11.8083814,47.3334104 12.7503879,49.160217 13.0803457,49.549867 C13.7853402,50.3840274 16.4050199,51.8901113 17.4343955,52.4002667 C17.8721706,52.6154886 18.4335637,52.7087982 18.8406667,52.9413691 C19.2054793,53.1490887 19.4271552,53.6156371 19.7952209,53.8167921 C20.0192204,53.939642 21.5202964,54.3086607 21.6573916,54.1309503 C21.7754329,53.9780913 21.7642793,53.6812821 21.8995156,53.5448342 C21.9794491,53.4651224 22.7560119,52.9798183 22.9920944,52.7720988 C23.0906171,52.6862914 23.3108988,52.7664721 23.3634132,52.6459666 C23.4614711,52.4223047 23.1984343,52.0420326 23.2825503,51.8099306 C23.3471477,51.6294069 23.6417861,51.5145281 23.7384498,51.3480711 C24.0883911,50.7408549 24.0777023,49.2924448 24.8068627,48.879819 C25.2846046,48.6097368 26.1861796,49.0941031 26.6634567,48.8198008 C26.8781617,48.696013 26.8958214,48.0864523 27.1226094,47.9973627 C27.3707749,47.9007707 29.6367954,48.5426851 30.0569108,48.6308369 C30.5086278,48.72696 31.4557463,49.0664384 31.8972392,48.950153 C31.9427827,48.937024 32.2007075,48.5811343 32.2299855,48.5984833 C32.2309149,48.5984833 32.223944,48.9548419 32.223944,48.9548419 C32.2792468,49.0031379 32.3694043,48.9590619 32.4419021,48.9604686 C32.5878271,48.9637509 32.7328227,48.9665642 32.8778183,48.9684398 C32.9507808,48.9703154 33.0348968,48.9337417 33.0967058,48.9735976 C33.2347305,49.0584672 33.6051198,49.8640252 33.7324556,50.1167584 C33.8844222,50.4187255 34.01687,50.013602 34.1706955,50.0637736 C34.4081722,50.1434853 34.621483,50.7352281 34.8143457,50.9082496 C34.9839719,51.059702 35.327407,51.0972134 35.4658963,51.2753927 C35.5579127,51.3902715 35.4830913,51.6336269 35.5699957,51.7522568 C35.9199369,52.2342787 36.7434374,52.3632242 37.0943081,52.8429016 C37.1812125,52.9605937 37.10825,53.2053558 37.1998017,53.3202346 C37.3443326,53.5012272 37.7147219,53.5002894 37.8564644,53.6812821 C38.241725,54.1783085 38.2389367,55.1334433 38.502903,55.7111193 C38.7269025,56.202519 39.0642961,56.8209887 39.3779884,57.2626858 C39.5411084,57.4929122 39.9407757,57.7151674 40.0397631,57.9782163 C40.063929,58.0429236 40.0388336,58.115602 40.0388336,58.1868737 C40.0388336,58.3242593 40.0374394,58.4635205 40.0369747,58.601375 C40.0369747,58.6693644 40.0165266,58.7420428 40.03651,58.8095634 C40.3585675,59.9002082 41.5863825,60.3315897 42.1463815,61.1873192 C42.229568,61.314858 42.1751947,61.5333621 42.2574518,61.6618388 C42.4424141,61.9488012 42.8388283,62.0960336 43.0400561,62.3717426 C43.3105286,62.7454502 43.2817154,63.1205645 43.6576815,63.4365983 C43.8575151,63.6044619 44.0582782,63.8970511 44.2757716,64.0269344 C44.6693974,64.2632564 45.4236532,64.2173049 45.6262752,64.7307426 C45.846557,65.2901318 45.4543254,66.2232286 45.7517522,66.7404175 C45.8200674,66.860454 46.0357018,66.8487317 46.0910046,66.974395 C46.2536599,67.3481026 45.7289804,68.0125238 45.8744407,68.3942026 C45.8939594,68.4471875 45.970175,68.4528142 46.0171127,68.4809478 C46.6537919,68.8748178 46.3280166,69.2269564 46.6751695,69.569717 C46.7913518,69.6827202 47.1217745,69.5720615 47.2426041,69.6827202 C47.5790682,69.9884384 47.6478481,71.3552611 47.9448102,71.7983649 C48.0577395,71.9671663 48.4541536,72.0754806 48.5182863,72.2639755 C48.5708007,72.4140212 48.338436,72.716926 48.4113985,72.8547805 C48.6033318,73.2130147 49.3069321,72.9330856 49.5523092,72.9593436 C49.8511302,72.9888839 50.2280258,73.2266126 50.5082576,73.3368024 C51.1384307,73.5867223 51.8155414,73.7897529 52.4234075,74.0907821 C52.9383277,74.3430465 53.392833,74.795997 53.928666,75.0009032 C54.2999848,75.1453222 55.1680993,75.0693615 55.4209121,75.2020582 L55.5408123,75.4360358 C56.0961639,75.6062439 56.8987516,75.0834283 57.4805928,75.1500111 C58.2562262,75.238163 60.0017498,76.8070785 60.3935167,76.708611 C60.5849852,76.6593773 60.4297656,76.1942355 60.4906452,76.1168682 C60.5538484,76.0362186 61.780734,75.7637919 61.9670905,75.7126826 C61.8592733,74.7411365 61.3875729,75.7183093 61.1617144,75.6226551 C61.0218309,75.5626368 61.0139305,75.1293798 61.1417311,75.0351324 C61.158926,75.0243478 61.5395394,75.0749883 61.3661954,74.9094691 C61.2114405,74.76083 60.9302792,74.9211914 60.7871425,74.6947161 C60.7327692,74.6089087 60.5120227,73.97309 60.5306119,73.8783736 C60.5343297,73.8685269 60.7601882,73.5820334 60.6328524,73.522484 C60.5571015,73.4859103 60.4929688,73.6654963 60.4097823,73.6467406 C60.19043,73.5984446 60.3949109,73.2233303 60.2764049,73.0629689 C60.2438739,73.0170174 60.2071602,72.9720037 60.1578989,72.949028 C60.1239737,72.9321478 60.071924,72.9785682 60.0449697,72.9523102 C59.9803723,72.8894786 59.9845549,72.6662856 59.9204222,72.6034539 C59.9194927,72.6034539 59.6908459,72.6100184 59.6908459,72.6100184 C59.4784645,72.2039572 59.9501649,71.9629463 59.8888206,71.6614481 C59.8093519,71.2685159 59.5384146,70.1910001 59.2665479,69.9115399 C59.1578012,69.7980679 58.9370548,69.8172925 58.8050716,69.6892847 C58.7432626,69.6283287 58.8938349,69.5340812 58.9114947,69.4487427 L58.904059,69.2124207 C59.0699674,69.2072629 59.2056684,69.7947856 59.3650706,69.4360826 C59.4319916,69.2869746 58.6470636,69.0989486 58.7697522,68.5081436 C58.8376027,68.1850764 59.3497345,68.7022652 59.445004,68.3688824 C59.472423,68.2722905 59.1526892,67.8657603 59.2000916,67.7865174 C59.2619006,67.683361 59.4682405,67.7569772 59.5351615,67.6561652 C59.546315,67.6420984 59.6834102,66.7873067 59.6773687,66.7652688 C59.6555264,66.7005616 58.7795115,66.8618607 58.1498032,66.6363232 C58.1242431,66.6264765 57.4001946,66.6550789 57.4429497,66.5819317 C57.487099,66.5087844 57.5981694,66.5341046 57.6581195,66.5326979 C57.8365756,66.5270712 58.2859689,66.2771513 57.8579531,66.2888736 C57.8021856,66.2912181 57.7296878,66.3343562 57.6892563,66.2949692 C57.6288415,66.234482 57.9137206,66.2541755 57.9109323,66.1697748 C57.9076792,66.0450493 57.5642441,65.8598366 57.5633147,65.8246697 C57.5549495,65.5100426 57.8658535,65.8940658 57.5572732,65.5878788 C57.5173065,65.5503673 57.4053067,65.5133248 57.4415556,65.4734689 C57.6478954,65.2413669 58.1381849,66.3188828 58.254832,66.3962501 C58.4607071,66.532229 58.9356606,65.832172 59.1368884,65.7177621 C59.173602,65.6980686 59.2168219,65.6258591 59.2470293,65.6553993 L59.2586475,66.0103512 C59.2976848,66.0867808 59.5435266,66.0586472 59.4872944,66.1214789 C59.4868297,66.1214789 59.1499008,66.1313256 59.1499008,66.1313256 L59.1568718,66.3681165 C59.113652,66.4417327 58.9328722,66.4079724 58.9351959,66.4937798 C58.9370548,66.5608315 59.2586475,66.3699921 59.2688716,66.3653032 C59.40039,66.2991893 59.7317421,66.2222908 59.8256174,66.1102254 C60.0984136,65.7866893 60.2940646,64.5267742 60.499475,64.0522546 C60.5385123,63.9622272 60.7750596,63.5622616 60.7490347,63.4750475 C60.7216157,63.3756422 60.5487363,63.429096 60.4483548,63.4065891 C60.2619983,63.363451 60.1049198,63.2654524 59.9524885,63.1458847 C59.5774519,62.8486066 59.8920737,62.6441693 59.822829,62.5569552 C59.6731862,62.3722115 58.9421668,63.0530439 58.9203245,62.3492357 C58.9101005,62.002255 59.23727,62.4566122 59.2600417,62.4566122 C59.3148798,62.4552055 59.3181329,62.3581447 59.3683237,62.3351689 C59.6109124,62.2231035 59.8465302,62.4167563 60.0431108,62.431292 C60.2169196,62.4458276 60.4186121,62.1583963 60.5938151,62.1762142 C61.0362375,62.2184146 60.6862962,62.6469827 61.057615,62.6338537 C61.1528846,62.6315092 61.5237386,61.8329846 61.5846182,61.7260771 C61.7152071,61.5019463 62.1618121,61.2721888 62.232451,61.0504024 C62.2436045,61.008671 62.1910901,60.9730351 62.1701772,60.9327103 C62.1185923,60.8318984 62.277065,60.4553774 62.0972147,60.4610041 C61.9601195,60.4661619 61.4094152,61.5750936 61.035308,60.9350548 C60.8596403,60.6354323 61.2941623,60.6799771 61.3178635,60.4900755 C61.3304112,60.3812923 61.0906108,60.3700389 61.086893,60.2617246 C61.0780631,60.0291538 61.5014316,60.2467201 61.5321038,60.2457823 C61.7389083,60.2237443 62.0391235,59.8701991 62.1869075,59.8645724 C62.4053303,59.857539 62.0354057,60.6743504 62.5438197,60.444124 C62.9467401,60.2626624 62.4188075,59.494147 62.8356697,59.3656704 C62.8886489,59.3478524 62.9509226,59.4252197 62.9532463,59.4791424 C62.9551052,59.5607298 62.7362176,59.6437238 62.7394707,59.7248423 C62.7404002,59.7529759 62.8458938,60.382699 62.9704413,60.3090828 C63.1028891,60.2303088 63.7009959,59.7117133 63.7363153,59.5668254 C63.7651285,59.4463199 63.6215272,59.3394124 63.6099089,59.2151557 C63.5964318,59.0773012 63.743751,58.8667683 63.7023901,58.7364161 C63.6610292,58.6037194 63.4198346,58.5197876 63.3552372,58.3945932 C63.2018765,58.0954396 63.6889129,58.5197876 63.6238508,58.1456111 C63.5950376,57.979623 63.0480511,57.6499913 63.6656764,57.7869081 C63.8018422,57.817855 63.8129957,58.0255745 63.9012943,58.1343577 C63.9691447,58.2173517 64.2033684,58.2839345 64.2437998,58.3584885 C64.3046794,58.4672716 64.183385,58.7373539 64.2637832,58.8325392 C64.4538575,59.0613589 66.0529914,58.2558009 66.2314475,58.0349524 C66.3090573,57.936016 65.7188509,57.581533 65.6556477,57.5848152 C65.5654902,57.5890353 65.3777396,57.8900645 65.2220552,57.8427063 C65.1621051,57.8225439 65.5733906,57.4910367 65.5338886,57.3527133 C65.4586025,57.0812243 65.0017735,57.283786 64.860031,57.143587 C64.7875332,57.0723153 64.8828028,56.7647216 64.8400476,56.6685986 C64.7968278,56.5710688 64.2907375,56.2587862 64.4817413,56.089047 C64.8865206,55.734564 65.030122,56.4350899 65.165823,56.5363708 C65.1667524,56.5363708 65.4976397,56.5208973 65.4976397,56.5208973 C65.4976397,56.5208973 65.5083285,56.758626 65.5083285,56.7590949 C65.6082453,56.8556868 65.7583529,56.6015469 65.8350333,56.6259293 C66.1970575,56.736588 65.6259051,56.9227385 65.6296229,56.9911968 C65.6314818,57.0310527 65.5952329,57.1056067 65.6342702,57.108889 C65.7025854,57.117329 66.1575555,56.8702225 66.2035637,56.8172376 C66.3211403,56.6793831 66.057174,56.6221782 66.0488088,56.4369655 C66.0427673,56.294422 66.2416715,56.1162427 66.14129,56.0158997 C66.0808751,55.9582259 65.9893235,56.1987679 65.9247261,56.1439074 C65.9210082,56.141563 65.8605934,55.7537886 65.9642281,55.7866111 C66.3671485,55.9108677 66.1970575,56.5021416 66.4986669,56.5945135 C66.783546,56.6821964 67.2255037,55.9038343 67.5889221,56.1870456 C67.7362413,56.3023932 67.3444744,56.496046 67.3844411,56.5532509 C67.4160427,56.5992024 67.9077264,56.4191475 67.7771375,56.653594 C67.7604072,56.6821964 67.2770886,56.8791315 67.4021008,56.9086717 C67.7236936,56.9911968 68.6582644,56.1607876 68.93199,56.478228 C68.961268,56.5105817 68.8989942,56.5588776 68.8827287,56.5992024 C68.8158077,56.7647216 67.6902331,57.4469607 67.7697018,57.4207027 C68.4291528,57.2097009 69.0690852,56.6634407 69.7257479,56.3900762 C69.8117228,56.3539714 70.1904773,56.2100213 70.2220789,56.1017071 C70.2323029,56.062789 69.4027609,56.4801036 69.349317,56.4861992 C69.1271764,56.509175 69.079774,56.2756663 69.1360062,56.1096782 C69.3260806,55.5554469 70.4823273,55.8034912 70.8852477,55.6618856 C71.5354041,55.4316592 72.3403155,54.8521076 72.9207625,54.4746488 C73.0546046,54.3888414 74.3851248,53.2339583 74.39349,53.1941024 C74.3967431,53.1795667 74.1657726,52.2450632 74.1086108,52.1390934 C74.0528433,52.0349992 74.3353988,52.1986428 74.4450749,52.2375609 C74.5626515,52.2811679 74.9065512,52.049066 74.9781196,51.9665408 C75.166335,51.7522568 75.1189326,51.519217 75.3257372,51.3480711 C75.4795626,51.2210012 75.7305165,51.4104339 75.8099852,51.1975565 L75.7890724,50.8402601 L76.1529555,50.8168155 C76.176192,50.7567972 76.0846403,50.7061568 76.0344495,50.6653631 C75.9094373,50.5631445 75.808591,50.3615205 75.6501183,50.3713673 C75.6189814,50.3723051 75.5962097,50.6564541 75.4382017,50.5035951 C75.0552646,50.1383275 75.6942676,50.0328266 75.6189814,49.8949721 C75.5367243,49.7425819 75.0747833,49.934828 74.9493063,49.6989749 C74.8270825,49.4706241 75.1733059,49.3299562 75.1389159,49.2094507 C75.119862,49.1452124 75.0241278,49.1372412 74.9678955,49.1020743 C74.5951825,48.8652834 75.0120448,48.9271772 74.9925262,48.6209902 C74.9850905,48.5047048 74.742037,48.60411 74.6588505,48.5229916 C74.6198132,48.4864179 74.5719461,48.4592221 74.6867342,48.4015483 C75.1077791,48.1900776 75.4079943,48.8544988 75.6533714,48.6988264 C76.0400262,48.4545332 75.8987485,47.6907067 76.5819007,47.8013654 C76.6474276,47.81215 76.6943652,47.8749816 76.7524564,47.9106175 C77.0819496,48.1173992 76.8454023,49.1911639 76.5809713,49.475313 C76.5563406,49.5020399 76.5056851,49.4804708 76.4703657,49.4828153 C76.4341168,49.4856286 76.3583659,49.4523372 76.3611543,49.4898487 C76.3653368,49.5437714 76.4248222,49.5930051 76.4791955,49.6014452 C76.7375851,49.6431766 77.1832606,49.3534009 77.4449032,49.2985404 C77.7176994,49.2408666 78.1210845,49.4260792 78.3227771,49.2976026 C78.357167,49.2750957 78.4064284,49.1935084 78.4278059,49.2296131 C78.4566191,49.2858803 78.3999221,49.3524631 78.3855155,49.4129502 C78.2930344,49.8096336 78.1550098,49.4176392 77.8980144,49.5071977 C77.5810689,49.6159809 77.1507295,50.0726825 76.9629788,50.2860288 C76.8793275,50.3788696 76.3225817,50.5678334 76.5563406,50.7924331 C76.6841412,50.9143452 77.2850363,50.2086614 77.3909946,50.1383275 C77.8004212,49.8644941 78.3046526,49.6778747 78.747075,49.4542128 C79.51992,49.0622184 80.3754868,48.4376531 81.2017757,48.1933599 C81.4731777,48.1131792 82.1056744,48.2810429 82.3222383,48.1094281 C82.6173415,47.8759194 81.8863221,47.4632937 81.7929115,47.3109035 C81.6381566,47.0656725 82.1786369,46.0608351 82.3459395,45.9529897 C82.5276487,45.8324843 82.6661381,45.8535845 82.7660549,45.9384541 L82.779532,45.9182917 C83.4529249,44.8253024 83.1215729,44.3939209 82.7944034,43.2807693 C82.6698559,42.8611101 83.0049258,42.8601724 83.0625522,42.5394496 C83.102519,42.3035965 82.8064863,42.0532077 82.7902208,41.8412681 C82.7711669,41.5993194 83.0323448,41.6030706 83.085324,41.4586516 C83.085324,41.4581827 83.0574402,41.1004174 83.0574402,41.1004174 C83.117855,40.9424005 83.3785682,40.8579998 83.4585017,40.708423 C83.6973726,40.2634436 83.5774724,39.7040544 83.6667005,39.2478217 C83.6671652,39.2478217 83.8525922,38.874114 83.8525922,38.874114 C83.8446918,38.7765843 83.4334063,38.7109393 83.6016383,38.4127235" id="Page-1" stroke="#4FBFB2"></path>
                <g id="Group-9" transform="translate(55.000000, 25.000000)" fill="#FFFFFF">
                    <polygon id="Star" points="4.5 7.54810516 1.71884705 9.01684984 2.25 5.90599868 -6.2394534e-14 3.70288166 3.10942353 3.24901459 4.5 0.418668711 5.89057647 3.24901459 9 3.70288166 6.75 5.90599868 7.28115295 9.01684984"></polygon>
                </g>
            </g>
        </g>
    </g>
</svg>