<?xml version="1.0" encoding="UTF-8" standalone="no"?>
<svg width="47px" height="76px" viewBox="0 0 47 76" version="1.1" xmlns="http://www.w3.org/2000/svg" xmlns:xlink="http://www.w3.org/1999/xlink">
    <!-- Generator: Sketch 40.1 (33804) - http://www.bohemiancoding.com/sketch -->
    <title>Group 8</title>
    <desc>Created with Sketch.</desc>
    <defs></defs>
    <g id="Page-1" stroke="none" stroke-width="1" fill="none" fill-rule="evenodd">
        <g id="Step-6---All-Filled" transform="translate(-466.000000, -127.000000)">
            <g id="Group-8" transform="translate(467.000000, 128.000000)">
                <g id="Group-7" stroke-linecap="round" stroke="#4FBFB2">
                    <g id="California">
                        <path d="M23.4961442,65.2546365 C24.3675865,66.4434247 24.780375,66.5361424 25.1364808,68.14586 C25.2264808,68.5546012 25.5202788,72.1322835 25.5246058,72.2384953 C28.8792692,72.66726 32.2187885,73.0555424 35.5613365,73.4076953 C36.0135,73.4547071 40.1803269,73.9666129 40.6398462,73.9052365" id="Stroke-1"></path>
                        <path d="M40.6400192,73.9054106 C40.894875,73.8718929 40.6638173,73.58634 40.7196346,73.4644576 C40.7988173,73.2959988 41.1869423,73.2781518 41.2786731,73.11274 C41.2730481,72.9599518 41.2626635,72.6552459 41.2626635,72.6543753 C41.3189135,71.6431871 40.0948269,72.1637988 40.107375,71.4172694 C40.1104038,71.1365047 40.4634808,70.8535635 40.4591538,70.5706224 C40.4548269,70.3181518 40.2038654,70.1518694 40.1800673,69.9494576 C40.1653558,69.8280106 40.4435769,69.6691282 40.4509327,69.5437635 C40.3873269,69.3574576 41.9577637,67.7004395 41.9577637,67.7004395 L42.7641058,66.6967773 C42.7641058,66.6967773 43.0103077,65.0236694 43.1496346,64.9096224 C43.4404038,64.6710812 44.7004038,64.5444106 44.8496827,64.0755988 C44.9050673,63.9010459 44.0024712,62.7248812 43.848,62.6386929 C43.7926154,62.6086576 43.7030481,62.6530576 43.6610769,62.60474 C43.713,62.3117871 43.5546346,61.3389047 43.5092019,61.1303988 C43.4356442,60.8004459 42.9107885,60.3607988 42.9622788,60.0769871 C43.0025192,59.8562929 42.8852596,58.9186694 42.8852596,58.9186694 C36.8868462,51.2100459 31.1657885,43.2868224 25.7471827,35.1572694 C24.3089135,33.0003871 22.8927115,30.8295753 21.4977115,28.6430929 C21.2026154,28.1808106 19.8617019,26.3473518 19.7993942,25.9573282 C19.7288654,25.5141988 20.1204519,24.6853988 20.2329519,24.2435753 C20.5695865,22.9093988 20.9066538,21.5752224 21.2441538,20.2401753 C22.4340577,15.5311635 23.6248269,10.8204106 24.8151635,6.10965765 C17.9634808,4.35629294 11.1589615,2.42532824 4.40636538,0.317634118 C4.53444231,0.925304706 3.63920192,1.53036353 3.646125,1.63135176 C3.65434615,1.74104588 4.01001923,1.89949294 4.06540385,2.00091647 C4.20992308,2.26601059 4.05675,4.06986941 3.96458654,4.35455176 C3.77420192,4.94176353 3.22122115,5.40970471 2.94040385,5.94294 C2.73703846,6.32774 2.95251923,6.70644588 2.76905769,7.08166941 C2.6505,7.32674 2.06463462,7.91177529 2.08064423,7.99926941 C2.09319231,8.06238706 2.63275962,7.73722235 2.59165385,8.09851647 C2.57564423,8.23606941 1.94304808,8.16816353 1.80631731,8.45066941 C1.81670192,8.61216353 1.84352885,8.65917529 1.82232692,8.69399882 C1.75655769,8.80064588 1.45410577,8.71141059 1.49131731,8.58996353 C1.56833654,8.34445765 1.68170192,8.56166941 1.75742308,8.31485765 C1.39872115,8.57255176 1.36843269,8.74884588 1.19232692,8.97302235 C0.920596154,9.32038706 0.409586538,9.66209294 0.292326923,10.1204576 C0.225692308,10.3794576 0.414778846,10.7172459 0.387086538,10.9853871 C0.371076923,11.1433988 0.195403846,11.3719282 0.218336538,11.5277635 C0.289730769,12.01834 1.02530769,12.4153282 1.16420192,12.8950224 C1.20400962,13.03214 1.08415385,13.2149635 1.11357692,13.3555635 C1.15078846,13.5253282 1.43420192,13.6798576 1.51468269,13.8369988 C1.65747115,14.1116694 1.87684615,14.7123753 1.8855,15.0209988 C1.89025962,15.1655165 1.75525962,15.3122106 1.75396154,15.4549871 C1.74876923,15.8397871 1.86429808,16.5088341 1.77819231,16.8892812 C1.71328846,17.1752694 1.15381731,17.6405988 1.04607692,18.0898224 C0.882519231,18.7701871 1.22477885,19.4113753 1.11660577,20.0699753 C1.02011538,20.6537047 0.671798077,20.7198694 0.699057692,21.0702812 C0.746221154,21.6657635 1.32775962,22.2899753 1.58477885,22.7618341 C1.78727885,23.13314 1.69251923,23.6620224 1.94477885,24.0550929 C2.17324038,24.4102929 2.69030769,24.6571047 2.86554808,25.0401635 C3.01525962,25.3675047 2.78939423,25.7087753 2.90102885,26.0047753 C2.96333654,26.1697518 3.173625,26.2145871 3.26449038,26.3656341 C3.36054808,26.5266929 3.38304808,26.7304106 3.42804808,26.9101871 C3.36660577,27.05514 3.33415385,27.0385988 3.30256731,27.0342459 C3.218625,27.0237988 3.15025962,27.1017165 3.11348077,27.1783282 C2.96593269,27.4847753 2.97458654,27.82474 2.70458654,28.0667635 C2.79848077,28.2617753 2.84780769,28.2204224 2.87723077,28.1721047 C2.95944231,27.9596812 2.98497115,27.9052694 3.02997115,27.8704459 C3.08795192,28.0162694 3.18271154,28.1860341 3.30386538,28.2891988 C3.66040385,28.5921635 3.61929808,29.0957988 3.94511538,29.3735165 C4.17271154,29.5672224 4.03078846,29.0130929 4.23675,29.3404341 C4.23718269,29.3408694 5.12506731,29.6190224 5.11641346,29.5110694 C5.09650962,29.2699165 5.40199038,29.3147518 5.41453846,29.1236576 C5.16400962,28.6457047 5.45694231,28.1351047 5.85199038,28.1359753 C6.093,28.1364106 6.30891346,28.2918106 6.46468269,28.4768106 C6.62045192,28.6618106 6.73295192,28.8798929 6.88179808,29.0705518 C6.92074038,29.1206106 6.96530769,29.1706694 7.02501923,29.1919988 C7.14011538,29.2324812 7.93713462,30.1792459 6.44997115,29.5532929 C6.12545192,29.4309753 6.30804808,31.4516106 6.35218269,31.5325753 C6.46468269,31.7389047 6.36646154,32.0288106 6.36083654,32.2486341 C6.35564423,32.4432106 6.82857692,33.0870106 6.50405769,33.1566576 C6.30328846,33.2001871 5.96405769,32.7405165 5.84809615,32.6103635 C5.77280769,32.5263518 5.69449038,32.43494 5.67977885,32.3230694 C5.62569231,31.8020224 5.08396154,31.9043165 5.12809615,31.4846929 C5.16011538,31.1913047 4.71790385,31.0720341 4.60626923,31.3336459 C4.49636538,31.5904694 4.12468269,31.8320576 4.27093269,32.1794224 L4.50069231,32.3635518 C4.58074038,32.4688929 4.55694231,32.5481165 4.55434615,32.6730459 C4.55131731,32.84934 4.54915385,33.0247635 4.54655769,33.2010576 C4.54179808,33.4343753 4.55348077,33.4948812 4.54136538,33.5519047 C4.48771154,33.7956694 4.25492308,34.0411753 4.23718269,34.2892929 C4.20559615,34.7054341 4.703625,35.5525165 4.92170192,35.8955282 C5.03506731,36.0744341 5.38165385,36.4971047 5.592375,36.55674 C5.71136538,36.5898224 5.76848077,36.4892694 5.88790385,36.5223518 L6.03285577,36.6816694 C6.18126923,36.6855871 6.21069231,36.5332341 6.35867308,36.5380224 C6.44824038,36.5410694 6.86578846,37.6932929 6.85194231,37.8495635 C6.85150962,37.8526106 6.67324038,38.1490459 6.672375,38.1516576 C6.66199038,38.2482929 6.86925,38.3627753 6.78920192,38.4184929 L6.55468269,38.2361047 C6.38896154,38.30314 6.29593269,38.8146106 6.166125,38.9482459 C5.88314423,39.2416341 5.84939423,38.3827988 5.39679808,38.9669635 C5.28646154,39.1088694 5.468625,39.1323753 5.513625,39.2337988 C5.51968269,39.2494694 5.491125,40.2693635 5.47771154,40.3969047 C5.46213462,40.5505635 5.24535577,40.9096812 5.29684615,41.0498459 C5.42189423,41.38894 6.07179808,41.8294576 6.24660577,42.1354694 C6.42833654,42.4567165 6.32881731,42.9420694 6.51400962,43.2628812 C6.59016346,43.39434 6.84848077,43.4631165 6.903,43.6041518 C6.89175,43.9428106 6.88699038,44.0773165 6.88223077,44.2126929 C6.94886538,44.75594 7.87397386,45.6476901 7.94580078,45.9885254 C7.98560847,46.1761372 7.80084886,47.2236364 7.94580078,47.4182129 C8.0630604,47.5770952 8.74367308,48.5381729 9.03703846,48.8999023 C9.198,49.1001376 9.71593269,49.9594459 10.0015096,50.5083518 C10.2645865,51.0124224 9.563625,51.3623988 9.47751923,51.7667871 C9.43771154,51.9552694 9.40309615,54.3041165 9.40309615,54.3041165 C9.40309615,54.3041165 9.64886538,55.1176812 9.75790385,55.2112694 C9.94093269,55.3692812 11.3151635,55.3736341 11.6543942,55.47114 C12.1749231,55.6200106 13.4816895,56.1794434 14.467041,56.9094238" id="Stroke-3"></path>
                    </g>
                </g>
                <polygon id="Star" fill="#FFFFFF" points="18.5 63.1294364 15.7188471 64.5981811 16.25 61.48733 14 59.2842129 17.1094235 58.8303459 18.5 56 19.8905765 58.8303459 23 59.2842129 20.75 61.48733 21.2811529 64.5981811"></polygon>
            </g>
        </g>
    </g>
</svg>