<?xml version="1.0" encoding="UTF-8" standalone="no"?>
<svg width="104px" height="69px" viewBox="0 0 104 69" version="1.1" xmlns="http://www.w3.org/2000/svg" xmlns:xlink="http://www.w3.org/1999/xlink">
    <!-- Generator: Sketch 40.1 (33804) - http://www.bohemiancoding.com/sketch -->
    <title>Group 12</title>
    <desc>Created with Sketch.</desc>
    <defs></defs>
    <g id="Page-1" stroke="none" stroke-width="1" fill="none" fill-rule="evenodd">
        <g id="Step-6---All-Filled" transform="translate(-1066.000000, -141.000000)">
            <g id="Group-12" transform="translate(1067.000000, 142.000000)">
                <path d="M98.5727539,50.34021 C98.5554745,48.4946007 98.3593462,48.537851 98.2202878,46.6453404 C98.1668038,45.9360604 97.2452335,44.5808582 97.5579091,44.0361443 C97.6105703,43.9489243 96.8469834,42.589608 96.7622318,42.5303642 L96.1278294,42.4760573 C96.0759911,42.268704 96.6379844,42.3378218 96.6602008,42.128 C96.6824173,41.9132412 95.5288087,40.5349998 95.1297358,40.1589661 C94.2468384,39.3320213 93.2487448,40.0552895 93.1343714,39.5936815 C93.0018956,39.0637785 94.5899588,39.6751417 94.5899588,39.6570394 C94.6212264,39.4200642 94.2871571,39.2908798 94.1332878,39.1073885 C93.3532443,38.17183 92.5847205,37.2642478 91.9256331,36.2406464 C89.5780971,32.5815183 85.9378942,25.5471388 85.9321344,25.7972793 C85.9304887,25.9231724 86.7714217,25.6154338 86.6767961,25.1316093 C86.4554547,23.9788235 82.77987,21.084928 81.8220951,20.1246846 C78.0346054,16.3339036 75.2378039,11.9605585 72.7454498,7.20953414 C72.4475851,6.64178097 71.9835086,6.1036497 71.7514703,5.50792028 C71.5967781,5.10391042 71.6601361,4.4250751 71.4157554,4.07619489 C71.3285353,3.95523878 71.0858003,4.07290357 70.9928204,3.96017576 C70.8323684,3.76598772 70.9525017,3.34305275 70.800278,3.14228206 C70.6628653,2.95961365 69.3405764,2.38527783 69.5643864,2.06684235 C69.8293378,1.69574571 70.3946225,2.70947312 70.4703229,2.57288323 C70.5764681,2.37951802 70.2037258,2.21248339 70.1411907,2.00430722 C70.0046008,1.57067545 70.193029,0.929690346 69.9906126,0.528148971 C69.7281297,0.0188167767 69.6442009,0.685309632 69.4327334,0.660624712 C69.2517107,0.639231114 69.2072778,0.453271379 69.1998724,0.246740877 C69.1998724,0.246740877 64.3336517,-0.323480789 63.6679817,0.269780136 L63.5782931,0.721514183 C62.5398808,1.49332937 63.5256319,2.52186772 63.811977,3.46812301 C63.8490044,3.59154762 63.8185597,3.72320053 63.8193825,3.85485344 C63.8358391,4.36007148 63.8004574,4.89244293 63.8572327,5.39519248 C63.8827405,5.60254581 64.1262983,5.8436352 63.9979368,6.009847 C63.9979368,6.009847 63.3273297,6.16207068 63.296885,6.16700766 C61.4463388,6.58911981 62.4287986,5.97940227 61.9959897,4.95497806 C61.8964272,4.73445944 61.4035516,4.68838092 61.2965836,4.46621664 C61.1591709,4.17904873 61.7450263,4.18809986 61.0168212,4.07619489 C59.8006774,3.89105799 52.7152824,5.36392491 50.9354996,5.62558507 C46.2025775,6.32910531 41.4655413,6.99148401 36.7260365,7.61848099 C36.0109966,7.71228369 31.854056,8.4363747 31.4887192,8.29484782 C30.6272155,7.96406988 30.8246948,7.20130584 30.3490987,6.37271533 C30.1022495,5.94895753 29.3641703,5.27752769 29.3641703,5.27752769 C22.4416958,6.53234449 15.5044103,7.70899237 8.55395947,8.809117 C7.31806778,9.00412787 0.73871361,9.72657321 0.135578717,10.0960242 C0.0927915214,10.1231776 0.23514123,10.660486 0.232672738,10.7205527 C0.216216124,10.9879727 -0.0684832931,11.5697139 0.0154454369,11.817386 C0.112539458,12.0880973 1.33691152,13.0870137 1.59281186,13.2721506 C1.97625096,13.5502674 3.001498,13.4770355 3.07555276,14.1040325 C3.13315091,14.5886797 2.65179496,15.1638384 2.73983784,15.6451943 C2.79825882,15.9652755 3.1463162,16.1825028 3.44335808,16.3627027 C3.71406937,16.307573 4.2859367,16.5289145 4.25960612,16.6778468 C4.21599609,16.8843774 3.49931056,17.0621088 3.37753162,17.2423087 C3.2080285,17.5006775 3.725589,17.8413294 3.31828781,18.1029896 C3.15948149,18.2066663 3.20309151,18.198438 3.16277281,18.3399648 C3.08295823,18.6172588 2.55799226,18.5851684 2.68059403,18.9636705 C3.18498924,18.8698678 3.54127493,18.6444122 3.93787932,18.4921885 C4.1411185,18.3967402 4.72944244,18.2412252 4.86932365,18.0684307 C4.86932365,18.0684307 4.8331191,17.6068227 5.26839654,16.9403298 C5.52265122,16.5593592 6.11344365,16.4984698 6.26895865,15.9340079 C6.4285878,15.3522666 5.39593529,15.1926375 5.65841828,14.5409556 C5.7258904,14.3780351 6.00812132,14.5936167 6.16363632,14.6717856 C6.26895865,14.7260925 6.43434762,14.7252696 6.48042614,14.8330604 C6.51580786,14.922749 6.25085638,15.0140832 6.32326548,15.0741498 C6.76841688,15.4230301 6.64746077,14.6693171 6.8144954,15.7036153 C6.83506616,15.8336226 6.97906153,16.1224361 7.06052177,16.0171138 C7.42668143,15.5382263 7.46782296,14.9219262 7.49662204,14.3434762 C7.50073619,14.2653073 7.51801563,14.0275092 7.61181833,13.9970645 C7.81012053,13.931238 7.715495,14.3648698 7.72454614,14.3829721 C7.74264841,14.4183538 7.48510241,14.9869298 7.71220367,15.2732749 C7.89980907,15.5036675 8.82220227,15.3292274 9.10031904,15.4707542 C9.23773177,15.5382263 9.47882116,15.758745 9.35868788,15.8525477 C9.35868788,15.8525477 8.67902973,16.1158535 8.6782069,16.1158535 C8.44534582,16.171806 6.25085638,17.6422044 6.26073034,17.7104994 C6.33807643,18.2247685 9.98815335,16.2458607 10.7862991,16.0385074 C11.6214723,15.8229258 12.1480839,15.1523188 12.9371785,14.7499546 C13.6884229,14.3673383 14.048,14.0209266 15.0033064,13.8020536 C15.7241061,13.6366646 16.4449057,13.8102819 16.9575293,13.8785769 C17.3384999,13.9304152 18.4517898,14.3484132 18.217283,14.7014075 C17.7770686,15.3654319 16.424335,15.2584639 15.8582275,15.1572557 C15.1300223,15.0264257 14.7202526,14.7532459 13.7509581,15.8739413 C13.416066,16.2606717 13.2802989,16.8876687 14.2578218,16.8103226 C14.8017129,16.7675354 18.3695067,16.0631923 19.0359996,16.0442672 C21.0716827,15.9874919 23.8923463,17.6092912 24.4115524,18.0075412 C24.8575267,18.3506616 25.3553392,18.7168213 25.8712541,18.9480367 C26.1427882,19.0665243 26.5681917,18.907718 26.8578281,18.9825956 C27.7909181,19.2179252 29.3584105,20.720414 28.9437039,21.7925624 C28.6548903,22.5413383 30.8123524,21.2116439 31.3751685,21.1252467 C31.5742936,21.0939791 31.9980514,21.2807617 32.1741371,21.186959 C32.5962493,20.9639719 32.991208,19.5231954 33.6461812,19.6309862 C33.8551802,19.6622537 33.4124973,20.4571082 33.4264854,20.5229346 C33.4717411,20.7706067 35.5181211,19.1372878 35.8085803,18.8797418 C36.2241098,18.5086451 36.8601579,17.6331533 37.3464508,17.420863 C37.4830407,17.3649105 37.6196306,17.5821378 37.7652717,17.5525159 C37.9430031,17.5212483 39.469354,16.9222276 39.3854253,16.8094998 C39.1788948,16.5190405 38.8407114,16.4688479 38.8497625,16.4161867 C38.8810301,16.2935849 39.1319934,15.4633488 39.6273375,15.0519334 L39.7359511,14.601845 C39.9054543,14.4183538 40.922473,14.7952102 40.9488036,14.7869819 L41.2450226,14.3023347 C41.8218269,13.9271239 42.6899133,14.0908672 43.2486153,14.3270196 C43.5752791,14.461141 45.0308666,15.3432155 45.3468336,15.1827635 C45.4332308,15.1399763 45.4027861,14.9589535 45.4924746,14.9392056 C45.7113476,14.8947728 47.9881201,16.2491521 48.1839538,16.521509 C48.3197209,16.720634 48.1905364,17.1707224 48.3518113,17.3435169 C48.5978376,17.6068227 49.4996601,17.7722117 49.8477174,17.8898764 C51.8068773,18.5407355 50.2525501,19.0994376 51.0334165,19.7782729 C51.380651,20.0802517 52.9703599,20.3838763 53.3809524,20.5665447 C53.9536426,20.8265592 54.0984608,21.5333707 54.4440497,21.8353496 C54.6390605,22.008144 55.0669325,21.9423176 55.2907424,22.0838445 C55.5968355,22.280501 55.6387998,22.8498998 55.8897632,23.0235171 C56.3077612,23.3147992 58.3360388,22.4302562 58.6454231,22.6433693 C59.0132285,22.8984468 58.8823984,23.2530869 58.9646815,23.4299955 C58.9646815,23.4308183 59.6262373,23.7130492 59.6262373,23.7130492 C59.8615669,23.9607213 59.8656811,24.6115803 60.0829084,24.8962797 C60.3996982,25.3093407 61.1550567,25.3151006 61.450453,25.6648036 C61.703062,25.9634911 61.7302154,26.8850615 61.7186958,26.8867072 C61.290001,26.9829784 61.6775542,26.4687092 61.2488594,26.5658032 C60.9468806,26.6308068 61.5928027,27.0751354 61.8092071,27.295654 C62.1021349,27.5943416 61.7228099,28.1077879 61.8429432,28.3546371 C61.9318089,28.5430653 62.4156333,29.541159 62.3901256,29.9435232 C62.3901256,29.9435232 62.0971979,30.4331074 62.0971979,30.4347531 C62.052765,30.6873621 62.2880946,30.9926323 62.2757521,31.2493555 C62.2543585,31.6755818 61.698125,32.44246 61.8199039,32.8415328 C61.912061,33.1533857 61.9680135,33.8404493 61.7433807,34.3489587 C61.683314,34.4863714 61.4520986,34.4962454 61.4051973,34.6377722 C61.2628476,35.0203885 61.8544628,35.3322413 62.009155,35.5716851 C62.2560042,35.9477187 62.0371312,38.0089096 61.8124985,38.3824747 C61.7598373,38.4614664 61.8190811,38.1907551 61.8190811,38.0961296 C61.3089261,39.3073364 62.5991246,39.3797455 63.1775746,39.9985142 C63.3536603,40.1877652 63.355306,40.9102106 63.7872921,40.92749 C63.9732518,40.9365411 63.6375369,40.4288546 63.4170183,40.1581433 C63.0722522,39.7352083 62.2584727,39.5031701 62.1391622,38.9477594 C62.0971979,38.7642681 62.4592434,38.9633932 63.0459217,39.3904423 C63.0467445,39.3904423 63.564305,39.9145854 63.564305,39.9145854 C63.6844383,39.9713607 63.8424218,39.7549563 63.9535039,39.8298339 C64.0020509,39.8627471 64.4323914,40.8468526 64.6241109,40.1087735 C64.7335474,39.6874842 64.3311832,38.4812144 64.6858232,38.2162629 C64.9672313,38.0056182 65.7258812,38.3026601 66.0541906,38.3026601 C66.3076225,37.9834018 65.8081643,36.8470726 66.499342,36.4924326 C66.9017063,36.2867249 67.5262347,37.4707783 67.5871242,37.7406668 C67.6743443,38.1356255 65.8303807,40.3185953 65.7168301,41.073131 C65.7168301,41.073131 65.6468895,41.5479043 65.6189132,41.7289271 C65.6896766,41.7108248 65.5004256,42.2555387 65.5004256,42.2555387 C65.4008631,42.3386446 65.0848961,42.2111059 65.114518,42.3402903 C65.1482541,42.4859313 65.6617004,42.3625067 65.5465041,42.4563094 C65.1828129,42.4423213 65.0536285,42.3641524 64.9984989,42.4357386 C64.7212049,42.7912015 65.3679499,42.8158864 64.7384844,42.9524763 C64.4858754,43.0100745 64.3715019,42.8800672 64.1855422,42.7558198 C64.1065504,42.7023358 63.9255277,42.4990966 63.9485669,42.5961906 C64.1345267,43.4535802 65.7423378,43.2478725 66.1891349,43.887212 C66.6375776,44.5356026 66.4343384,44.9527777 66.5610543,45.2086781 C66.7470141,45.5921172 67.4126841,45.5649637 67.6175689,45.8274467 C67.666116,45.8850449 67.8339734,45.9887215 67.758273,46.006001 C67.6685844,46.0265718 67.6109863,45.8274467 67.5188293,45.8471947 C67.4151526,45.8694111 68.9768852,47.81376 69.1644906,48.0285188 C69.8836447,48.8595778 70.6143183,49.7490578 71.8057771,49.8807107 C72.0024337,49.9021043 72.4163175,49.6116451 72.4681558,49.6231647 C72.7520324,49.6988651 72.2468144,50.1004065 72.7553238,49.9852102 C72.8688744,49.9580568 72.6631667,49.7688057 72.6146197,49.6610149 C72.4829668,49.3623274 72.2369404,48.4415798 71.9538867,48.2556201 C71.7975488,48.1519434 71.7465333,47.8466732 71.8625525,47.8507874 C71.8633753,47.8507874 72.3908098,48.3675251 72.3924554,48.3675251 L72.6450644,47.673056 C72.900142,47.4912104 72.9676141,48.1914393 73.0227437,48.4399342 L73.7007562,48.7089998 C74.2174939,49.2940324 73.6587918,50.1958548 73.7665827,50.8146235 C73.8389918,51.2194562 74.3466783,51.5378917 74.435544,51.9377874 C74.5737796,52.5458593 75.6113691,53.2732416 75.7051718,53.2757101 C75.9709461,53.2847612 76.6456672,53.5892086 76.8612489,53.5061027 C77.3096916,53.3316626 76.3659048,52.5573789 77.2537391,53.4155913 C77.5623006,53.7142789 77.4108998,54.1026549 77.4841317,54.4235589 C77.5433755,54.6728766 78.0428337,54.8851669 78.0642273,55.1377759 C78.0749241,55.23487 77.9144722,55.288354 77.9144722,55.385448 C77.8980155,56.5415251 79.2384067,57.3207458 79.7938174,58.131234 C79.8547069,58.2192769 79.9575607,58.6833534 80.1336465,58.6882904 C80.345114,58.6915817 80.4660701,58.3270677 80.6783604,58.3492841 C80.9482489,58.3764375 80.6158253,58.9993204 80.4232829,59.0429304 C80.2735277,59.0774893 80.0612374,58.8043095 79.9806,58.9326711 C79.9254704,59.0231824 80.0275014,59.1367331 80.0505406,59.2338271 C80.072757,59.3375038 80.0250329,59.4979558 80.1221269,59.5366288 C80.6396874,59.7513876 81.1144607,58.6701881 81.3654241,58.6142356 C81.5982851,58.5574603 81.856654,59.112871 81.9019097,59.1235678 C81.9019097,59.1235678 82.2466757,58.8306401 82.2491442,58.8306401 C82.4910564,58.8347542 83.3138871,59.161418 83.3797136,59.2017367 C83.7376449,59.4280151 85.2327283,59.0840719 85.3964716,59.7867693 L85.0467685,60.0788742 C85.0418316,60.8317643 85.7914303,60.5429507 86.0300512,60.6943516 C86.4752026,60.9708227 86.59945,61.902267 87.0067512,62.1556989 C87.1902425,62.271718 87.5103236,62.0495537 87.6485592,62.2157655 C87.6502048,62.2157655 87.5942523,62.8633333 87.5942523,62.8633333 L88.0871279,63.1686034 C88.2821388,63.4022874 88.2928356,63.9330132 88.5248739,64.1214414 C89.3485274,64.7961625 89.3172598,64.818379 89.1148435,64.8282529 C88.1965644,64.8776228 88.7067194,66.4015052 89.1469338,66.7248777 C89.9245088,67.2901624 91.2673685,66.9898292 92.0334239,66.4541664 C92.2860329,66.2789034 92.4111032,65.7926105 92.6834601,65.6609576 C93.0529111,65.4832262 93.9308715,66.1044633 94.4262155,65.8716022 C94.6302775,65.7728626 95.1297358,65.1173096 95.6719812,64.9294611 C96.5299072,64.53125 96.1278294,64.5080566 96.7622318,63.671875" id="Page-1" stroke="#4FBFB2" stroke-linecap="round"></path>
                <polygon id="Star" fill="#FFFFFF" points="98.5 60.1294364 95.7188471 61.5981811 96.25 58.48733 94 56.2842129 97.1094235 55.8303459 98.5 53 99.8905765 55.8303459 103 56.2842129 100.75 58.48733 101.281153 61.5981811"></polygon>
            </g>
        </g>
    </g>
</svg>