<?xml version="1.0" encoding="UTF-8" standalone="no"?>
<svg width="107px" height="45px" viewBox="0 0 107 45" version="1.1" xmlns="http://www.w3.org/2000/svg" xmlns:xlink="http://www.w3.org/1999/xlink">
    <!-- Generator: Sketch 40.1 (33804) - http://www.bohemiancoding.com/sketch -->
    <title>Group 5</title>
    <desc>Created with Sketch.</desc>
    <defs></defs>
    <g id="Page-1" stroke="none" stroke-width="1" fill="none" fill-rule="evenodd">
        <g id="Step-6---All-Filled" transform="translate(-1073.000000, -679.000000)">
            <g id="Group-5" transform="translate(1073.000000, 679.000000)">
                <g id="Nashville,-TN" stroke="#4FBFB2" stroke-linecap="round">
                    <path d="M39.3538,13.4961 C37.6038,13.5011 34.0708,13.8871 32.2808,14.2271 C31.4108,14.3901 29.5888,15.1161 28.7508,14.8891 C28.2658,14.7561 28.6628,14.3961 27.5378,14.4611 C27.3108,14.4731 25.7878,14.4101 25.6898,14.5621 C25.3968,15.0311 27.0508,16.6951 26.3228,17.3551 C25.9958,17.6471 22.4478,17.9881 21.7828,18.0951 C17.5418,18.7761 13.2988,19.4271 9.0528,20.0571 C6.9598,21.7421 8.5968,18.0031 7.2068,19.1191 C7.1448,19.1711 7.0468,19.1981 7.0158,19.2741 C6.7518,19.9481 7.8638,21.3111 7.8088,22.0531 C7.7788,22.4961 6.2068,22.3301 6.6388,22.9891 C6.8398,23.3021 7.6268,23.2971 7.7988,23.6241 C7.8998,23.8151 6.3568,24.1261 6.4198,24.6401 C6.4698,25.0181 7.4358,25.3891 7.4308,25.7641 C7.4258,25.9211 6.7408,26.2431 6.6458,26.3871 C6.3888,26.7811 6.2958,27.4661 6.1528,27.9161 C6.1118,28.0441 6.0258,28.2971 6.0258,28.2971 C6.3188,28.5661 6.3918,28.6381 6.6848,28.9091 C7.7018,29.8571 6.1608,29.0161 5.7668,29.6371 C5.2098,30.5151 6.8128,30.1531 6.3588,30.8671 C6.2588,31.0241 5.6268,30.8341 5.5048,30.9771 C5.3278,31.1791 5.5328,31.5501 5.3878,31.7761 C5.1468,32.1531 3.8688,32.1371 3.5298,32.5311 C2.8858,33.2771 4.8188,33.1221 5.1878,33.6281 C5.3528,33.8531 4.0808,34.4351 4.0008,34.5611 C3.7958,34.8831 4.5508,35.0101 4.3138,35.3061 C3.9138,35.7941 3.1168,34.7431 2.8108,35.4951 C2.3928,36.5301 4.2378,36.9031 3.6778,37.2121 C2.2458,38.0011 2.9368,36.5221 2.2958,36.6011 C1.5178,36.6961 1.4058,38.2751 1.4098,38.2751 C1.9348,38.2091 1.4668,37.7451 1.9928,37.6801 C2.1718,37.6561 2.6998,38.9711 2.6138,39.1711 C2.4998,39.4311 1.6558,39.5451 1.5968,39.8151 C1.5368,40.1261 2.8188,40.1311 2.9888,40.4251 C3.0998,40.6201 3.1598,42.1781 2.9948,42.2501 C2.7198,42.3711 2.3708,41.9721 2.0978,42.1001 C1.7928,42.2431 1.8838,43.2461 1.6068,43.4641 C1.4128,43.6171 0.6698,43.3981 0.5278,43.5951 C0.4498,43.6981 0.5608,43.8501 0.5768,43.9791 C0.5888,44.1061 0.6208,44.3661 0.6208,44.3661 C9.7828,43.2521 18.9238,42.0191 28.0528,40.6671 C27.9828,40.1911 29.4098,40.2271 29.8568,40.1641 C31.8528,39.8941 33.8498,39.6211 35.8408,39.3391 C44.3188,38.1461 52.7498,36.7401 61.1728,35.2181 C66.7668,34.2931 72.3508,33.3241 77.9288,32.3101 C77.9288,32.3101 77.3808,29.7011 77.6018,28.4201 C77.8178,27.1701 80.0158,28.3481 80.4308,27.0621 C80.4718,26.9281 80.4328,26.7811 80.4328,26.6411 C80.4398,26.2171 80.4418,25.7941 80.4458,25.3681 C80.4458,25.2301 80.3998,25.0801 80.4478,24.9491 C80.6538,24.3801 82.9348,22.2191 83.5888,21.9321 C83.9748,21.7601 84.4668,21.8361 84.8598,21.6711 C85.0128,21.6041 85.0628,21.3131 85.2278,21.3281 C85.2308,21.3281 85.7548,21.7491 85.7548,21.7491 C86.5788,21.7421 86.5948,20.8241 87.0258,20.4281 C87.2788,20.1941 87.8048,20.2041 88.0278,19.9481 C88.1588,19.8121 87.9978,19.5251 88.1358,19.3981 C88.2938,19.2541 88.5968,19.3971 88.7688,19.2661 C89.3028,18.8551 89.6258,17.8621 90.1318,17.3871 C90.8508,16.7231 92.2268,16.7521 92.3988,16.6411 C93.0998,16.1751 92.8978,13.8821 92.9018,13.8791 C93.2848,13.5821 93.8948,14.0691 94.2198,13.8591 C94.3868,13.7501 94.3138,12.9421 94.4168,12.7581 C94.5488,12.5181 95.6208,11.4111 95.8718,11.3741 C96.9718,11.2231 96.2348,12.9531 97.0468,12.7091 C98.2548,12.3451 98.3228,10.5741 99.2628,9.8261 C99.5708,9.5871 100.6438,8.7481 100.9758,8.6461 C101.6788,8.4341 102.3078,9.7351 102.8768,9.2791 C103.2538,8.9801 103.9458,6.4081 104.2708,5.7691 C104.3878,5.5461 104.8838,4.6211 105.0818,4.5191 C105.3128,4.3941 106.2408,4.7871 106.0918,4.1521 C105.8298,3.0101 105.7678,1.6521 106.3388,0.5001" id="Stroke-1"></path>
                    <path d="M106.3391,0.5 C106.3391,0.5 104.3711,0.799 103.3861,0.95 C102.8281,1.032 103.0121,1.13 102.6071,1.359 C101.4281,2.036 99.3241,2.105 97.9871,2.405 C92.4011,3.654 86.7991,4.855 81.1881,6.015 C81.1881,6.015 80.9501,6.173 80.8281,6.256 C80.2271,6.657 79.1301,6.62 78.4111,6.728 C76.3461,7.033 74.2881,7.366 72.2301,7.709 C69.0061,8.242 65.7181,8.547 62.5111,9.158 C59.5981,9.713 52.6901,11.407 49.7291,11.746" id="Stroke-3"></path>
                </g>
                <polygon id="Star" fill="#FFFFFF" points="45.5 20.1294364 42.7188471 21.5981811 43.25 18.48733 41 16.2842129 44.1094235 15.8303459 45.5 13 46.8905765 15.8303459 50 16.2842129 47.75 18.48733 48.2811529 21.5981811"></polygon>
            </g>
        </g>
    </g>
</svg>