<?xml version="1.0" encoding="UTF-8" standalone="no"?>
<svg width="97px" height="75px" viewBox="0 0 97 75" version="1.1" xmlns="http://www.w3.org/2000/svg" xmlns:xlink="http://www.w3.org/1999/xlink">
    <!-- Generator: Sketch 40.1 (33804) - http://www.bohemiancoding.com/sketch -->
    <title>Group 2</title>
    <desc>Created with Sketch.</desc>
    <defs></defs>
    <g id="Page-1" stroke="none" stroke-width="1" fill="none" fill-rule="evenodd">
        <g id="Step-6---All-Filled" transform="translate(-109.000000, -135.000000)">
            <g id="Group-2" transform="translate(110.000000, 136.000000)">
                <path d="M79.6228027,64.9642195 C80.1306152,64.1433105 80.4751499,63.7712195 80.9191499,63.4312195 C81.1071499,63.2932195 81.4011499,63.4772195 81.6051499,63.3772195 C81.7471499,63.3102195 81.8761499,63.2042195 81.9551499,63.0712195 C82.0071499,62.9912195 81.9001499,62.8602195 81.9671499,62.7922195 C82.2111499,62.5322195 82.8351499,62.6402195 83.0951499,62.3982195 C83.3611499,62.1522195 84.0341499,61.5162195 84.4271499,61.3792195 L84.8921499,61.4942195 C85.4291499,61.1262195 85.9871499,60.7872195 86.5271499,60.4212195 C87.1471499,60.0002195 90.8671499,57.0812195 91.6601499,56.4042195 C92.7371499,55.4872195 93.7551499,54.5042195 94.8271499,53.5812195 C94.8971499,53.4422195 94.8661499,53.4062195 94.8371499,53.3752195 C94.6591499,53.1882195 94.4541499,53.0242195 94.2321499,52.8912195 C94.1271499,52.8282195 94.0151499,52.7712195 93.8931499,52.7642195 C93.3851499,52.8342195 92.7751499,53.4652195 92.4371499,53.6522195 C91.9131499,53.9412195 91.3721499,54.0892195 90.7751499,54.1082195 C90.3031499,54.1202195 86.2941499,57.1062195 84.4441499,57.8712195 C83.6211499,58.2092195 81.0541499,58.9562195 81.0541499,58.9562195 C80.7271499,58.9302195 78.3931499,60.3782195 78.3041499,60.7362195 C78.2821499,60.8432195 77.3391499,60.5432195 76.9071499,60.9412195 C76.5941499,61.2252195 76.6301499,62.0452195 76.0571499,62.0632195 C75.9311499,62.0672195 75.8171499,61.9872195 75.7281499,61.8972195 C75.2921499,61.4622195 74.8291499,61.0522195 74.3931499,60.6162195 C74.1621499,60.3852195 73.5771499,59.9572195 73.5171499,59.6112195 C73.4661499,59.3182195 75.5741499,57.3442195 75.5501499,56.9832195 C75.5271499,56.6852195 74.5411499,56.2732195 74.3771499,56.0002195 C74.2231499,55.7422195 74.2201499,55.4162195 74.1401499,55.1242195 C73.6491499,53.3252195 73.1621499,51.5242195 72.6791499,49.7232195 C72.4371499,48.8222195 72.1961499,47.9212195 71.9561499,47.0202195 C71.7651499,46.3062195 71.6621499,45.3832195 71.3141499,44.7262195 C71.2241499,44.5562195 71.0931499,44.4122195 70.9871499,44.2512195 C70.4311499,43.4062195 70.6951499,42.4382195 70.6561499,41.5022195 C70.5481499,38.9002195 70.4251499,36.2982195 70.3161499,33.6952195 C70.3111499,33.5752195 70.3051499,33.4522195 70.2561499,33.3422195 C70.2071499,33.2332195 70.1191499,33.1462195 70.0391499,33.0572195 C69.0881499,32.0092195 69.1681499,30.4912195 68.7751499,29.2112195 C68.2811499,27.5982195 67.9621499,25.9382195 67.4461499,24.3312195 C67.1881499,23.5282195 66.8981499,22.7222195 66.4851499,21.9852195 C66.2951499,21.6452195 65.4601499,20.2542195 64.9211499,20.5832195 C64.7251499,20.7022195 64.7801499,20.9942195 64.7141499,21.2132195 C64.6321499,21.4852195 64.2861499,21.6762195 64.0571499,21.4382195 C63.9261499,21.3022195 63.8961499,21.1002195 63.8931499,20.9112195 C63.8731499,19.6552195 63.7571499,18.3292195 63.3001499,17.1502195 C63.1041499,16.6452195 62.8931499,16.1252195 62.6211499,15.6562195 C62.3571499,15.2002195 61.8791499,14.9272195 61.6261499,14.4692195 C61.3601499,13.9892195 61.3081499,13.1182195 61.4071499,12.5802195 C61.5051499,12.0412195 61.9841499,11.4892195 61.7871499,10.9212195 C61.6221499,10.4472195 61.2031499,10.0902195 61.0971499,9.58921953 C61.0031499,9.16921953 61.3501499,8.56621953 61.1981499,8.16521953 C60.8851499,7.33821953 59.6411499,6.86921953 59.2831499,6.05421953 C58.9431499,5.27621953 59.3261499,4.15821953 58.9571499,3.39121953 C58.8011499,3.06621953 58.2321499,2.91521953 58.0901499,2.58121953 C57.8491499,2.00721953 58.2071499,1.32721953 57.6501499,0.128219532 C55.2881499,0.998219532 52.9201499,1.85421953 50.5291499,2.65521953 C48.2441499,3.42221953 45.9411499,4.36421953 43.6031499,4.94521953 C43.0541499,5.08021953 42.2631499,5.01621953 41.7581499,5.26821953 C41.3191499,5.49121953 40.8551499,6.15421953 40.4971499,6.50121953 C38.2401499,8.70821953 36.6581499,11.4982195 35.3541499,14.3542195 C35.0811499,14.9502195 34.6541499,15.7022195 34.5721499,16.3582195 C34.5521499,16.5182195 34.5651499,16.6802195 34.5631499,16.8412195 C34.5481499,18.1462195 33.4681499,19.1362195 32.7041499,20.0842195 C32.1141499,20.8172195 31.3911499,21.5052195 30.8851499,22.3012195 C30.6911499,22.6062195 29.6141499,23.5152195 29.8001499,23.9652195 C29.9751499,24.3882195 30.1381499,24.2112195 30.5071499,24.3552195 C30.8151499,24.4752195 30.6271499,25.0072195 30.8351499,25.0182195 C31.0001499,25.0252195 31.2941499,23.5102195 31.6661499,24.0462195 C31.7961499,24.2292195 32.1801499,23.6422195 32.3591499,23.8642195 C32.4441499,23.9702195 32.1851499,24.3462195 32.3071499,24.2762195 C33.0241499,23.8642195 32.6041499,24.4722195 32.2721499,24.8652195 C32.1491499,25.0092195 31.9091499,25.4432195 32.0931499,25.4042195 C32.7981499,25.2582195 33.2601499,24.4982195 33.6151499,24.5102195 C33.9801499,24.5232195 33.0341499,25.6172195 33.0281499,25.6272195 C32.9131499,25.8552195 33.0781499,26.6672195 32.5941499,27.2272195 C32.4701499,27.3722195 32.3181499,26.9362195 32.2751499,26.7492195 C32.2501499,26.6492195 32.1171499,26.8792195 32.0491499,26.9532195 C31.8721499,27.1452195 31.5311499,27.2562195 31.6521499,27.6192195 C31.7131499,27.7922195 32.4091499,27.6832195 32.4981499,27.9622195 C32.6101499,28.3102195 33.1821499,28.8062195 33.2231499,29.0682195 C33.2791499,29.4682195 33.2501499,30.0832195 33.5771499,30.4052195 C33.6581499,30.4842195 33.6911499,29.5492195 33.9901499,30.0612195 C34.0781499,30.2112195 33.6861499,30.6132195 33.7071499,30.8352195 C33.7561499,31.3052195 34.0851499,31.1062195 34.1571499,31.3082195 C34.2221499,31.4822195 33.9331499,31.6062195 33.8711499,31.7812195 C33.3121499,33.4312195 32.2781499,32.3032195 31.8761499,32.7932195 C31.3721499,33.4082195 31.2801499,33.8182195 30.6391499,34.3532195 C30.2261499,34.6982195 29.7741499,35.4672195 29.6001499,36.0002195 C29.5461499,36.1612195 29.7341499,36.6762195 29.5661499,36.7762195 C29.4381499,36.8552195 29.2911499,36.4982195 29.0871499,36.7162195 C28.4011499,37.4522195 28.0501499,37.4922195 27.2791499,38.1302195 C27.0411499,38.3232195 27.5681499,38.6932195 27.2871499,38.7962195 C26.8191499,38.9692195 26.9021499,38.3922195 26.7291499,38.4512195 C26.1131499,38.6582195 25.5171499,38.5762195 24.8941499,38.7572195 C23.5591499,39.1422195 22.3811499,39.5482195 21.2871499,40.3852195 C21.0371499,40.5762195 20.8011499,40.8082195 20.4731499,40.8372195 C19.6731499,40.9132195 18.9811499,40.1362195 18.4071499,40.0282195 C17.2031499,39.7982195 15.1491499,40.1262195 13.9571499,40.4062195 C12.1291499,40.8352195 10.3771499,41.5342195 8.69514992,42.3612195 C7.82714992,42.7882195 6.97714992,43.2502195 6.13514992,43.7262195 C5.72614992,43.9572195 5.31914992,44.1922195 4.91414992,44.4292195 C4.69414992,44.5562195 3.94414992,44.8282195 3.89414992,45.0982195 C3.87214992,45.2172195 3.91614992,45.3382195 3.95614992,45.4522195 C4.16814992,46.0622195 4.17014992,46.7272195 4.39214992,47.3332195 C4.53614992,47.7252195 5.12414992,48.0862195 5.10514992,48.5072195 C5.10114992,48.5972195 5.06714992,48.6852195 5.06714992,48.7752195 C5.06714992,48.9692195 5.21814992,49.1292195 5.37514992,49.2432195 C5.95914992,49.6702195 6.73814992,49.7732195 7.29914992,50.2302195 C7.73214992,50.5812195 8.11914992,51.2772195 7.99014992,51.8552195 C7.85314992,52.4642195 7.36714992,52.8072195 6.95414992,53.2272195 C6.48014992,53.7102195 6.40814992,54.2892195 6.05114992,54.8242195 C5.82914992,55.1572195 5.97914992,55.5602195 5.80314992,55.8792195 C5.76014992,55.9562195 5.68914992,56.0132195 5.61914992,56.0682195 C4.51214992,56.9382195 3.64014992,58.0492195 2.80214992,59.1702195 C1.96214992,60.2932195 1.07314992,61.3122195 0.136149923,62.3462195 C-0.306850077,62.8342195 0.459149923,64.3942195 0.620149923,64.9642195 C0.724149923,65.3342195 0.712149923,66.2742195 1.11414992,66.4642195 C1.25614992,66.5312195 1.42314992,66.4942195 1.57414992,66.4532195 C4.99314992,65.5432195 8.40014992,64.5472195 11.8191499,63.6222195 C22.5651499,60.7212195 33.2601499,57.6292195 43.8981499,54.3492195 C44.8141499,54.0662195 50.5231499,52.0372195 50.9791499,52.1342195 C51.8741499,52.3232195 52.0661499,53.5522195 52.5431499,53.8352195 C53.1291499,54.1812195 53.6991499,53.2712195 54.2811499,53.5202195 C54.5221499,53.6232195 54.6111499,53.9112195 54.7351499,54.1432195 C54.8891499,54.4312195 55.1281499,54.6642195 55.3041499,54.9402195 C55.7061499,55.5692195 55.4881499,56.2752195 55.7951499,56.9172195 C56.0111499,57.3662195 56.4361499,57.7822195 56.7821499,58.1312195 C56.9131499,58.2632195 57.1211499,58.5342195 57.3101499,58.5862195 C57.6191499,58.6692195 57.9481499,58.2492195 58.2491499,58.4302195 C58.3181499,58.4722195 58.3641499,58.5422195 58.4231499,58.5972195 C59.0811499,59.2202195 60.1041499,58.0292195 60.8071499,58.9842195 C60.9031499,59.1132195 60.9691499,59.2622195 61.0671499,59.3902195 C61.3861499,59.8072195 62.2991499,59.8242195 62.7751499,59.9332195 C63.5131499,60.1032195 64.2511499,60.2742195 64.9891499,60.4452195 C66.4321499,60.7792195 67.4461499,61.3792195 69.0381499,62.4292195 C70.6301499,63.4792195 70.4041499,63.7646641 70.9871499,64.5556641" id="Page-1" stroke="#4FBFB2" stroke-linecap="round"></path>
                <polygon id="Star" fill="#FFFFFF" points="75.5 72.1294364 72.7188471 73.5981811 73.25 70.48733 71 68.2842129 74.1094235 67.8303459 75.5 65 76.8905765 67.8303459 80 68.2842129 77.75 70.48733 78.2811529 73.5981811"></polygon>
            </g>
        </g>
    </g>
</svg>