<?xml version="1.0" encoding="UTF-8" standalone="no"?>
<svg width="118px" height="46px" viewBox="0 0 118 46" version="1.1" xmlns="http://www.w3.org/2000/svg" xmlns:xlink="http://www.w3.org/1999/xlink">
    <!-- Generator: Sketch 40.3 (33839) - http://www.bohemiancoding.com/sketch -->
    <title>Group 12</title>
    <desc>Created with Sketch.</desc>
    <defs></defs>
    <g id="Page-1" stroke="none" stroke-width="1" fill="none" fill-rule="evenodd">
        <g id="Desktop-NYC/LA-Thumbnail" transform="translate(-1057.000000, -151.000000)">
            <g id="Group-12" transform="translate(1058.000000, 151.000000)">
                <path d="M35.3828546,0.980108904 L35.3454098,1.0177104 L35.3454098,1.0929134 L35.3454098,1.13035823 L35.3828546,1.2057179 L35.3828546,1.2433194 L35.3828546,1.28107757 L35.3454098,1.28107757 L35.3454098,1.3185224 L35.2324486,1.3185224 L35.1948471,1.28107757 L35.1948471,1.3185224 L35.1572456,1.3561239 L35.1572456,1.39388207 L35.1948471,1.4313269 L35.1948471,1.50668657 L35.1948471,1.5817329 L35.1572456,1.61949107 L35.0820426,1.6945374 L35.0820426,1.76989707 L35.0444411,1.8073419 L34.9692381,1.8073419 L34.9692381,1.88270157 L34.9692381,1.95806124 L34.9692381,1.99550607 L35.0068396,2.03310757 L35.0068396,2.07070907 L35.0444411,2.07070907 L35.0444411,2.14591207 L35.0444411,2.18351357 L35.0444411,2.22111507 L35.0820426,2.25871657 L35.0820426,2.33407624 L35.0444411,2.37152107 L35.0444411,2.40912257 L35.0820426,2.44672407 L35.0820426,2.48432557 L35.0820426,2.52192707 L35.0820426,2.55968524 L35.0820426,2.63473157 L35.0820426,2.78529424 L35.1196441,2.78529424 L35.1196441,2.82273906 L35.0820426,2.89809874 L35.0820426,2.93570024 L35.0444411,2.97330174 L35.0068396,2.97330174 L34.9316366,3.01090324 L34.8188321,3.08610624 L34.8188321,3.12370773 L34.8564336,3.16130923 L34.8564336,3.23651223 L34.8188321,3.27411373 L34.8188321,3.31171523 L34.8188321,3.34947341 L34.8188321,3.38691823 L34.7813873,3.46212123 L34.7813873,3.53732423 L34.7436291,3.6126839 L34.6308246,3.7254884 L34.5557783,3.76293323 L34.5180201,3.8006914 L34.4804186,3.87573773 L34.4804186,3.9510974 L34.5180201,4.0263004 L34.5557783,4.0639019 L34.5932231,4.1015034 L34.5932231,4.1391049 L34.6308246,4.1767064 L34.5932231,4.25206607 L34.5932231,4.2895109 L34.5557783,4.3271124 L34.5557783,4.36487057 L34.5932231,4.4023154 L34.6684261,4.47767507 L34.6684261,4.5527214 L34.6684261,4.59047957 L34.6684261,4.62808107 L34.7060276,4.70328407 L34.7060276,4.74088557 L34.7436291,4.7783304 L34.8188321,4.7783304 L34.8940351,4.85369007 L34.8940351,4.92889307 L34.8940351,4.96649457 L34.8940351,5.00409607 L34.8188321,5.04169757 L34.7436291,5.00409607 L34.7060276,4.96649457 L34.6308246,4.92889307 L34.5932231,4.92889307 L34.5180201,4.92889307 L34.4804186,4.92889307 L34.4428171,4.92889307 L34.4052156,4.96649457 L34.3676141,4.96649457 L34.3301693,4.96649457 L34.2924111,4.96649457 L34.2548096,4.96649457 L34.2172081,4.96649457 L34.1796066,4.96649457 L34.1796066,4.92889307 L34.1045603,4.92889307 L34.1045603,4.8911349 L33.9915991,4.81608857 L33.9163961,4.7783304 L33.8787946,4.7783304 L33.8411931,4.7783304 L33.8035916,4.74088557 L33.8035916,4.70328407 L33.8035916,4.66568257 L33.7661468,4.62808107 L33.7283886,4.62808107 L33.6907871,4.62808107 L33.5779826,4.66568257 L33.5405378,4.74088557 L33.3899751,4.7783304 L33.2771706,4.7783304 L33.1643661,4.85369007 L33.0893198,4.8911349 L33.0139601,4.92889307 L32.9765153,4.96649457 L32.9387571,4.96649457 L32.8635541,5.04169757 L32.7509063,5.15450207 L32.7131481,5.22970507 L32.6755466,5.26730657 L32.6379451,5.30506474 L32.5627421,5.38011106 L32.4499376,5.41771256 L32.4123361,5.38011106 L32.2619301,5.49291556 L32.1491256,5.71852456 L31.9235166,6.05709473 L31.8483136,6.20750073 L31.5475016,6.62111723 L31.3970956,6.8844844 L31.3594941,6.9972889 L31.1714866,7.33585907 L31.0210806,7.5237099 L31.0210806,7.56146807 L30.7954716,7.93748307 L30.7578701,8.01268607 L30.6450656,8.16309206 L30.6450656,8.20069356 L30.6450656,8.27589656 L30.6074641,8.27589656 L30.5698626,8.31349806 L30.5322611,8.31349806 L30.4948163,8.31349806 L30.4194566,8.23829506 L30.3818551,8.23829506 L30.3066521,8.20069356 L30.2692073,8.27589656 L30.2692073,8.31349806 L30.1938476,8.42630256 L30.1186446,8.46406074 L29.9683953,8.53910706 L29.9307938,8.53910706 L29.8930356,8.53910706 L29.7051848,8.53910706 L29.6674266,8.53910706 L29.6298251,8.50150556 L29.5922236,8.50150556 L29.5546221,8.50150556 L29.4795758,8.53910706 L29.3290131,8.53910706 L29.2914116,8.50150556 L29.2539668,8.38885774 L29.2162086,8.31349806 L29.2162086,8.23829506 L29.2162086,8.16309206 L29.1786071,8.01268607 L29.1786071,7.97508457 L29.1411623,7.89988157 L29.1034041,7.82467857 L29.0658026,7.82467857 L28.9905996,7.82467857 L28.9155533,7.86212339 L28.8027488,7.86212339 L28.7649906,7.86212339 L28.7273891,7.89988157 L28.6899443,7.89988157 L28.6521861,7.89988157 L28.6145846,7.89988157 L28.6145846,7.86212339 L28.5769831,7.82467857 L28.5393816,7.82467857 L28.5017801,7.78707707 L28.4265771,7.74931889 L28.3889756,7.71187407 L28.3513741,7.67427257 L28.2761711,7.63651439 L28.2387263,7.63651439 L28.2009681,7.63651439 L28.1259218,7.67427257 L28.1259218,7.71187407 L28.0881636,7.78707707 L28.0505621,7.82467857 L27.9753591,7.89988157 L27.9753591,7.93748307 L27.9379143,7.93748307 L27.8625546,7.97508457 L27.8625546,8.01268607 L27.8249531,8.05028757 L27.7875083,8.08788906 L27.7497501,8.05028757 L27.7123053,8.01268607 L27.6747038,8.01268607 L27.6369456,8.01268607 L27.5993441,8.08788906 L27.5617426,8.12549056 L27.5241411,8.12549056 L27.4865396,8.12549056 L27.4865396,8.08788906 L27.4490948,8.08788906 L27.4113366,8.08788906 L27.3737351,8.08788906 L27.2985321,8.01268607 L27.2609306,7.97508457 L27.1482828,8.01268607 L27.0729231,8.05028757 L27.0353216,8.08788906 L26.9978768,8.12549056 L26.8850723,8.20069356 L26.8473141,8.23829506 L26.7722678,8.23829506 L26.7345096,8.23829506 L26.6970648,8.27589656 L26.6217051,8.27589656 L26.5089006,8.27589656 L26.4712991,8.27589656 L26.4712991,8.23829506 L26.3960961,8.27589656 L26.3210498,8.31349806 L26.3210498,8.35125624 L26.2456901,8.38885774 L26.1704871,8.42630256 L26.1330423,8.42630256 L26.0954408,8.46406074 L26.0576826,8.50150556 L25.9826363,8.53910706 L25.9448781,8.53910706 L25.7570273,8.68951306 L25.6818243,8.76471606 L25.5688631,8.91512206 L25.4936601,9.06568473 L25.0048407,9.89291773 L24.9673958,9.93051922 L24.9296377,9.9682774 L24.7792317,10.0434804 L24.7040287,10.0810819 L24.6665838,10.1186834 L24.6665838,10.1562849 L24.6289823,10.1938864 L24.5536227,10.2314879 L24.4409748,10.3442924 L24.3656152,10.4196521 L24.2905688,10.4196521 L24.2152092,10.4196521 L24.1777643,10.4570969 L24.1400062,10.4570969 L24.0272017,10.4946984 L23.9896002,10.5324566 L23.9143972,10.5324566 L23.8769523,10.5324566 L23.8015927,10.6075029 L23.7265463,10.6452611 L23.6887882,10.7580656 L23.5383822,10.7204641 L23.4631792,10.6828626 L23.4257343,10.6452611 L23.4257343,10.5699014 L23.3881328,10.5699014 L23.2375702,10.5324566 L23.1999687,10.5699014 L23.1247657,10.5699014 L23.0497193,10.5324566 L23.0119612,10.5324566 L23.0119612,10.4570969 L23.0119612,10.4196521 L23.0497193,10.2314879 L23.0873208,10.1938864 L23.0497193,10.1186834 L23.0119612,10.1186834 L22.9743597,10.0810819 L22.9743597,10.0058789 L22.9743597,9.93051922 L23.0119612,9.89291773 L23.0497193,9.81771473 L23.1247657,9.70491023 L23.1625238,9.6674654 L23.2375702,9.59210573 L23.2375702,9.55450423 L23.2375702,9.51690273 L23.2375702,9.47930123 L23.1999687,9.44169973 L23.1625238,9.4042549 L23.1625238,9.36649673 L23.0873208,9.32889523 L23.0497193,9.29129373 L23.0119612,9.25369223 L22.9369148,9.25369223 L22.9743597,9.17848923 L22.9743597,9.14073106 L22.9369148,9.10328623 L22.8241103,8.99048173 L22.7863522,8.95288023 L22.7113058,8.95288023 L22.6359462,8.99048173 L22.5985013,9.02808323 L22.5607432,9.06568473 L22.4856968,9.06568473 L22.4479387,9.06568473 L22.3728923,9.10328623 L22.2976893,9.14073106 L22.2600878,9.17848923 L22.1095252,9.21609073 L22.0720803,9.25369223 L22.0720803,9.29129373 L22.0344788,9.32889523 L21.8839162,9.4042549 L21.8464713,9.44169973 L21.7711117,9.47930123 L21.7335102,9.47930123 L21.6960653,9.47930123 L21.6960653,9.51690273 L21.6960653,9.55450423 L21.6583072,9.59210573 L21.5455027,9.6674654 L21.5080579,9.6298639 L21.4704564,9.6674654 L21.2070892,9.81771473 L21.1694877,9.8554729 L21.0944414,9.8554729 L21.0192384,9.89291773 L20.8686757,9.93051922 L20.8312309,9.9682774 L20.8312309,10.0434804 L20.7936294,10.0810819 L20.7558712,10.1186834 L20.7558712,10.2690894 L20.7936294,10.3068476 L20.8312309,10.3068476 L20.8686757,10.3442924 L20.8686757,10.3818939 L20.8312309,10.4570969 L20.7558712,10.4570969 L20.7558712,10.4946984 L20.7182697,10.4946984 L20.7182697,10.5699014 L20.7182697,10.6828626 L20.6808249,10.6828626 L20.5302622,10.7956671 L20.4552159,10.9084716 L20.4552159,10.9459164 L20.4928174,11.0212761 L20.4552159,11.0588776 L20.4174577,11.0588776 L20.3798562,11.0588776 L20.3046532,11.0964791 L20.2296069,11.1340806 L20.1918487,11.0212761 L20.1544039,10.9459164 L20.0792009,10.9084716 L20.0039979,10.8331119 L19.8911934,10.7204641 L19.8534352,10.6828626 L19.7406307,10.7204641 L19.6278262,10.6452611 L19.5903814,10.6075029 L19.4399754,10.6828626 L19.3271709,10.7204641 L19.2894127,10.7580656 L19.2519679,10.7204641 L19.2143664,10.8331119 L19.2143664,10.9459164 L19.2143664,10.9836746 L19.1766082,10.9836746 L19.1391634,11.0212761 L19.1015619,11.0212761 L19.0638037,11.0212761 L19.0638037,11.0964791 L19.0638037,11.1340806 L19.0638037,11.1716821 L19.0638037,11.2092836 L19.0638037,11.2468851 L19.1391634,11.3220881 L19.1391634,11.5100956 L19.1766082,11.5478537 L19.1766082,11.5852986 L19.1766082,11.6229001 L19.1391634,11.6606582 L19.1391634,11.6982597 L19.1766082,11.7358612 L19.1766082,11.7733061 L19.2143664,11.7733061 L19.2143664,11.8110642 L19.2143664,11.8485091 L19.1766082,11.8861106 L19.1391634,11.9238687 L19.0638037,11.9238687 L18.9887574,11.9989151 L18.9509992,11.9989151 L18.9509992,12.0742747 L18.9133977,12.2245241 L18.9133977,12.3374852 L18.9133977,12.3752434 L18.8759529,12.4126882 L18.8383514,12.4126882 L18.8007499,12.4126882 L18.7631484,12.4502897 L18.7253902,12.4880479 L18.6879454,12.6008524 L18.5751409,12.6008524 L18.5751409,12.6382972 L18.4623364,12.7512584 L18.4247349,12.8639062 L18.4247349,12.9015077 L18.3869767,12.9392659 L18.3869767,12.9768674 L18.3493752,13.0144689 L18.3119304,13.0896719 L18.3493752,13.1272734 L18.3119304,13.1648749 L18.2367274,13.1648749 L18.1613677,13.2024764 L18.1237662,13.2776794 L18.0485632,13.3528824 L17.9357587,13.4280854 L17.8983139,13.4280854 L17.8231109,13.4280854 L17.7479079,13.3528824 L17.6727049,13.3152809 L17.5973452,13.2776794 L17.5222989,13.2399212 L17.4470959,13.2024764 L17.3717362,13.1648749 L17.3342914,13.2024764 L17.2966899,13.2024764 L17.2590884,13.2024764 L17.2214869,13.2024764 L17.2214869,13.1648749 L17.1461272,13.1272734 L17.0710809,13.1648749 L17.0333227,13.1648749 L16.9958779,13.1648749 L16.8830734,13.1272734 L16.8077137,13.1272734 L16.7326674,13.1648749 L16.7326674,13.2024764 L16.5822614,13.3152809 L16.5446599,13.3152809 L16.5446599,13.3528824 L16.5070584,13.3528824 L16.4694569,13.3528824 L16.3942539,13.3906406 L16.3564957,13.4280854 L16.2814494,13.4656869 L16.1686449,13.4280854 L15.9052777,13.4656869 L15.9052777,13.5034451 L15.8302314,13.4656869 L15.7550284,13.4656869 L15.7174269,13.5034451 L15.6798254,13.5408899 L15.6798254,13.5784914 L15.6798254,13.6162496 L15.6046224,13.7666556 L15.5670209,13.7666556 L15.4918179,13.8041004 L15.4542164,13.8794601 L15.4542164,13.9169049 L15.3790134,14.0298661 L15.3412552,14.0298661 L15.2284507,14.0674676 L15.1910059,14.0674676 L15.1534044,14.0674676 L15.0029984,14.0674676 L14.9653969,14.0674676 L14.9277954,14.0298661 L14.8900372,14.0674676 L14.7772327,14.0298661 L14.6645849,14.0298661 L14.6645849,14.0674676 L14.6269834,14.1050691 L14.5141789,14.1426706 L14.4765774,14.1802721 L14.4765774,14.2178736 L14.4765774,14.2554751 L14.4765774,14.2930766 L14.4765774,14.3306781 L14.4389759,14.4058811 L14.4765774,14.4436392 L14.4389759,14.5186856 L14.4389759,14.5562871 L14.4013744,14.5938886 L14.3637729,14.6314901 L14.3260147,14.6314901 L14.2884132,14.6692482 L14.2509684,14.7444512 L14.1757654,14.7820527 L14.1004057,14.7820527 L13.9876012,14.8572557 L13.9876012,14.9700602 L13.9501564,15.0452632 L13.8747967,15.1204662 L13.8373519,15.1204662 L13.7245474,15.1580677 L13.6869459,15.1580677 L13.6117429,15.0828647 L13.5741414,15.0076617 L13.3861339,14.9700602 L13.3485324,15.0076617 L13.2357279,15.0452632 L13.1981264,15.0076617 L13.1981264,15.0452632 L13.1605249,15.0828647 L13.1229234,15.1204662 L13.1229234,15.1580677 L13.1229234,15.1956692 L13.0851652,15.2332707 L13.0851652,15.2708722 L12.9723607,15.3836767 L12.9349159,15.3836767 L12.8973144,15.3460752 L12.8221114,15.3836767 L12.8221114,15.4212782 L12.7845099,15.4212782 L12.6717054,15.4212782 L12.6717054,15.4590364 L12.6341039,15.5716842 L12.5589009,15.6092857 L12.4836979,15.6092857 L12.4462531,15.6468872 L12.3708934,15.6846454 L12.2580889,15.7222469 L12.2580889,15.7596917 L12.2204874,15.7596917 L12.1452844,15.7974499 L12.1076829,15.7974499 L11.9948784,15.7596917 L11.9196754,15.7596917 L11.9196754,15.7974499 L11.8444724,15.8724962 L11.7692694,15.9476992 L11.6940664,16.0606604 L11.5812619,16.0606604 L11.5436604,16.0982619 L11.5436604,16.1358634 L11.5060589,16.1734649 L11.4684574,16.1734649 L11.4684574,16.2110664 L11.4684574,16.2486679 L11.4310126,16.2862694 L11.3556529,16.4366754 L11.2802932,16.4366754 L11.2052469,16.5118784 L10.9420364,16.4744336 L10.9044349,16.4366754 L10.7540289,16.4366754 L10.6412244,16.4366754 L10.4908184,16.4366754 L10.4157721,16.4366754 L10.3028109,16.3990739 L10.2276079,16.3990739 L10.1901631,16.4366754 L10.1148034,16.4366754 L10.0772019,16.4366754 L10.0396004,16.4366754 L10.0396004,16.3990739 L9.96439743,16.2862694 L9.85159293,16.2110664 L9.81399143,16.1734649 L9.77638993,16.1734649 L9.70103026,16.2486679 L9.47557793,16.3238709 L9.40037493,16.3238709 L9.40037493,16.3616291 L9.36277343,16.3616291 L9.28757044,16.3616291 L9.17492261,16.3238709 L9.13716444,16.2862694 L9.09956294,16.3238709 L9.06196144,16.2862694 L9.02435994,16.2862694 L8.91139876,16.2862694 L8.87395394,16.2862694 L8.79875094,16.2862694 L8.61090011,16.2862694 L8.57314194,16.2862694 L8.53554044,16.2862694 L8.49793894,16.2862694 L8.30993144,16.3616291 L8.27232994,16.3616291 L8.15952544,16.3616291 L8.12192394,16.3238709 L7.93391644,16.3616291 L7.82111195,16.3238709 L7.78351045,16.3616291 L7.74590895,16.3616291 L7.63310445,16.3616291 L7.63310445,16.4366754 L7.52029995,16.5118784 L7.44494028,16.5872381 L7.21948795,16.6622844 L7.14428495,16.7376441 L7.10668345,16.7752456 L6.91883262,16.9256516 L6.88107445,16.9256516 L6.84347295,16.8878934 L6.73066845,16.9632531 L6.61786395,16.9632531 L6.54266095,16.9632531 L6.50505945,16.9256516 L6.46745795,16.9256516 L6.39225496,16.9256516 L6.27945046,16.9256516 L6.20424746,16.9632531 L6.16664596,17.0006979 L6.12904446,17.0760576 L6.01639663,17.2264636 L5.97863846,17.2264636 L5.90359213,17.3016666 L5.90359213,17.3392681 L5.90359213,17.3768696 L5.90359213,17.4146277 L5.82823246,17.4146277 L5.79078763,17.4896741 L5.79078763,17.5648771 L5.75302946,17.6400801 L5.67782646,17.6776816 L5.64006829,17.6776816 L5.56502196,17.6400801 L5.52742046,17.6400801 L5.52742046,17.6776816 L5.41461596,17.6776816 L5.33941296,17.7530412 L5.33941296,17.7906427 L5.22660846,17.8280876 L5.18900696,17.8658457 L5.15140546,17.7906427 L5.11396064,17.7906427 L5.07620246,17.7906427 L5.07620246,17.8658457 L5.03860096,17.9410487 L5.00115614,17.9410487 L4.96339797,17.9032906 L4.96339797,17.9410487 L4.92579647,17.9786502 L4.92579647,18.0162517 L4.85059347,18.0162517 L4.77554714,18.1290562 L4.66258597,18.1666577 L4.62482779,18.2418607 L4.58738297,18.2793056 L4.54993814,18.3546652 L4.54993814,18.3922667 L4.51217997,18.4300249 L4.47457847,18.4300249 L4.39937547,18.5428294 L4.36177397,18.5802742 L4.32417247,18.5802742 L4.28657097,18.6178757 L4.24896947,18.6556339 L4.24896947,18.6930787 L4.28657097,18.7684384 L4.32417247,18.8060399 L4.36177397,18.8060399 L4.43697697,18.9188444 L4.43697697,18.9562892 L4.39937547,18.9940474 L4.36177397,19.0316489 L4.39937547,19.0316489 L4.39937547,19.0692504 L4.39937547,19.1068519 L4.39937547,19.2196564 L4.32417247,19.3324609 L4.24896947,19.4076639 L4.24896947,19.4454221 L4.17376647,19.4830236 L4.02336047,19.5582266 L3.98591565,19.5956714 L4.06096197,19.7838356 L4.09872014,19.8214371 L4.09872014,19.8588819 L4.06096197,19.8966401 L4.06096197,19.9342416 L4.02336047,20.0846476 L3.98591565,20.1598506 L4.02336047,20.1598506 L4.09872014,20.1974521 L4.17376647,20.3478581 L4.13616497,20.4230611 L4.09872014,20.4606626 L4.06096197,20.4984207 L3.98591565,20.5358656 L3.87295447,20.6862716 L3.76030665,20.8368342 L3.68494697,20.8368342 L3.60974397,20.8744357 L3.49693948,20.9118806 L3.45933798,20.9118806 L3.38413498,20.9496387 L3.34653348,20.9496387 L3.34653348,20.9870835 L3.34653348,21.024685 L3.30893198,21.024685 L3.23372898,21.1000447 L3.19628415,21.1000447 L3.19628415,21.1376462 L3.15852598,21.1376462 L3.12092448,21.1376462 L3.08347965,21.1376462 L3.00811998,21.1000447 L2.93291698,21.1000447 L2.89531548,21.1000447 L2.82011248,21.1000447 L2.78266765,21.1000447 L2.74506615,21.1376462 L2.74506615,21.1752477 L2.70730798,21.1752477 L2.66970648,21.1752477 L2.63210498,21.1752477 L2.59450348,21.1376462 L2.55690198,21.1376462 L2.44409748,21.1376462 L2.36889448,21.1376462 L2.33129298,21.1376462 L2.29384816,21.1752477 L2.21848848,21.1376462 L2.18104366,21.1376462 L2.10568399,21.1752477 L2.06808249,21.2128492 L1.95543466,21.2128492 L1.88007499,21.1376462 L1.80487199,21.1376462 L1.76742716,21.0624432 L1.76742716,20.9496387 L1.72982566,20.9118806 L1.72982566,20.8744357 L1.65446599,20.7990761 L1.65446599,20.7614746 L1.61686449,20.7240297 L1.50405999,20.7240297 L1.46645849,20.7240297 L1.39125549,20.7990761 L1.27860766,20.9118806 L1.24084949,20.9496387 L1.09044349,21.024685 L1.05284199,21.0624432 L1.01524049,21.1376462 L0.789631494,21.2128492 L0.714585168,21.3256537 L0.676826995,21.3632552 L0.639225496,21.4008567 L0.601780669,21.3632552 L0.564022496,21.6640672 L0.48897617,22.0400822 L0.451217997,22.2658479 L0.451217997,22.3034494 L0.338413498,23.0180346 L0.263367171,23.4694092 L0.225608998,23.6948615 L0.188007499,23.8078227 L0.112804499,24.3718452 L0.0752029995,24.5222512 L0.0752029995,24.5974542 L0.0752029995,24.6350557 L0,25.1240319 L0.789631494,25.1616334 L1.12804499,25.1992349 L1.35365399,25.1992349 L1.50405999,25.1992349 L1.84263016,25.2368364 L2.29384816,25.2744379 L2.51930048,25.2744379 L2.93291698,25.3121961 L3.00811998,25.3121961 L3.79790815,25.3494842 L3.91055597,25.3494842 L4.13616497,25.3494842 L4.47457847,25.3872424 L4.70018747,25.3872424 L5.03860096,25.3872424 L5.22660846,25.4248439 L5.60262346,25.4248439 L5.86583396,25.4248439 L5.94103696,25.4622887 L6.05384146,25.4622887 L6.42985646,25.4622887 L6.46745795,25.4622887 L6.80602813,25.5002036 L6.95627745,25.5002036 L7.14428495,25.5002036 L7.48269845,25.5002036 L7.82111195,25.5376484 L7.85871345,25.5376484 L7.89615827,25.5376484 L9.17492261,25.6130081 L9.17492261,25.5376484 L9.47557793,25.5376484 L10.1148034,25.5752499 L10.9796379,25.5752499 L12.2956904,25.6130081 L12.4836979,25.6130081 L12.6717054,25.6504529 L12.7093069,25.6504529 L12.8973144,25.6504529 L12.9349159,25.6504529 L13.0851652,25.6504529 L13.4237354,25.6504529 L13.5363832,25.6504529 L14.2132102,25.6504529 L14.7397879,25.6504529 L14.8525924,25.6504529 L15.9052777,25.6882111 L16.5822614,25.5002036 L16.8454719,25.4248439 L17.1085257,25.3494842 L17.2214869,25.3121961 L17.3717362,25.2744379 L18.7253902,24.8982662 L19.8911934,24.5974542 L20.1544039,24.5222512 L20.1918487,24.5222512 L20.2296069,24.4848064 L20.2672084,24.5222512 L20.3046532,24.5222512 L20.3046532,24.5598527 L20.3046532,24.6350557 L20.2672084,24.7104154 L20.2672084,24.7480169 L20.2296069,24.7854617 L20.2672084,24.8232199 L20.3046532,24.8608214 L20.3424114,24.8232199 L20.3798562,24.8232199 L20.4552159,24.7854617 L20.5680204,24.7854617 L20.6056219,24.7854617 L20.6430667,24.7104154 L20.6430667,24.6726572 L20.6808249,24.6350557 L20.7182697,24.6350557 L20.7558712,24.6350557 L20.8312309,24.6350557 L20.8312309,24.5598527 L20.9064339,24.5222512 L20.9438787,24.4848064 L20.9438787,24.4470482 L20.9438787,24.4094467 L20.9814802,24.4094467 L21.0192384,24.4094467 L21.0568399,24.4094467 L21.1320429,24.4094467 L21.2448474,24.3718452 L21.2824489,24.3342437 L21.3198937,24.3342437 L21.3576519,24.3718452 L21.3950967,24.3342437 L21.4704564,24.2590407 L21.4704564,24.2212825 L21.4704564,24.1838377 L21.4704564,24.1462362 L21.4326982,24.108478 L21.4704564,24.0710332 L21.4704564,24.0334317 L21.5080579,23.9956735 L21.5080579,23.9582287 L21.5080579,23.9206272 L21.5455027,23.9206272 L21.5832608,23.9206272 L21.6207057,23.9206272 L21.6583072,23.9206272 L21.6583072,23.9582287 L21.6960653,23.9956735 L21.6960653,24.0334317 L21.7335102,24.0334317 L21.8464713,24.0334317 L21.8839162,24.0334317 L21.9592758,23.9956735 L21.9592758,23.9582287 L21.9967207,23.9582287 L22.0344788,23.9206272 L22.0720803,23.882869 L22.1095252,23.882869 L22.1472833,23.882869 L22.1847282,23.9206272 L22.2223297,23.9206272 L22.2600878,23.9206272 L22.2976893,23.9206272 L22.3351342,23.8452675 L22.3728923,23.8078227 L22.4104938,23.8078227 L22.4856968,23.7700645 L22.4856968,23.732463 L22.5231417,23.732463 L22.6359462,23.732463 L22.6735477,23.7700645 L22.7487507,23.732463 L22.8241103,23.6948615 L22.8617118,23.6948615 L22.8991567,23.6948615 L22.9369148,23.6948615 L23.0119612,23.6574167 L23.0497193,23.6574167 L23.0873208,23.6196586 L23.1247657,23.5822137 L23.1625238,23.5444556 L23.1999687,23.5444556 L23.1999687,23.5822137 L23.2375702,23.5444556 L23.2753283,23.5444556 L23.2753283,23.5068541 L23.2753283,23.4694092 L23.3129298,23.4316511 L23.3503747,23.4316511 L23.3881328,23.4316511 L23.4631792,23.4316511 L23.5009373,23.4316511 L23.5009373,23.4694092 L23.5383822,23.4694092 L23.5383822,23.5068541 L23.5759837,23.5068541 L23.6137418,23.5068541 L23.6513433,23.5068541 L23.6513433,23.4694092 L23.6887882,23.4694092 L23.7265463,23.4316511 L23.7639912,23.3940496 L23.9143972,23.3940496 L23.9896002,23.3940496 L24.0272017,23.3940496 L24.1025613,23.2812451 L24.1400062,23.2434869 L24.2152092,23.2434869 L24.2905688,23.2061987 L24.3656152,23.2434869 L24.4033733,23.2434869 L24.5161778,23.1684406 L24.5912242,23.2061987 L24.5912242,23.2434869 L24.6289823,23.2812451 L24.5912242,23.2812451 L24.5912242,23.3188466 L24.6289823,23.3940496 L24.6665838,23.3940496 L24.7040287,23.3940496 L24.7792317,23.3940496 L24.8168332,23.3564481 L24.8545913,23.3188466 L24.8921928,23.2061987 L24.9296377,23.1308391 L24.9296377,23.0933942 L25.0048407,22.9426749 L25.0424422,22.8674719 L25.0802003,22.8300271 L25.1552467,22.8300271 L25.2680512,22.7924256 L25.3808557,22.6420196 L25.4186138,22.6042614 L25.4560586,22.6042614 L25.4560586,22.6420196 L25.5314183,22.6794644 L25.5314183,22.7548241 L25.5688631,22.8300271 L25.6064646,22.9052301 L25.5688631,22.9426749 L25.5688631,22.9804331 L25.5688631,23.0180346 L25.5688631,23.0933942 L25.6064646,23.1308391 L25.6442228,23.1684406 L25.6818243,23.1684406 L25.7192691,23.1684406 L25.7570273,23.1308391 L25.7944721,23.1308391 L25.7944721,23.0933942 L25.7944721,23.0554794 L25.8320736,23.0180346 L25.9074333,23.0180346 L25.9826363,22.9804331 L26.0200811,22.9804331 L26.0954408,23.0180346 L26.0954408,23.0554794 L26.1330423,23.0554794 L26.1704871,23.0180346 L26.1704871,23.0554794 L26.2082453,23.0554794 L26.2082453,23.0933942 L26.2832916,23.1308391 L26.3210498,23.1308391 L26.3584946,23.0933942 L26.3960961,23.0933942 L26.3960961,23.0554794 L26.4338543,23.0554794 L26.5465021,23.0180346 L26.6970648,22.9804331 L26.7722678,22.9426749 L26.8473141,22.9052301 L26.9601186,22.9052301 L27.1857276,22.9426749 L27.2609306,22.9426749 L27.4490948,22.9804331 L27.5241411,22.9804331 L27.5993441,22.9804331 L27.6369456,22.9804331 L27.7123053,23.0180346 L27.8249531,23.0180346 L27.9753591,23.0180346 L28.1259218,23.0554794 L28.2387263,23.0554794 L28.3513741,23.0554794 L28.7273891,23.0933942 L29.1786071,23.1308391 L29.2539668,23.1308391 L29.3666146,23.1308391 L29.9307938,23.1684406 L30.0435983,23.1684406 L30.4570581,23.2061987 L30.5322611,23.2061987 L30.7578701,23.2434869 L30.8706746,23.2434869 L30.9460343,23.2434869 L31.5100568,23.2812451 L31.6227046,23.2812451 L32.1867271,23.3188466 L32.4123361,23.3564481 L32.5252973,23.3564481 L32.6003436,23.3564481 L33.1267646,23.3940496 L33.5027796,23.4316511 L33.5405378,23.4316511 L33.5779826,23.4316511 L33.6531856,23.4316511 L33.9163961,23.4316511 L33.9539976,23.4694092 L34.1420051,23.4694092 L34.2172081,23.4694092 L34.2548096,23.4694092 L34.4428171,23.4694092 L34.5180201,23.5068541 L34.7060276,23.5068541 L34.7813873,23.5068541 L35.1572456,23.5444556 L35.4580576,23.5822137 L35.5710188,23.5822137 L35.6460651,23.5822137 L36.0220801,23.6196586 L36.1350412,23.6196586 L36.2476891,23.6196586 L36.4732981,23.6574167 L36.5108996,23.6574167 L36.5862592,23.6574167 L36.8493131,23.6574167 L37.1501251,23.6948615 L37.1877266,23.6948615 L37.4885386,23.6948615 L37.5261401,23.732463 L37.6014997,23.732463 L37.7141476,23.732463 L37.7517491,23.732463 L37.7893506,23.732463 L37.8269521,23.732463 L37.8645536,23.732463 L37.9021551,23.732463 L38.8421926,23.8078227 L39.3310121,23.8452675 L39.4438166,23.8452675 L39.5190196,23.8452675 L39.6318241,23.882869 L39.8198315,23.882869 L40.1206435,23.882869 L40.158245,23.9206272 L40.459057,23.9206272 L40.4966585,23.9206272 L40.8726735,23.9582287 L41.2861334,23.9956735 L41.3990945,23.9956735 L41.812711,24.0334317 L41.9255155,24.0334317 L42.0007185,24.0334317 L42.1511245,24.0710332 L42.188726,24.0710332 L42.414335,24.0710332 L42.639944,24.108478 L42.9031545,24.1462362 L43.0535605,24.1462362 L43.0535605,24.1838377 L43.015959,24.2212825 L43.015959,24.2590407 L42.940756,24.4094467 L42.940756,24.4470482 L42.9783575,24.4470482 L43.1287635,24.5222512 L43.1287635,24.5974542 L43.2039665,24.7104154 L43.2039665,24.7854617 L43.2039665,24.8232199 L43.166365,24.8608214 L43.166365,24.8982662 L43.1287635,24.8982662 L43.0910054,24.8982662 L43.0535605,24.8982662 L43.015959,24.9361811 L42.9783575,24.9361811 L42.9783575,24.9736259 L42.940756,25.0110707 L42.9031545,25.0110707 L42.8653964,25.1240319 L42.8653964,25.1616334 L42.8653964,25.3121961 L42.8653964,25.3494842 L42.8653964,25.5376484 L42.8653964,25.5752499 L42.940756,25.6504529 L43.0535605,25.8384604 L43.767989,25.3494842 L43.8055905,25.3121961 L43.8806368,25.2744379 L44.1816055,25.0862737 L44.219207,25.0488289 L44.2568085,25.0110707 L44.29441,24.9736259 L44.4824175,24.8608214 L44.520019,24.9361811 L44.6702683,25.1240319 L44.820831,25.3494842 L44.9336355,25.5002036 L45.1214863,25.7258126 L45.3096505,25.9890231 L45.3848535,26.1394291 L45.5352595,26.365038 L45.6855088,26.5532022 L45.9111178,26.9292172 L46.099282,27.192271 L46.3623358,27.5308412 L46.4376955,27.6436457 L46.400094,27.869098 L46.3623358,28.1702234 L46.2120865,29.1854639 L46.2120865,29.2608235 L46.2120865,29.3360265 L46.2120865,29.4112295 L46.174485,29.4864325 L46.4376955,29.4864325 L46.5128985,29.4864325 L47.1145225,29.4864325 L47.1897255,29.4864325 L47.227327,29.4864325 L47.5657405,29.5241907 L47.6783883,29.5241907 L47.7159898,29.5241907 L47.8665525,29.5241907 L47.9415988,29.5241907 L48.1672078,29.5241907 L48.204966,29.5241907 L48.430575,29.5241907 L48.5056213,29.5241907 L48.9193945,29.5614789 L49.2952528,29.5614789 L49.7464708,29.5614789 L50.1226425,29.599237 L50.1976888,29.599237 L50.2730485,29.599237 L50.3104933,29.599237 L50.4985008,29.599237 L50.5361023,29.599237 L50.7241098,29.599237 L50.7994695,29.599237 L50.837071,29.599237 L50.9497188,29.599237 L51.06268,29.6368385 L51.1754845,29.6368385 L51.2129293,29.6368385 L51.4385383,29.6368385 L52.0779205,29.6368385 L52.190725,29.67444 L52.4537788,29.67444 L52.6793878,29.67444 L52.8299505,29.67444 L52.942755,29.67444 L53.0178013,29.67444 L53.619582,29.7120415 L53.6571835,29.7120415 L54.1836044,29.7120415 L54.5220179,29.7497997 L54.5970643,29.7497997 L54.7476269,29.7497997 L54.8226733,29.7497997 L54.9732359,29.7497997 L55.0482823,29.7497997 L55.3866958,29.7497997 L55.6876644,29.7872445 L55.7251093,29.7872445 L55.7628674,29.7872445 L56.1387258,29.7872445 L56.2140854,29.7872445 L56.3267333,29.7872445 L56.5147408,29.7872445 L56.5899438,29.7872445 L56.6653034,29.824846 L56.7781079,29.824846 L56.8909124,29.824846 L57.1165214,29.824846 L57.6427858,29.8626042 L58.1316052,29.8626042 L58.3948157,29.8626042 L59.6732667,29.8626042 L59.8238294,29.8626042 L60.0494384,29.8626042 L60.3126489,29.9002057 L60.4628982,29.9002057 L60.7637102,29.9002057 L60.8013117,29.9002057 L60.9517177,29.9002057 L61.0269207,29.975252 L61.1773267,30.1258147 L61.3653342,30.3139789 L61.4781387,30.4266267 L61.5158969,30.4642282 L61.6661462,30.6146342 L61.8165522,30.7650402 L62.0045597,30.9156029 L62.4557777,31.4042657 L62.5311374,31.4797821 L62.8317927,31.7804374 L62.9821987,31.931 L63.0198002,31.931 L63.2078077,32.1190075 L63.3958152,32.307015 L63.5086197,32.457421 L63.6214242,32.6079837 L63.6590257,32.6079837 L63.7718302,32.68303 L63.7718302,32.7207882 L63.9222362,32.8335927 L64.2982512,33.2472092 L65.0128364,33.9617944 L65.1256409,34.0747556 L65.4640544,34.4507705 L65.5391007,34.5259735 L65.5768589,34.5634184 L65.6519052,34.638778 L65.8023112,34.7515825 L65.8023112,34.7890274 L65.9152724,34.9019885 L66.0655217,35.0522379 L66.2159277,35.240402 L66.4039352,35.4284095 L66.5543412,35.5788155 L66.6295442,35.6540185 L66.6671457,35.7293782 L66.7423487,35.766823 L66.9679577,35.992432 L67.0055592,36.0677917 L67.1937234,36.2557992 L67.2311682,36.2934007 L67.3063712,36.3686037 L67.3439727,36.4062052 L67.8329489,36.9327829 L67.9455967,37.0457441 L68.3969714,37.4968054 L68.9232357,37.9857815 L69.2992507,38.399398 L69.3368522,38.4369995 L69.7504687,38.850616 L69.9008747,39.0011787 L69.9762343,39.1138265 L70.0138358,39.1138265 L70.2016867,39.301834 L70.2768897,39.3771937 L70.3144912,39.4525534 L70.3520927,39.4899982 L70.4647405,39.5652012 L70.502342,39.6404042 L70.7657092,39.8661699 L70.9913182,40.0916222 L71.0289197,40.1668252 L71.2921302,40.3925909 L71.4049347,40.5428402 L71.4801377,40.6183565 L71.5177392,40.6183565 L71.5177392,40.6558014 L71.7809497,40.8814104 L72.1569647,41.257582 L72.3449722,41.4833477 L72.5329796,41.6711985 L72.5705811,41.7088 L72.6833856,41.8216045 L72.9089946,42.0473702 L73.3224545,42.4611434 L73.3602126,42.4984315 L73.660868,42.8371584 L73.6986261,42.8371584 L73.8114306,42.9498062 L74.3378516,43.4763839 L74.4506561,43.6267899 L74.4882576,43.6267899 L74.4882576,43.664548 L74.7890696,43.9276019 L74.9018741,44.040563 L74.9770771,44.1156094 L75.2778891,44.416578 L75.2778891,44.4541795 L75.3530921,44.5295392 L75.4282951,44.6045855 L75.5034981,44.6797885 L75.5410996,44.6797885 L75.7291071,44.9053975 L75.9548728,45.1310065 L76.1427236,45.0559602 L76.2179266,44.9806005 L76.2553714,44.9806005 L76.3683326,44.9053975 L76.7065894,44.792593 L76.7443476,44.792593 L76.8195506,44.7549915 L76.8573088,44.7549915 L76.9321984,44.71739 L77.0827611,44.6797885 L78.0227986,44.3036169 L78.0604001,44.3036169 L78.0980016,44.3036169 L78.4738599,44.266172 L79.4891004,44.1535242 L80.0156781,44.1156094 L80.0908811,44.1156094 L80.5043409,44.1156094 L80.6173021,44.1156094 L80.8053096,44.1156094 L80.8805126,44.1156094 L80.9931604,44.1156094 L81.2566843,44.1156094 L81.2939724,44.1156094 L81.3317306,44.1156094 L81.4443784,44.1535242 L81.6325426,44.1908124 L81.7827919,44.1908124 L81.8205501,44.1908124 L81.8955964,44.2285705 L81.9709561,44.2285705 L82.0084009,44.266172 L82.1588069,44.3036169 L82.2340099,44.3036169 L82.6852279,44.4541795 L82.7229861,44.4541795 L82.7981891,44.4541795 L82.9108369,44.491781 L82.9484384,44.566984 L83.0236414,44.7549915 L83.0236414,44.8303512 L83.0236414,44.9053975 L83.0613996,44.9806005 L83.5500624,45.1687647 L83.7006251,45.0559602 L83.7006251,44.9806005 L83.7382266,44.642187 L83.8508744,44.1156094 L84.0014371,43.8147974 L84.1140849,43.589345 L84.2644909,43.1379704 L84.3396939,42.9122047 L84.3774521,42.7619554 L84.4150536,42.6865957 L84.5277014,42.3105807 L84.5653029,42.1977762 L84.7157089,41.7088 L84.7534671,41.5959955 L84.7909119,41.4833477 L84.8285134,41.4455895 L84.8662716,41.407988 L85.0165209,40.9566134 L85.2046851,40.4301924 L85.3925359,40.0916222 L85.6183016,39.7532087 L85.6183016,39.7156072 L85.8437539,39.3395922 L85.9189569,39.2643892 L86.1821674,38.8130145 L86.2197689,38.775413 L86.2197689,38.7378115 L86.5583391,38.324195 L86.8589944,37.9857815 L86.8967525,37.9480234 L87.0470019,37.797774 L87.235166,37.5344069 L87.4983765,37.2711964 L87.5735795,37.1958367 L87.686384,37.1206337 L87.911993,36.8950247 L88.4758589,36.3686037 L88.5886634,36.2557992 L88.8520305,36.0301902 L88.9270769,35.992432 L89.1902874,35.766823 L89.4158964,35.616417 L89.4534979,35.616417 L89.566459,35.5036125 L89.6040605,35.5036125 L89.792068,35.3530499 L90.1679264,35.089996 L91.6345415,34.2626064 L91.7847908,34.1496452 L91.8599938,34.1120437 L91.9351968,34.0747556 L92.0103998,34.0369974 L92.6121805,33.5480212 L92.9504373,33.2849674 L93.0256403,33.2096077 L93.0632418,33.2096077 L93.1760463,33.1344047 L93.2136478,33.0968032 L93.326609,32.983842 L93.4392568,32.9462405 L93.4768583,32.908639 L93.5144598,32.8710375 L93.6650225,32.7959912 L93.8904748,32.68303 L93.9280763,32.68303 L94.0032793,32.6079837 L94.1535287,32.5702255 L94.4168958,32.457421 L94.6801063,32.3446165 L94.7177078,32.3446165 L94.7553093,32.3446165 L94.905872,32.2694135 L95.0185198,32.231812 L95.6955035,32.0060464 L95.733105,31.9686015 L95.8081513,31.9686015 L96.2217678,31.855797 L96.2593693,31.855797 L96.3345723,31.8180389 L96.4473768,31.7804374 L97.0490008,31.6677896 L97.3874143,31.5922732 L97.4626173,31.5922732 L97.5754218,31.5549851 L97.61318,31.5549851 L97.6506248,31.5549851 L97.8386323,31.5172269 L97.9514368,31.4797821 L98.0267965,31.4797821 L98.6282638,31.4042657 L98.8914743,31.3668209 L99.0794818,31.3292194 L99.1546848,31.3292194 L99.2298878,31.3292194 L99.2674893,31.3292194 L99.3052475,31.3292194 L99.7563088,31.3292194 L99.7937536,31.3292194 L99.8691133,31.3292194 L100.132324,31.3668209 L100.245128,31.3668209 L100.470737,31.3668209 L100.546097,31.4042657 L100.658745,31.4421806 L100.658745,31.4797821 L100.921955,31.5922732 L101.260369,31.6677896 L101.448376,31.7428359 L101.598782,31.7804374 L101.749188,31.855797 L101.861993,31.8933985 L102.12536,32.0439612 L102.162805,32.0812494 L102.162805,32.307015 L102.12536,32.3446165 L102.087602,32.5324674 L102.238008,32.758233 L102.350812,32.983842 L102.388414,32.9462405 L102.463617,32.7207882 L102.501218,32.5702255 L102.501218,32.5324674 L102.53882,32.5324674 L102.726671,32.1190075 L102.877233,31.7804374 L102.952436,31.7052344 L103.441256,30.9530477 L103.817114,30.3888685 L103.854716,30.351267 L104.230887,29.8626042 L104.268489,29.7872445 L104.268489,29.7497997 L104.606746,29.4112295 L105.020519,28.9224101 L105.208526,28.7342459 L105.246128,28.6968011 L105.697346,28.2831846 L106.22361,27.8318099 L107.426858,26.4778425 L108.254091,25.7632574 L108.743067,25.2744379 L108.705466,25.1992349 L108.630263,25.1240319 L108.366896,25.0110707 L108.291849,25.0488289 L107.991037,25.4622887 L107.765585,25.7258126 L107.126203,26.4026395 L106.712586,26.8916157 L106.22361,27.4932397 L105.697346,27.9446144 L105.546783,28.0950204 L105.057964,28.5462384 L105.020519,28.5839966 L104.870113,28.7718474 L104.832511,28.8472071 L104.569301,29.148019 L104.456496,29.2230654 L104.418895,29.2608235 L104.268489,29.4112295 L104.193129,29.448831 L104.04288,29.448831 L103.96752,29.4112295 L103.854716,29.3360265 L103.854716,29.148019 L103.892474,28.8848086 L104.005278,28.7342459 L104.04288,28.6591996 L104.118083,28.6591996 L104.30609,28.5462384 L104.343692,28.4711921 L104.456496,28.3958324 L104.494098,28.3958324 L104.719707,28.3958324 L104.907714,28.2078249 L105.095565,27.9820592 L105.208526,27.7564502 L105.246128,27.6812472 L105.546783,27.3428337 L105.622143,27.2676307 L105.659744,27.041865 L105.622143,26.9292172 L105.433979,26.816256 L105.358932,26.7034515 L105.358932,26.5532022 L105.396534,26.440241 L105.433979,26.4026395 L105.433979,26.365038 L105.433979,26.2522336 L105.396534,26.1770306 L105.057964,26.0266246 L104.606746,25.8384604 L104.456496,25.8008589 L104.456496,25.8384604 L104.494098,25.9514216 L104.644504,26.0642261 L104.907714,26.5532022 L104.982917,26.7034515 L104.907714,26.816256 L104.04288,26.7788112 L104.005278,26.741053 L103.930075,26.5532022 L103.892474,26.5532022 L103.817114,26.4778425 L103.779669,26.440241 L103.742068,26.440241 L103.666865,26.365038 L103.55406,25.8762186 L103.55406,25.6130081 L103.478857,25.4622887 L103.140444,25.1616334 L103.065241,25.1992349 L102.990038,25.2744379 L102.914835,25.5752499 L102.80203,25.8384604 L102.764429,26.1394291 L102.726671,26.2144754 L102.651624,26.2898351 L102.162805,26.4026395 L101.786633,26.440241 L101.523579,26.5532022 L101.485978,26.5532022 L100.997315,26.515444 L100.809151,26.2522336 L100.771549,26.1394291 L100.733948,26.0642261 L100.733948,25.9514216 L100.733948,25.7632574 L100.809151,25.6130081 L100.921955,25.5376484 L101.034603,25.4622887 L101.147564,25.4622887 L101.335572,25.3494842 L101.410775,25.2368364 L101.410775,25.0862737 L101.485978,24.9361811 L101.636384,24.9361811 L101.749188,24.8608214 L101.824391,24.6726572 L101.861993,24.5598527 L102.012399,24.4470482 L102.12536,24.1462362 L102.12536,24.0334317 L102.087602,23.7700645 L102.12536,23.6948615 L102.12536,23.6196586 L102.313211,23.3188466 L102.53882,23.0933942 L102.576421,23.0554794 L102.651624,23.0180346 L102.689226,22.8674719 L102.726671,22.6794644 L102.80203,22.5666599 L102.877233,22.5292151 L102.990038,22.2282464 L102.990038,21.9651926 L102.914835,21.7016687 L102.764429,21.4008567 L102.53882,21.2504507 L101.899594,21.1752477 L101.824391,21.1376462 L101.37333,21.1000447 L101.185166,21.0624432 L101.147564,21.024685 L100.959557,20.9118806 L100.846752,20.5734671 L100.959557,20.4230611 L101.147564,20.2726551 L101.485978,20.2350536 L101.899594,20.1974521 L102.238008,20.1598506 L102.53882,20.3102566 L102.726671,20.4606626 L102.877233,20.4606626 L103.027483,20.3102566 L103.102842,20.2726551 L103.178045,20.2726551 L103.366209,20.3478581 L103.403498,20.6110686 L103.478857,20.6110686 L103.55406,20.6486701 L103.704623,20.7240297 L103.742068,20.7990761 L103.854716,20.7990761 L104.005278,20.6862716 L104.080481,20.6486701 L104.155684,20.6862716 L104.30609,20.7990761 L104.494098,20.8368342 L104.606746,20.7990761 L104.682105,20.6862716 L104.79491,20.6486701 L105.095565,20.6486701 L105.396534,20.7990761 L105.622143,20.8368342 L105.697346,20.8368342 L105.772549,20.7240297 L105.81015,20.7240297 L105.998001,20.7240297 L106.374173,20.9118806 L106.712586,20.9118806 L106.862992,20.9870835 L106.900594,21.024685 L107.126203,21.0624432 L107.201406,21.024685 L107.201406,20.8744357 L107.351812,20.6862716 L107.46446,20.6486701 L107.840631,20.4984207 L108.141443,20.3102566 L108.291849,20.1222491 L108.254091,19.9716864 L108.216646,19.8966401 L108.216646,19.7838356 L108.254091,19.7084759 L108.366896,19.5956714 L108.55506,19.6332729 L108.705466,19.7084759 L108.780669,19.6710311 L108.855872,19.5582266 L108.893473,19.4830236 L108.855872,19.3324609 L108.893473,19.1820549 L109.043723,18.9940474 L109.081481,18.8060399 L109.081481,18.7306802 L109.081481,18.6178757 L109.156527,18.4674697 L109.494941,18.3170637 L109.494941,18.2793056 L109.457339,18.1666577 L109.457339,18.0538532 L109.5703,17.7906427 L109.645503,17.7152831 L109.683105,17.6776816 L110.058963,17.6024786 L110.171924,17.4520726 L110.171924,17.3392681 L110.171924,17.2640651 L110.32233,17.0384561 L110.660744,16.8504486 L110.773548,16.8128471 L110.886353,16.9256516 L111.074204,17.0384561 L111.600625,16.9632531 L111.901593,16.8878934 L111.863835,16.6622844 L111.97664,16.5494799 L112.014398,16.5118784 L112.051999,16.4744336 L112.089601,16.4366754 L112.202405,16.3990739 L112.240007,16.3616291 L112.465616,16.1358634 L112.465616,16.0606604 L112.352811,15.9102544 L112.315053,15.7974499 L112.277452,15.6468872 L112.277452,15.3836767 L112.616022,15.0452632 L112.653467,14.9700602 L112.616022,14.8196542 L112.57842,14.7444512 L112.540662,14.7066931 L112.465616,14.3682796 L112.465616,14.2930766 L112.465616,14.2554751 L112.315053,13.8794601 L112.277452,13.8418586 L112.240007,13.8041004 L112.277452,13.6912959 L112.352811,13.5034451 L112.390413,13.1648749 L112.390413,12.9768674 L112.277452,12.7136569 L112.089601,12.5254927 L112.014398,12.2245241 L112.051999,12.1118762 L111.788789,11.7358612 L111.675984,11.4726507 L111.600625,11.3220881 L111.600625,11.2092836 L111.375172,11.0588776 L111.299813,10.9084716 L111.262368,10.8331119 L110.698189,10.5699014 L110.585541,10.5699014 L110.510338,10.5699014 L110.32233,10.5699014 L110.058963,10.5699014 L109.5703,10.7956671 L109.457339,10.8708701 L109.457339,10.9459164 L109.494941,10.9836746 L109.5703,11.0212761 L109.720706,11.1716821 L109.720706,11.3220881 L109.683105,11.3598462 L109.645503,11.3972911 L109.457339,11.5100956 L109.30709,11.8110642 L109.231887,11.8485091 L109.081481,11.8861106 L108.818114,11.8110642 L108.743067,11.7733061 L108.667708,11.6229001 L108.517458,11.3220881 L108.592661,10.9459164 L108.592661,10.9084716 L108.442255,10.7204641 L107.953436,10.3818939 L107.690225,10.4570969 L107.539819,10.4196521 L106.637227,10.4196521 L106.486977,10.4196521 L105.998001,10.5324566 L105.246128,10.7956671 L104.644504,11.2092836 L104.569301,11.2468851 L104.381293,11.2844866 L104.080481,11.3220881 L104.04288,11.2844866 L103.817114,10.9836746 L103.817114,10.8708701 L103.704623,10.7204641 L103.591662,10.6452611 L102.80203,10.9084716 L102.613866,11.0588776 L102.313211,11.1716821 L102.200406,11.2468851 L102.087602,11.2844866 L101.937039,11.3598462 L101.561181,11.3598462 L101.410775,11.3972911 L101.185166,11.3972911 L100.959557,11.4348926 L100.88451,11.4726507 L100.245128,11.5100956 L100.132324,11.5478537 L100.057121,11.5478537 L99.7937536,11.3972911 L99.7937536,11.3598462 L99.7187073,11.2844866 L99.6811058,11.0588776 L99.7563088,10.9084716 L99.8691133,10.7580656 L99.9443163,10.6075029 L99.9067148,10.4946984 L99.8691133,10.3442924 L100.057121,10.1938864 L100.094722,10.1562849 L100.28273,9.93051922 L100.546097,9.8554729 L100.771549,9.89291773 L100.921955,9.93051922 L101.034603,10.1186834 L101.109963,10.2314879 L101.222924,10.3442924 L101.298127,10.3818939 L101.448376,10.3068476 L101.636384,10.3068476 L102.087602,10.3442924 L102.388414,10.1562849 L102.80203,10.0434804 L102.80203,9.9682774 L102.877233,9.81771473 L102.990038,9.7426684 L103.29085,9.44169973 L103.366209,9.25369223 L103.403498,9.21609073 L103.403498,9.17848923 L103.441256,9.14073106 L104.118083,9.02808323 L104.343692,8.99048173 L104.418895,9.02808323 L104.531699,9.02808323 L104.757152,8.87752056 L104.832511,8.76471606 L104.982917,8.68951306 L105.283729,8.68951306 L105.622143,8.76471606 L105.922955,8.80231756 L106.22361,8.61446673 L106.22361,8.53910706 L106.22361,8.46406074 L106.29897,8.38885774 L106.374173,8.35125624 L107.201406,8.20069356 L107.502218,8.12549056 L107.765585,8.05028757 L107.840631,7.97508457 L107.915678,7.89988157 L107.915678,7.82467857 L107.840631,7.63651439 L107.840631,7.56146807 L107.840631,7.5237099 L107.991037,7.37346057 L108.06624,7.37346057 L108.254091,7.2604994 L108.404654,7.2604994 L108.442255,7.2981009 L108.743067,7.4109054 L109.457339,7.59906957 L109.645503,7.63651439 L109.720706,7.59906957 L109.908714,7.59906957 L110.134323,7.67427257 L110.284572,7.71187407 L110.359775,7.74931889 L110.397377,7.78707707 L110.435135,7.93748307 L110.397377,8.16309206 L110.660744,8.57670856 L110.848751,8.72727123 L111.299813,9.02808323 L111.375172,9.02808323 L111.412774,8.91512206 L111.412774,8.87752056 L111.299813,8.38885774 L111.111962,8.01268607 L110.999001,7.86212339 L110.961556,7.67427257 L110.81115,7.4861084 L110.773548,7.4109054 L110.73579,7.37346057 L110.73579,7.1476949 L110.73579,7.1100934 L110.73579,7.0724919 L110.73579,6.9972889 L110.73579,6.9596874 L110.623142,6.73392173 L110.472736,6.6588754 L110.397377,6.4332664 L110.359775,6.16974256 L110.397377,5.94413356 L110.435135,5.71852456 L110.359775,5.68107974 L110.246971,5.68107974 L110.134323,5.68107974 L110.058963,5.53051706 L110.021518,5.38011106 L109.946315,5.11690057 L109.683105,4.59047957 L109.645503,4.59047957 L109.5703,4.4399169 L109.5703,4.36487057 L109.5703,4.3271124 L109.607745,4.2143079 L109.645503,4.1015034 L109.645503,4.0263004 L109.532699,3.42451973 L109.457339,3.38691823 L109.419894,3.42451973 L109.382293,3.49972273 L109.30709,3.53732423 L109.156527,3.5750824 L109.043723,3.5750824 L108.818114,3.31171523 L108.667708,3.27411373 L108.479857,3.19891073 L108.366896,3.12370773 L108.291849,2.93570024 L108.103842,2.55968524 L108.141443,2.37152107 L108.216646,2.29631807 L108.254091,2.22111507 L108.366896,2.22111507 L108.479857,2.18351357 L108.855872,2.37152107 L109.043723,2.33407624 L109.344691,2.40912257 L109.457339,2.52192707 L109.494941,2.52192707 L109.607745,2.48432557 L109.645503,2.44672407 L109.720706,2.48432557 L109.795909,2.52192707 L109.833354,2.52192707 L109.946315,2.86034056 L109.983917,3.16130923 L110.096721,3.27411373 L110.284572,3.34947341 L110.472736,3.5750824 L110.472736,3.6126839 L110.472736,4.0639019 L110.472736,4.1391049 L110.547939,4.25206607 L110.585541,4.2895109 L110.698189,4.4023154 L110.773548,4.66568257 L110.773548,4.7783304 L110.660744,4.96649457 L110.623142,5.30506474 L110.698189,5.49291556 L110.773548,5.53051706 L110.886353,5.53051706 L110.999001,5.64347824 L111.111962,6.05709473 L111.074204,6.24510223 L111.074204,6.28270373 L111.187008,6.4332664 L111.262368,6.50831273 L111.299813,6.5460709 L111.337571,6.5460709 L111.450375,6.73392173 L111.56318,6.9596874 L111.82639,7.71187407 L111.901593,7.89988157 L111.939038,8.05028757 L111.939038,8.08788906 L111.939038,8.23829506 L112.014398,8.68951306 L112.089601,8.95288023 L112.089601,9.06568473 L112.089601,9.10328623 L112.089601,9.17848923 L112.089601,9.25369223 L112.089601,9.4042549 L112.127202,9.47930123 L112.127202,9.51690273 L112.202405,9.51690273 L112.277452,9.51690273 L112.352811,9.55450423 L112.352811,9.6298639 L112.277452,9.81771473 L112.277452,9.9682774 L112.352811,10.0810819 L112.841631,10.1938864 L112.916834,10.2314879 L112.954435,10.2690894 L112.992037,10.3068476 L113.029795,10.3442924 L113.029795,10.3818939 L113.067083,10.4570969 L113.255247,10.6075029 L113.33045,10.6452611 L113.555903,11.0588776 L113.706465,11.2844866 L113.744067,11.4726507 L113.781668,11.5852986 L113.781668,11.6982597 L113.744067,11.7733061 L113.744067,11.8485091 L113.969676,12.1870792 L114.007121,12.2245241 L114.157683,12.5630942 L114.195285,12.6008524 L114.383292,12.8264614 L114.496097,13.0520704 L114.571143,13.2024764 L114.646503,13.2776794 L114.683948,13.3152809 L114.759151,13.4656869 L114.759151,13.5034451 L114.796752,13.5784914 L114.872112,13.5784914 L114.909713,13.4656869 L114.947315,13.4656869 L114.909713,13.4280854 L114.83451,13.3152809 L114.83451,13.2776794 L114.683948,12.9392659 L114.646503,12.9015077 L114.496097,12.5254927 L114.420737,12.2998837 L114.420737,12.2622822 L114.383292,12.2245241 L114.383292,12.1870792 L114.119925,11.6982597 L113.631106,10.6828626 L113.593661,10.6828626 L113.593661,10.6452611 L113.443255,10.3818939 L113.368052,10.1938864 L113.179888,9.7802699 L113.067083,9.59210573 L112.916834,9.32889523 L112.841631,9.25369223 L112.653467,8.91512206 L112.465616,8.53910706 L112.352811,8.31349806 L112.240007,8.05028757 L112.202405,7.97508457 L112.089601,7.74931889 L112.089601,7.71187407 L112.051999,7.67427257 L111.751187,6.8844844 L111.600625,6.50831273 L111.56318,6.47071123 L111.56318,6.4332664 L111.412774,5.98189173 L111.375172,5.86908723 L111.262368,5.53051706 L111.149563,5.22970507 L110.923954,4.47767507 L110.698189,3.53732423 L110.698189,3.46212123 L110.359775,2.22111507 L110.209682,1.4313269 L110.058963,1.4313269 L110.021518,1.4313269 L109.946315,1.4313269 L109.871112,1.4313269 L109.758308,1.4313269 L109.720706,1.4313269 L109.683105,1.4313269 L109.645503,1.4313269 L109.494941,1.4313269 L109.081481,1.4689284 L109.043723,1.4689284 L108.141443,1.4689284 L108.028639,1.4689284 L106.900594,1.50668657 L106.524579,1.54428807 L105.998001,1.54428807 L105.471737,1.54428807 L104.456496,1.5817329 L103.629263,1.61949107 L103.516302,1.61949107 L102.501218,1.61949107 L102.162805,1.65709257 L101.523579,1.65709257 L101.072361,1.65709257 L100.357933,1.6945374 L99.8691133,1.6945374 L99.3052475,1.6945374 L98.966834,1.73229557 L98.8538728,1.73229557 L98.7786698,1.73229557 L98.4402563,1.73229557 L98.1019995,1.73229557 L96.9361963,1.76989707 L96.7105873,1.76989707 L96.6729858,1.76989707 L96.6729858,1.84510007 L96.7105873,1.88270157 L96.6352276,1.88270157 L95.4697378,1.92030307 L94.7177078,1.92030307 L94.5673018,1.92030307 L94.3792943,1.92030307 L94.3418495,1.92030307 L94.3040913,1.92030307 L94.0032793,1.92030307 L93.6650225,1.95806124 L93.4768583,1.92030307 L93.4392568,1.88270157 L93.1760463,1.92030307 L92.9880388,1.95806124 L92.6872268,1.95806124 L92.3488133,1.95806124 L91.7847908,1.95806124 L91.5591818,1.95806124 L90.8071518,1.99550607 L90.2808875,1.99550607 L89.4910994,1.99550607 L89.1902874,1.99550607 L88.1750469,1.99550607 L88.0998439,1.99550607 L88.062399,1.99550607 L87.911993,2.03310757 L87.3102124,2.03310757 L86.9719555,2.03310757 L86.1069644,2.03310757 L85.9565584,2.03310757 L85.7685509,2.03310757 L85.7309494,2.03310757 L84.4150536,2.07070907 L84.3396939,2.07070907 L84.2644909,2.07070907 L84.1892879,2.07070907 L84.0388819,2.07070907 L82.2340099,2.10831057 L82.1212054,2.10831057 L81.3691754,2.10831057 L81.2566843,2.10831057 L81.0683634,2.10831057 L81.0309186,2.10831057 L80.1659274,2.10831057 L79.7147094,2.10831057 L79.5644601,2.10831057 L79.3386944,2.10831057 L78.6996256,2.14591207 L78.5490629,2.14591207 L77.7971896,2.14591207 L77.1203626,2.14591207 L77.0451596,2.14591207 L76.8573088,2.18351357 L76.6691446,2.18351357 L76.5939416,2.18351357 L76.5187386,2.18351357 L76.1803251,2.18351357 L75.9171146,2.18351357 L75.8795131,2.18351357 L75.766552,2.18351357 L75.0522801,2.18351357 L74.9394756,2.18351357 L74.7140233,2.18351357 L74.6762651,2.18351357 L74.3378516,2.18351357 L74.3002501,2.18351357 L74.187289,2.18351357 L74.1122426,2.18351357 L73.284853,2.18351357 L72.9464395,2.18351357 L72.8713931,2.18351357 L72.8339483,2.18351357 L72.7585886,2.18351357 L72.6081826,2.18351357 L72.4577766,2.18351357 L71.8185512,2.18351357 L71.5177392,2.18351357 L71.1042793,2.18351357 L70.9537167,2.18351357 L70.8785137,2.18351357 L70.5777017,2.18351357 L70.3144912,2.18351357 L70.2392882,2.18351357 L70.2016867,2.18351357 L70.126327,2.18351357 L69.1488447,2.18351357 L68.2464087,2.18351357 L68.2088072,2.18351357 L68.0584012,2.18351357 L67.4567772,2.18351357 L67.1937234,2.18351357 L67.1561219,2.18351357 L67.1183637,2.18351357 L67.0431607,2.18351357 L66.6295442,2.22111507 L66.4415367,2.22111507 L65.4262962,2.18351357 L65.162929,2.18351357 L64.8245155,2.18351357 L64.6742662,2.18351357 L64.1854467,2.18351357 L64.1102437,2.18351357 L63.8470332,2.18351357 L63.8094317,2.18351357 L63.4711749,2.18351357 L63.2830107,2.18351357 L63.1702062,2.18351357 L63.1327614,2.18351357 L62.0420045,2.18351357 L61.7415059,2.18351357 L61.2525297,2.18351357 L60.6510624,2.14591207 L60.4252967,2.14591207 L60.3500937,2.14591207 L59.8988757,2.14591207 L59.8614309,2.14591207 L59.7486264,2.14591207 L59.4476577,2.14591207 L59.1468457,2.14591207 L59.0341979,2.14591207 L58.9964397,2.14591207 L58.6957844,2.14591207 L58.4324172,2.14591207 L58.2445664,2.14591207 L58.2068082,2.14591207 L58.1316052,2.14591207 L57.9811993,2.14591207 L57.3795753,2.10831057 L57.1165214,2.10831057 L57.0787633,2.10831057 L56.6275453,2.10831057 L56.2891318,2.10831057 L56.1387258,2.10831057 L55.7251093,2.10831057 L55.6500629,2.10831057 L55.3866958,2.10831057 L54.7850718,2.07070907 L54.7476269,2.07070907 L54.6348224,2.07070907 L54.5970643,2.07070907 L54.4842598,2.07070907 L54.0708,2.07070907 L54.0330418,2.07070907 L53.168364,2.07070907 L52.8299505,2.03310757 L52.641943,2.03310757 L52.491537,1.99550607 L52.0779205,1.99550607 L52.040319,1.95806124 L51.4010935,1.92030307 L51.288289,1.92030307 L50.7617113,1.88270157 L50.385853,1.84510007 L50.009838,1.84510007 L49.7464708,1.8073419 L49.7088693,1.8073419 L49.4458155,1.8073419 L49.0698005,1.76989707 L48.9193945,1.76989707 L48.80659,1.76989707 L48.5433795,1.73229557 L48.430575,1.73229557 L48.3177705,1.73229557 L48.0169585,1.6945374 L47.9415988,1.6945374 L47.9039973,1.6945374 L47.5657405,1.65709257 L47.3775763,1.6945374 L47.001718,1.6945374 L46.7385075,1.6945374 L46.6631478,1.6945374 L46.625703,1.6945374 L46.5879448,1.6945374 L46.3623358,1.6945374 L46.174485,1.6945374 L45.3848535,1.65709257 L45.3470953,1.65709257 L44.820831,1.61949107 L44.7832295,1.61949107 L44.369613,1.5817329 L44.29441,1.5817329 L44.0311995,1.5817329 L43.9559965,1.5817329 L43.3166144,1.50668657 L43.2791695,1.50668657 L43.2039665,1.50668657 L43.015959,1.50668657 L42.7527485,1.50668657 L42.6775455,1.4689284 L42.489538,1.4689284 L42.339132,1.4689284 L42.263929,1.4689284 L42.188726,1.4689284 L42.1511245,1.4313269 L42.113523,1.4313269 L41.887914,1.4313269 L41.812711,1.39388207 L41.4742975,1.39388207 L41.2861334,1.39388207 L40.8726735,1.3561239 L40.759869,1.3561239 L40.7222675,1.3561239 L40.609463,1.3561239 L40.1206435,1.3185224 L39.932636,1.3185224 L39.5566211,1.3185224 L39.2556524,1.3185224 L38.3911312,1.2433194 L38.3533731,1.2433194 L38.2029671,1.2057179 L37.9773581,1.1681164 L37.7893506,1.2057179 L37.7141476,1.2057179 L37.6765461,1.1681164 L37.3758907,1.1681164 L37.2253281,1.13035823 L36.3606502,1.0553119 L35.3828546,0.980108904 Z M112.427858,11.0964791 L112.315053,11.1716821 L112.315053,11.2092836 L112.390413,11.3220881 L112.653467,11.4726507 L112.728826,11.5478537 L112.728826,11.5852986 L112.728826,11.6982597 L112.954435,11.9989151 L113.067083,11.9989151 L113.179888,12.1870792 L113.217489,12.2998837 L113.255247,12.4502897 L113.255247,12.5630942 L113.255247,12.6008524 L113.255247,12.6382972 L113.255247,12.6758987 L113.255247,12.7136569 L113.067083,12.8264614 L113.142443,12.9392659 L113.518301,13.0144689 L113.744067,13.1648749 L113.781668,13.1648749 L113.856871,13.0520704 L113.819113,12.8639062 L113.819113,12.8264614 L113.781668,12.6758987 L113.781668,12.5630942 L113.781668,12.5254927 L113.819113,12.4126882 L113.631106,11.9614702 L113.518301,11.7733061 L113.4807,11.7358612 L113.443255,11.6982597 L113.405653,11.6229001 L113.368052,11.5852986 L113.292849,11.6229001 L113.179888,11.6229001 L113.179888,11.4726507 L113.217489,11.3972911 L113.179888,11.3972911 L113.029795,11.2844866 L112.992037,11.2468851 L112.841631,11.2092836 L112.804029,11.1340806 L112.616022,11.0964791 L112.427858,11.0964791 Z M114.947315,13.6912959 L114.984916,13.8041004 L115.022518,13.9169049 L115.060119,13.9922646 L115.097564,14.1426706 L115.172924,14.2930766 L115.172924,14.3682796 L115.210525,14.4810841 L115.210525,14.6692482 L115.285728,14.9700602 L115.32333,15.1580677 L115.398533,15.2708722 L115.436134,15.3836767 L115.473579,15.3836767 L115.511181,15.4964812 L115.586384,15.6468872 L115.699188,16.0606604 L115.736946,16.4366754 L115.774548,17.1888621 L115.736946,17.4146277 L115.661587,17.6024786 L115.661587,17.9032906 L115.661587,18.0538532 L115.699188,18.2418607 L115.624142,18.7684384 L115.548939,19.2196564 L115.511181,19.8214371 L115.436134,20.2350536 L115.360775,20.6486701 L115.32333,20.9496387 L115.24797,21.4008567 L115.210525,21.5888642 L115.172924,21.6640672 L115.060119,21.7016687 L114.872112,21.7770284 L114.571143,21.8144732 L114.533698,21.7770284 L114.420737,21.7770284 L114.383292,21.7394269 L114.383292,21.7770284 L114.383292,21.8898329 L114.345534,21.9651926 L114.157683,22.0778404 L114.119925,22.1154419 L113.969676,22.2658479 L113.894316,22.3034494 L113.819113,22.3412076 L113.518301,22.4538554 L113.368052,22.4538554 L113.292849,22.3786524 L113.255247,22.3786524 L113.217489,22.4164106 L113.142443,22.5292151 L113.067083,22.5666599 L112.954435,22.6794644 L112.841631,22.7548241 L112.616022,22.8300271 L112.465616,22.8674719 L112.352811,22.9426749 L111.939038,23.0180346 L111.863835,23.1308391 L111.751187,23.2061987 L111.600625,23.2812451 L111.525422,23.3188466 L111.262368,23.3940496 L110.547939,23.7700645 L110.359775,23.9206272 L110.171924,24.0334317 L109.758308,24.2966422 L109.607745,24.3342437 L109.532699,24.2590407 L109.494941,24.2966422 L109.419894,24.2966422 L109.382293,24.2966422 L109.382293,24.3342437 L109.344691,24.3718452 L109.30709,24.3718452 L109.30709,24.4848064 L109.344691,24.5974542 L109.30709,24.7480169 L109.194285,24.8608214 L109.043723,25.1240319 L109.006434,25.1992349 L109.043723,25.2368364 L109.118926,25.1992349 L109.118926,25.1616334 L109.194285,25.1616334 L109.419894,24.8982662 L109.683105,24.7480169 L109.908714,24.5222512 L110.32233,24.2590407 L111.262368,23.732463 L111.901593,23.3940496 L112.164804,23.2434869 L112.240007,23.2434869 L112.315053,23.2061987 L112.427858,23.1684406 L112.691225,23.0554794 L113.443255,22.7548241 L113.894316,22.5666599 L114.232886,22.4164106 L114.608901,22.3412076 L114.872112,22.3412076 L115.097564,22.3786524 L115.210525,22.4164106 L115.24797,22.4164106 L115.32333,22.2658479 L115.360775,22.1528867 L115.360775,22.1154419 L115.398533,21.9651926 L115.398533,21.8522314 L115.436134,21.7770284 L115.436134,21.7394269 L115.436134,21.7016687 L115.586384,20.9118806 L115.736946,19.7460774 L115.774548,19.6710311 L115.774548,19.5204684 L115.924797,18.3546652 L115.962555,17.4146277 L115.962555,17.2264636 L115.962555,17.1512606 L116,16.8504486 L116,16.4744336 L115.887196,16.0230589 L115.774548,15.4590364 L115.699188,15.1580677 L115.436134,14.3682796 L115.360775,14.1802721 L115.360775,14.1426706 L115.32333,14.1050691 L115.060119,13.6538511 L114.984916,13.6162496 L114.947315,13.6912959 Z" id="Page-1" stroke="#4FBFB2"></path>
                <polygon id="Star" fill="#FFFFFF" points="81.5 15.1294364 78.7188471 16.5981811 79.25 13.48733 77 11.2842129 80.1094235 10.8303459 81.5 8 82.8905765 10.8303459 86 11.2842129 83.75 13.48733 84.2811529 16.5981811"></polygon>
            </g>
        </g>
    </g>
</svg>