<?xml version="1.0" encoding="UTF-8" standalone="no"?>
<svg width="48px" height="76px" viewBox="0 0 48 76" version="1.1" xmlns="http://www.w3.org/2000/svg" xmlns:xlink="http://www.w3.org/1999/xlink">
    <!-- Generator: Sketch 40.1 (33804) - http://www.bohemiancoding.com/sketch -->
    <title>Group 13</title>
    <desc>Created with Sketch.</desc>
    <defs></defs>
    <g id="Page-1" stroke="none" stroke-width="1" fill="none" fill-rule="evenodd">
        <g id="Step-6---All-Filled" transform="translate(-781.000000, -649.000000)">
            <g id="Group-13" transform="translate(782.000000, 650.000000)">
                <g id="SF,-Cali" stroke="#4FBFB2" stroke-linecap="round">
                    <path d="M7.15075684,43.760498 C7.15075684,44.2895508 7.47911346,45.0326565 7.55209423,45.3734918 C7.59278654,45.5611035 8.04040192,46.20708 8.17176731,46.3572565 C8.481825,46.7111506 8.93740192,48.4038956 9.23772885,48.765625 C9.40226731,48.9658603 9.93170962,49.9597506 10.2236327,50.5082212 C10.4925558,51.0127271 9.77601731,51.3622682 9.68844038,51.7666565 C9.64730577,51.9555741 9.85076731,52.1919388 9.82334423,52.3821624 C9.798575,52.5645506 9.69817115,53.2462212 9.65526731,53.3863859 C9.54424808,53.7633506 9.78309423,54.4859388 9.83617115,54.5960682 C9.90163269,54.7275271 9.86315192,55.1175506 9.97461346,55.2111388 C10.1621519,55.3691506 11.5664788,55.3735035 11.9136904,55.4714447 C12.4457865,55.6203153 12.7461135,56.0325388 13.2136327,56.2601976 C13.766075,56.5292094 14.6882865,56.4817624 15.100075,56.7246565 C15.5361904,56.9827859 15.7064788,57.6165741 16.1103058,57.8960329 C16.1894788,57.95088 16.3332288,57.8890682 16.3933827,57.9648094 C16.6760173,58.3152212 16.2540558,58.6730329 16.9767865,59.2611153 C17.1948442,59.43828 18.4213635,60.3367271 18.6221712,60.3419506 C19.0056519,60.3515271 19.7916327,60.2653388 20.1972288,60.4786329 C20.3086904,60.5373976 20.7341904,61.7980094 20.7439212,61.9864918 C20.7576327,62.2668212 21.0159404,62.9867976 21.1105942,62.9924565 C21.1269596,62.9946329 21.4215365,62.3625859 22.143825,62.8810212 C22.4759981,63.1199976 22.6104596,63.6806565 22.8997288,63.9718682 C23.0434788,64.1176918 23.2761327,64.1773271 23.4251904,64.3187976 C23.6980942,64.5817153 23.7980558,64.9617271 24.018325,65.25468 C24.9091327,66.4434682 25.3310942,66.5361859 25.6951135,68.1459035 C25.7871135,68.5546447 25.9852673,69.3864918 25.8397481,69.7817388 C25.7946327,69.9031859 25.6132865,69.9436682 25.5730365,70.0668565 C25.5292481,70.1970094 25.6871519,70.4081271 25.6694596,70.54568 C25.6588442,70.6388329 25.3116327,71.1559624 25.524825,71.2016682 C25.5889596,71.2160329 25.7512865,70.7924918 25.8163058,70.8051153 C25.9268827,70.8290565 26.4536712,71.6273859 26.2316327,71.6961624 C26.0785942,71.7436094 25.7437673,70.7868329 25.7437673,71.1346329 L25.9879212,71.4140918 C26.048075,71.5407624 26.0418827,71.7727741 26.0622288,71.9116329 C26.0790365,72.0261153 26.0869981,72.1323271 26.0918635,72.2385388 C29.521075,72.6673035 32.9343635,73.0555859 36.3511904,73.4077388 C36.8134019,73.4547506 40.0909019,73.6828447 40.2527865,73.8008094 C40.2894981,73.8277976 40.3076327,73.8600094 40.3204596,73.8943976 L40.4443058,73.8199624 C40.8919212,73.4739035 41.0732673,73.9666565 41.5429981,73.90528" id="Stroke-1"></path>
                    <path d="M41.5431308,73.9054106 C41.80365,73.8718929 41.5674577,73.58634 41.6245154,73.4644576 C41.7054577,73.2959988 42.1022077,73.2781518 42.1959769,73.11274 C42.1902269,72.9599518 42.1796115,72.6552459 42.1796115,72.6543753 C42.2371115,71.6431871 40.9858231,72.1637988 40.99865,71.4172694 C41.0017462,71.1365047 41.3626692,70.8535635 41.3582462,70.5706224 C41.3538231,70.3181518 41.0972846,70.1518694 41.0729577,69.9494576 C41.0579192,69.8280106 41.3423231,69.6691282 41.3498423,69.5437635 C41.2848231,69.3574576 41.3423231,69.3095753 41.3984962,69.2878106 C41.3993808,69.2878106 41.7992269,69.2856341 41.7996692,69.2856341 C41.9668615,69.1994459 42.0880538,68.8159518 42.2141115,68.6770929 C42.3109769,68.5700106 42.4808231,68.5116812 42.5675154,68.3976341 C42.7103808,68.2074106 42.6922462,67.84394 42.8068038,67.6428341 C42.8068038,67.6428341 43.0407846,67.4573988 43.0407846,67.4565282 C43.1549,67.1526929 42.8470538,66.7530929 43.0314962,66.4287988 C43.0328231,66.4287988 43.2663615,66.2424929 43.2663615,66.2424929 C43.2663615,66.2416224 43.1345538,65.8768459 43.1354385,65.8768459 C43.1960346,65.7040341 43.6834577,65.5664812 43.8143808,65.4280576 C43.9395538,65.2957282 43.9660923,65.0236694 44.1085154,64.9096224 C44.4057462,64.6710812 45.6937462,64.5444106 45.8463423,64.0755988 C45.9029577,63.9010459 44.9803038,62.7248812 44.8224,62.6386929 C44.7657846,62.6086576 44.6742269,62.6530576 44.6313231,62.60474 C44.6844,62.3117871 44.5225154,61.3389047 44.4760731,61.1303988 C44.4008808,60.8004459 43.8643615,60.3607988 43.9169962,60.0769871 C43.9581308,59.8562929 43.7440538,59.7822929 43.7144192,59.5829282 C43.6821308,59.3604929 43.8382654,58.9186694 43.8382654,58.9186694 C37.7065538,51.2100459 31.8583615,43.2868224 26.3193423,35.1572694 C24.8491115,33.0003871 23.4014385,30.8295753 21.9754385,28.6430929 C21.6737846,28.1808106 20.3030731,26.3473518 20.2393808,25.9573282 C20.1672846,25.5141988 20.5675731,24.6853988 20.6825731,24.2435753 C21.0266885,22.9093988 21.3712462,21.5752224 21.7162462,20.2401753 C22.9325923,15.5311635 24.1498231,10.8204106 25.3666115,6.10965765 C18.3626692,4.35629294 11.4069385,2.42532824 4.50428462,0.317634118 C4.63520769,0.925304706 3.72007308,1.53036353 3.72715,1.63135176 C3.73555385,1.74104588 4.09913077,1.89949294 4.15574615,2.00091647 C4.30347692,2.26601059 4.1469,4.06986941 4.05268846,4.35455176 C3.85807308,4.94176353 3.29280385,5.40970471 3.00574615,5.94294 C2.79786154,6.32774 3.01813077,6.70644588 2.83059231,7.08166941 C2.7094,7.32674 2.11051538,7.91177529 2.12688077,7.99926941 C2.13970769,8.06238706 2.69126538,7.73722235 2.64924615,8.09851647 C2.63288077,8.23606941 1.98622692,8.16816353 1.84645769,8.45066941 C1.85707308,8.61216353 1.88449615,8.65917529 1.86282308,8.69399882 C1.79559231,8.80064588 1.48641923,8.71141059 1.52445769,8.58996353 C1.60318846,8.34445765 1.71907308,8.56166941 1.79647692,8.31485765 C1.42980385,8.57255176 1.39884231,8.74884588 1.21882308,8.97302235 C0.941053846,9.32038706 0.418688462,9.66209294 0.298823077,10.1204576 C0.230707692,10.3794576 0.423996154,10.7172459 0.395688462,10.9853871 C0.379323077,11.1433988 0.199746154,11.3719282 0.223188462,11.5277635 C0.296169231,12.01834 1.04809231,12.4153282 1.19007308,12.8950224 C1.23076538,13.03214 1.10824615,13.2149635 1.13832308,13.3555635 C1.17636154,13.5253282 1.46607308,13.6798576 1.54834231,13.8369988 C1.69430385,14.1116694 1.91855385,14.7123753 1.9274,15.0209988 C1.93226538,15.1655165 1.79426538,15.3122106 1.79293846,15.4549871 C1.78763077,15.8397871 1.90572692,16.5088341 1.81770769,16.8892812 C1.75136154,17.1752694 1.17945769,17.6405988 1.06932308,18.0898224 C0.902130769,18.7701871 1.25199615,19.4113753 1.14141923,20.0699753 C1.04278462,20.6537047 0.686726923,20.7198694 0.714592308,21.0702812 C0.762803846,21.6657635 1.35726538,22.2899753 1.61999615,22.7618341 C1.82699615,23.13314 1.73013077,23.6620224 1.98799615,24.0550929 C2.22153462,24.4102929 2.75009231,24.6571047 2.92922692,25.0401635 C3.05572692,25.3100459 2.88455385,25.5585988 2.93232308,25.8254341 C3.0084,26.2507165 3.47768846,26.3969753 3.49847692,26.8818929 C2.95753462,27.2405753 2.90313077,27.6327753 2.76115,28.0658929 C2.83943846,28.2857165 2.94072692,28.1903871 2.96947692,28.1037635 C2.99778462,28.0167047 3.03936154,27.9026576 3.13180385,27.9078812 C3.54713077,28.2857165 3.70591923,28.7183988 3.86515,29.1132106 C3.90849615,29.2211635 4.20086154,29.3469635 4.24951538,29.3478341 C4.36893846,29.34914 4.47818846,29.40834 4.59009231,29.4488224 C4.91165,29.5641753 5.50434231,29.5776694 5.53486154,29.1236576 C5.27876538,28.6457047 5.57820769,28.1351047 5.98203462,28.1359753 C6.2284,28.1364106 6.44911154,28.2918106 6.60834231,28.4768106 C6.86311154,28.7728106 7.62867909,29.4916446 7.83789063,29.8181152" id="Stroke-3"></path>
                </g>
                <polygon id="Star" fill="#FFFFFF" points="6.5 39.1294364 3.71884705 40.5981811 4.25 37.48733 2 35.2842129 5.10942353 34.8303459 6.5 32 7.89057647 34.8303459 11 35.2842129 8.75 37.48733 9.28115295 40.5981811"></polygon>
            </g>
        </g>
    </g>
</svg>