<?xml version="1.0" encoding="UTF-8" standalone="no"?>
<svg width="88px" height="65px" viewBox="0 0 88 65" version="1.1" xmlns="http://www.w3.org/2000/svg" xmlns:xlink="http://www.w3.org/1999/xlink">
    <!-- Generator: Sketch 40.1 (33804) - http://www.bohemiancoding.com/sketch -->
    <title>Group 4</title>
    <desc>Created with Sketch.</desc>
    <defs></defs>
    <g id="Page-1" stroke="none" stroke-width="1" fill="none" fill-rule="evenodd">
        <g id="Step-6---All-Filled" transform="translate(-1077.000000, -409.000000)">
            <g id="Group-4" transform="translate(1077.000000, 409.000000)">
                <g id="Seattle,-WA" stroke="#4FBFB2">
                    <path d="M23.4265429,18.8785161 C23.6329238,17.7347258 22.4417088,18.3676129 23.4265429,16 C24.411377,13.6323871 21.2244476,13.9888387 21.0432095,13.8892419 C20.2166381,13.4436774 20.6063524,14.9093226 20.2040667,14.7908548 C19.9474,14.715371 20.1935905,13.7875484 20.1611143,13.6323871 C20.0919714,13.2969032 19.1554,12.5881935 19.163781,12.4760161 C19.1815905,12.2170645 20.0940667,12.180371 19.8468286,12.1069839 C19.4183524,11.980129 18.5865429,12.7223871 18.1266381,12.7423065 C17.3891143,12.7748065 12.4558762,10.452629 11.3611143,9.90746774 C10.3166381,9.38641935 9.87454286,8.70077419 9.03330476,7.969 C8.32301905,7.35045161 7.33406667,7.0181129 6.65730476,6.36287097 C5.86320952,5.59859677 5.50073333,4.09520968 4.20901905,3.93585484 C3.30073333,3.82472581 4.22787619,4.7756129 4.20273333,5.01464516 C4.09797143,6.04101613 2.62606667,6.9698871 2.72454286,7.85891935 C2.82511429,8.749 2.18397143,11.6352097 2.66901905,12.3061774 C3.49559048,13.4531129 4.17759048,14.8464194 4.06654286,16.4902903 C3.99844762,17.5072258 2.86597143,20.6282742 3.12578095,21.3789194 C3.18549524,21.5550484 3.60349524,21.3684355 3.65901905,21.5466613 C3.79730476,22.0048065 3.24206667,21.3956935 3.58778095,22.3822258 C4.10949524,23.8730323 2.37568571,26.9081129 3.25882857,26.9762581 C3.93559048,27.1177903 4.65949524,27.2855323 5.12778095,27.7960968 C5.59606667,28.3066613 5.6086381,29.2785161 4.98425714,29.5773065 C4.36092381,29.8760968 3.54273333,29.3508548 2.95187619,29.7115 C1.1101619,30.8385161 4.46359048,32.4425484 4.36825714,33.7299677 C4.26454286,35.0708548 4.14406667,36.0406129 3.36987619,36.7493226 C3.1226381,36.9757742 2.72559048,36.8331935 2.65749524,36.5050484 C2.47206667,35.6065806 1.80787619,34.2908548 1.80787619,34.2908548 C1.54597143,33.4165 1.5334,36.0070645 0.848257143,37.479 C0.7414,37.7148871 0.397780952,38.7244839 0.572733333,38.9131935 C0.793780952,39.1522258 1.30501905,38.630129 1.49359048,38.7181935 C1.73244762,38.8261774 1.8414,39.572629 2.00273333,39.9206935 C2.04673333,39.9982742 2.0614,40.0286774 2.0781619,40.0485968 C2.50978095,40.534 3.12054286,39.7917419 3.51025714,39.9133548 C3.65901905,39.9573871 3.65692381,40.2100484 3.7941619,40.2855323 C4.05397143,40.4281129 4.56835238,39.9448065 4.68044762,39.9804516 C4.72025714,39.9919839 5.11311429,40.6912581 5.49025714,41.0110161 C5.95330476,41.1158548 6.49492381,41.0697258 6.89720952,41.2196452 C7.03654286,41.2364194 7.16225714,41.2647258 7.2481619,41.3318226 C7.74368571,41.6987581 7.7981619,43.217871 8.42359048,43.6498065 C8.55559048,43.6623871 8.69178095,43.672871 8.83006667,43.6781129 C9.02282857,43.5942419 9.21873333,43.4621452 9.35178095,43.5869032 C9.84101905,43.7273871 10.2789238,43.7913387 10.6036857,44.0544839 C12.8382571,45.8577097 12.7251143,48.8875484 12.4118762,51.4602903" id="Stroke-1"></path>
                    <path d="M23.4265429,18.8785161 C22.9980667,18.8365806 20.7802571,20.6146452 20.4031143,20.8358548" id="Stroke-3" stroke-linecap="round"></path>
                    <path d="M27.0661621,23.8601074 C26.8524478,23.9838171 25.8875907,24.5478494 25.5607335,25.1045429 C25.0798764,25.9222848 24.1438221,27.4758871 24.0600126,28.4383065 C23.9762031,29.398629 23.046965,28.6364516 22.6572507,29.2214516 C22.7347745,29.3346774 22.8143935,29.4520968 22.8468697,29.5862903 C22.8793459,29.7194355 22.8562983,29.8756452 22.7546793,29.9679032 C22.2780126,30.3966935 22.0873459,28.7821774 21.4954412,29.2759677 C21.0282031,29.663871 20.4818396,30.9782507 19.4069824,30.529541 C18.8957443,30.31567 18.3420554,30.529541 16.7539063,30.529541 C15.776123,30.529541 15.2299805,29.9679032 14.817627,29.5862903 C14.4114868,29.2104276 15.202864,27.5990533 15.4921875,27.1917742 C16.2145996,26.1748387 17.3633745,26.246129 18.1294412,26.7189516 C18.8955078,27.1917742 19.7255859,27.1917742 20.8071555,26.1748387 C20.9725745,26.019305 21.278584,26.1391935 21.4954412,26.0532258 C22.026584,25.8435484 22.1952507,25.2575 22.6048697,24.9073387 C22.7201078,24.8087903 22.8500126,24.6473387 22.7588697,24.5267742 C22.6436316,24.3758065 22.0712343,23.5866699 22.2556152,22.7670898 C22.4399962,21.9475098 22.3681078,21.3679839 22.5671555,21.4256452 L23.2854004,18.9973145" id="Stroke-5" stroke-linecap="round"></path>
                    <path d="M12.4121905,51.4605 C12.3493333,51.9846935 11.9575238,52.5204194 11.9512381,53.0456613 C11.9355238,54.5092097 13.3414286,54.3477581 14.2287619,54.8499355 C15.1192381,55.3521129 15.8913333,56.2484839 16.9599048,56.4896129 C17.7948571,56.6804194 19.5674286,56.516871 20.4044762,56.3197742 C21.0267619,56.173 21.7957143,55.4255 22.4379048,55.4621935 C22.7752381,55.4810645 23.1366667,55.8427581 23.4750476,56.0136452 C23.6018095,56.0775968 23.7484762,56.0880806 23.8899048,56.0859839 C24.384381,56.0786452 24.8767619,56.0765484 25.3680952,56.0692097 C25.5220952,56.0660645 25.770381,56.094371 25.9180952,56.1394516 C26.6053333,56.3449355 27.6498095,56.7538065 28.173619,57.0410645 C28.9540952,57.4667097 29.3469524,59.0655 29.4108571,59.0833226 C29.7628571,59.1787258 30.368381,58.5821935 30.7381905,58.5874355 C31.275619,58.5947742 31.7973333,59.2573548 32.3389524,59.2992903 C33.5248571,59.3915484 34.8270476,58.5171935 36.0978095,58.5874355 C36.7651429,58.624129 36.7860952,59.1357419 37.2564762,59.4586452 C37.8410476,59.8570323 39.6146667,60.1044516 40.2987619,59.961871 C40.6958095,59.8821935 41.043619,59.5173548 41.4312381,59.4020323 C42.6181905,59.0560645 44.0429524,59.1126774 45.2707619,59.0717903 C45.8301905,59.0560645 46.4430476,59.4460645 46.9668571,59.3852581 C47.4173333,59.3338871 47.9013333,58.5769516 48.3465714,58.5947742 C48.6168571,58.6063065 48.7666667,58.9585645 49.0222857,59.046629 C49.8341905,59.3223548 52.2751429,59.7207419 53.1719048,59.7805 C53.974381,59.8371129 54.3871429,59.1682419 55.1005714,59.116871 C56.4635238,59.0172742 60.552381,60.4137258 62.1238095,60.7785645 C67.5913333,62.0513065 73.0672381,63.2726774 78.5578095,64.4458226 C78.4907619,63.9153387 77.910381,63.0892097 77.9690476,62.6321129 C78.012,62.2819516 78.6824762,62.0219516 78.7589524,61.6770323 C78.8144762,61.4117903 78.7589524,60.2921129 78.729619,59.9838871 C78.6793333,59.3873548 77.9229524,58.7247742 77.9627619,58.1313871 C77.9847619,57.8147742 78.4635238,57.4405 78.5640952,57.1364677 C79.1319048,55.4653387 79.178,53.3874355 79.5540952,51.6439677 C80.9400952,45.1932419 82.3271429,38.7477581 83.7173333,32.2980806 C84.5072381,28.6161452 85.3002857,24.9342097 86.0912381,21.2522742 C86.3562857,20.0256613 86.6181905,18.798 86.8832381,17.5713871 C87.0141905,16.9580806 87.2792381,15.7314677 87.2771429,15.7094516 C76.7265714,13.4375968 66.2126667,10.9885645 55.7542857,8.32356452 C47.731619,6.28025806 39.7414286,4.12477419 31.7837143,1.85187097 C31.050381,1.64219355 30.3275238,1.39791935 29.6025714,1.15993548 C29.1091429,0.998483871 28.6534286,0.726951613 28.1495238,0.59066129 C27.7430476,0.480580645 27.5639048,0.490016129 27.249619,0.742677419 C27.1019048,0.861145161 27.0254286,1.01735484 26.8567619,1.11170968 C26.642,1.23227419 26.3790476,1.15679032 26.2198095,1.38953226 C26.0741905,1.60025806 26.8766667,1.59920968 26.8389524,1.85501613 C26.796,2.1338871 26.4513333,2.31420968 26.4335238,2.59622581 C26.4020952,3.09525806 27.2087619,4.43195161 27.1940952,4.5305 C27.1532381,4.80832258 26.7069524,5.00437097 26.7918095,5.27170968 C27.0180952,6.00033871 28.8912381,3.11832258 28.6104762,5.51074194 C28.5895238,5.70364516 28.3014286,5.79485484 28.2857143,5.98985484 C28.2228571,6.7321129 29.0745714,7.62743548 28.4522857,8.28687097 C27.9358095,8.83517742 27.9913333,7.90525806 27.4905714,7.76058065 C27.4025714,7.73437097 27.2464762,7.59703226 27.2297143,7.68404839 C27.1165714,8.27324194 28.5025714,9.6005 27.535619,9.98945161 C27.3606667,10.0607419 27.1438095,10.0104194 27.016,9.86993548 C26.8661905,9.70429032 26.848381,9.44953226 26.699619,9.28283871 C26.6598095,9.40130645 26.6189524,9.51872581 26.5791429,9.63719355 C26.2617143,9.32582258 26.7006667,8.75130645 26.281619,8.5196129 C26.0762857,8.4063871 25.8227619,8.55630645 25.6666667,8.7313871 C25.423619,9.00501613 25.2717143,9.35832258 25.2402857,9.72316129 C25.2088571,10.0764677 25.3460952,10.5000161 25.6886667,10.5912258 C25.9128571,10.6509839 26.1967619,10.5597742 26.356,10.7296129 C26.6325714,11.0221129 26.721619,11.336629 27.0526667,11.6217903 C27.4444762,11.9572742 27.8499048,12.3472742 27.9001905,12.8934839 C27.9106667,12.999371 27.9022857,13.1157419 27.83,13.1954194 C27.2318095,13.8538065 23.6782857,13.7731934 22.4379048,13.7731934" id="Stroke-7" stroke-linecap="round"></path>
                </g>
                <polygon id="Star" fill="#FFFFFF" points="31.5 21.1294364 28.7188471 22.5981811 29.25 19.48733 27 17.2842129 30.1094235 16.8303459 31.5 14 32.8905765 16.8303459 36 17.2842129 33.75 19.48733 34.2811529 22.5981811"></polygon>
            </g>
        </g>
    </g>
</svg>