<?xml version="1.0" encoding="UTF-8" standalone="no"?>
<svg width="91px" height="67px" viewBox="0 0 91 67" version="1.1" xmlns="http://www.w3.org/2000/svg" xmlns:xlink="http://www.w3.org/1999/xlink">
    <!-- Generator: Sketch 40.1 (33804) - http://www.bohemiancoding.com/sketch -->
    <title>Group 6</title>
    <desc>Created with Sketch.</desc>
    <defs></defs>
    <g id="Page-1" stroke="none" stroke-width="1" fill="none" fill-rule="evenodd">
        <g id="Step-6---All-Filled" transform="translate(-438.000000, -661.000000)">
            <g id="Group-6" transform="translate(439.000000, 661.000000)">
                <g id="Washington-DC" stroke="#4FBFB2" stroke-linecap="round">
                    <path d="M57.0995816,12.0776219 C57.0105,12.7834164 56.0550937,14.4119897 55.8842773,14.5092773 C55.4186651,14.7754417 50.9970306,12.0794575 50.1585612,12.2813753 C50.0749898,12.3006493 50.1401939,12.4520877 50.1346837,12.5374438 C50.1245816,12.6218822 50.1043776,12.7072384 50.108051,12.7925945 C50.1319286,13.5947589 49.9574388,14.3097315 49.9574388,15.0687589 C49.9574388,15.523074 50.3688673,16.0021699 50.3376429,16.4537315 C50.2972347,17.1035397 48.7938673,20.5994712 48.200602,20.7619233 C48.0031531,20.8151562 47.7478469,20.5453205 47.5944796,20.6784027 C47.093051,21.1061014 47.4273367,22.7471425 46.8809082,23.1032521 C46.5548878,23.3125123 45.5042755,22.3680877 45.1718265,22.5690877 C44.7723367,22.8123068 44.2819286,28.9772247 43.6611122,29.4049233 C43.3810102,29.5958274 42.0062143,29.258074 41.6462143,29.2250329 L40.8444796,29.1534438 C40.775602,29.0772658 40.9914184,28.9744712 40.9693776,28.8753479 C40.9372347,28.7551151 40.793051,28.7000466 40.7021327,28.6137726 C40.3908061,28.3044712 39.4981531,27.6959644 39.0141735,28.147526 C38.8378469,28.3118137 39.1877449,31.119389 38.8755,31.3928959 C37.9525408,32.1996493 38.6275408,32.0225123 38.4943776,32.9733616 C38.4098878,33.5763616 37.7082551,34.0995123 37.5558061,34.6924164 C37.373051,35.4119781 37.6384592,36.2104712 37.3473367,36.9649096 C36.5116224,39.1291014 35.5225408,39.8982247 35.1717245,42.4414712 C35.1092755,42.8884438 35.6263163,42.6461425 35.8044796,42.8581562 C36.2765204,43.4134301 35.3168265,43.6548137 35.393051,44.108211 C35.490398,44.6864301 35.9449898,44.1017863 35.5960102,44.7965671 C34.4058061,47.1617589 33.5002959,46.0530466 33.492949,46.0567178 C32.6076429,46.4807452 31.8674388,47.6169918 30.9683571,47.907937 C30.8223367,47.9529096 29.7322347,47.2728137 29.6734592,47.4857452 C29.5017245,48.1364712 29.7496837,48.2062247 29.7662143,48.6899096 C29.8249898,50.1446356 28.5319286,49.4801425 28.3785612,49.5177726 C28.2931531,49.5388822 28.3510102,49.6875671 28.3381531,49.7729233 C28.2518265,50.3382932 27.2452959,50.1547315 26.7943776,50.386937 C26.6116224,50.4842247 26.3563163,51.0101288 26.1524388,51.0312384 C25.6381531,51.0844712 24.6527449,50.0868137 24.1862143,50.2712932 C23.9795816,50.3520603 24.0089694,51.1817589 23.8409082,51.3331973 C23.8409082,51.3341151 23.0887653,51.5094164 23.0869286,51.5103342 C22.3742755,51.9921836 22.2447857,53.4258 20.5559082,52.5915123 C20.3143776,52.4703616 20.2712143,52.0793753 20.0186633,51.9793342 C19.7752959,51.8820466 19.3234592,52.2941425 19.0764184,52.1977726 C19.0745816,52.1977726 18.5382551,51.5855945 18.5382551,51.5846767 C18.3334592,51.4378274 17.843051,51.4800466 17.6786633,51.2937315 C17.4922347,51.0817178 17.6492755,50.5769233 17.4683571,50.3649096 C17.4674388,50.363074 16.7951939,50.0271562 16.7951939,50.0271562 C16.6023367,49.5517315 17.3094796,49.4746356 16.770398,49.0524438 C15.5783571,50.6044575 14.4588673,52.3951014 13.0905,53.7965945 C12.1050918,54.808937 10.6402959,55.4257041 9.72192857,56.4949507 C9.35733673,56.9226493 9.93223469,57.2870192 9.78529592,57.7000329 C9.60988776,58.2149233 8.66305102,58.4544712 8.47386735,58.9638548 C8.42519388,59.0895945 8.48672449,59.2318548 8.49131633,59.364937 C8.49958163,59.498937 8.50876531,59.6347726 8.51427551,59.7687726 C8.52070408,59.9046082 8.5960102,60.0505397 8.53539796,60.1698548 C8.17631633,60.8738137 6.88509184,60.8545397 6.40294898,61.3611699 C6.06958163,61.709937 6.24039796,62.6213205 5.93733673,62.9214438 C5.32111224,63.5446356 2.69733673,64.5230192 1.7955,65.0112932 C1.32896939,65.265526 0.838561224,65.6014438 0.503357143,66.0098685 C0.425295918,66.1071562 0.2655,66.3017315 0.2655,66.3017315 C5.41845918,65.2361562 10.5631531,64.1347863 15.6931531,62.9884438 C16.9210102,62.7121836 18.8532551,62.6497726 19.9360102,62.0284164 C20.307949,61.8182384 20.1389694,61.7282932 20.6514184,61.6530329 C21.5560102,61.5144438 23.3633571,61.2400192 23.3633571,61.2400192 C33.5085612,59.7320603 43.4140714,57.1429233 53.3149898,54.5014712 C64.650398,51.4745397 87.9052959,44.9415808 87.9052959,44.9415808 C89.0532551,44.2532247 88.1532551,42.4919507 87.5535612,41.7118137" id="Stroke-1"></path>
                    <path d="M87.553102,41.7118137 C87.283102,41.3621288 86.3794286,39.738526 85.9808571,39.6623479 C85.7163673,39.6127863 85.5648367,40.0386493 85.3058571,40.1194164 C84.7970816,40.2763616 83.5407551,40.0771973 83.3368776,40.1588822 C82.7610612,40.3874164 82.2642245,41.0363068 82.2522857,41.5383479 C82.2476939,41.7503616 82.222898,41.9715534 82.108102,42.1496082 C81.9942245,42.3285808 81.7673878,42.4515671 81.5653469,42.3864027 C81.4698367,42.3551973 81.3908571,42.2881973 81.315551,42.2221151 C81.035449,41.9798137 80.7535102,41.7347589 80.5275918,41.4410603 C80.3797347,41.2483205 80.253,41.0326356 80.0573878,40.8885397 C79.8277959,40.7205808 79.560551,40.7260877 79.3116735,40.6196219 C79.0637143,40.5122384 78.8827959,40.2873753 78.6210612,40.202937 C77.715551,39.9092384 78.1912653,39.1896767 77.632898,38.7601425 C77.5410612,38.690389 77.428102,38.6564301 77.3151429,38.6325671 C76.5758571,38.4756219 75.8475918,38.6931425 75.1064694,38.6821288 C74.3506531,38.6711151 73.8841224,38.2718685 73.1742245,38.1176767 C72.2962653,37.9267726 71.4945306,38.5784164 70.6184082,38.5481288 C70.550449,38.5453753 70.4769796,38.5398685 70.4237143,38.4967315 C70.2694286,38.3737452 70.4283061,38.1296082 70.595449,38.0258959 C71.3613673,37.5495534 72.1493265,37.7643205 72.9666735,37.9267726 C73.8969796,38.1121699 74.6197347,37.8937315 75.5298367,37.9258548 C75.960551,37.9414575 76.3903469,37.9561425 76.8210612,37.9717452 C77.2545306,37.9873479 77.7366735,38.0222247 78.0351429,38.3370329 C78.5273878,38.8546767 78.4135102,39.1346082 79.1445306,39.0336493 C79.2290204,39.0217178 79.3107551,39.0630192 79.3860612,39.1034027 C80.045449,39.4521699 80.6616735,39.1997726 82.0741224,38.934526 C83.2983061,38.705074 82.333102,38.0892247 82.2421837,38.0644438 L81.4983061,38.2893068 C81.3403469,38.0938137 81.9418776,37.9148411 81.9170816,37.6651973 C81.8546327,37.0264027 80.8159592,37.6238959 80.6653469,37.5440466 C80.325551,37.369663 80.9711633,36.8180603 80.2658571,36.6684575 C78.8910612,36.3765945 77.8083061,36.6923205 76.6676939,35.6652932 C76.1488163,35.1981288 75.6620816,34.6584575 75.0146327,34.3968822 C74.915449,34.3574164 74.8070816,34.3197863 74.7437143,34.2335123 C74.6812653,34.1472384 74.700551,33.9948822 74.8043265,33.9691836 C74.8603469,33.9544986 74.9182041,33.9829507 74.9696327,34.0104849 C76.0551429,34.6134849 78.8157551,37.7248548 80.0803469,36.0608685 C80.163,35.9498137 80.3310612,35.5680055 80.0417755,35.4899918 C79.8727959,35.4450192 79.245551,35.9314575 79.6376939,35.4881562 C79.6882041,35.4312521 79.8287143,35.3826082 79.7864694,35.3174438 C79.723102,35.2109781 79.5568776,35.2219918 79.4402449,35.1733479 C78.4089184,34.7419781 79.5596327,34.8869918 79.5825918,34.6327589 C79.5991224,34.4290055 79.1325918,34.4859096 79.0738163,34.2867452 C79.0297347,34.1417315 79.2262653,33.9086082 79.3741224,33.9462384 C79.6725918,34.0260877 79.8535102,34.6924164 80.2043265,34.6942521 C80.3558571,34.6942521 80.3549388,34.3390603 80.5018776,34.3509918 C80.7351429,34.3748548 81.0703469,35.4128959 81.3669796,34.7557452 C81.9088163,33.5653479 80.8159592,33.5607589 80.5266735,33.1000192 C80.4173878,32.9228822 80.3687143,32.3584301 80.3191224,32.4144164 C80.2658571,32.4749918 80.3953469,32.5640192 80.3898367,32.6429507 C80.3788163,32.7448274 80.3668776,32.8843342 80.2732041,32.9265534 C80.0766735,33.0155808 77.4602449,31.6957726 76.8899388,31.3414986 C76.563,31.138663 76.3086122,30.8376219 76.0073878,30.598074 C75.4958571,30.1914849 74.863102,29.9730466 74.2836122,29.6701699 C73.3101429,29.1589507 72.4872857,28.4081836 71.6038163,27.7537863 C70.7194286,27.099389 69.6100408,26.1935123 69.1306531,26.1935123 C68.6512653,26.1935123 69.4833061,26.5000603 69.6853469,26.6175397 C70.0168776,26.8102795 70.4466735,26.7240055 70.8020816,26.8690192 C71.3136122,27.0791973 71.5358571,27.7014712 72.0106531,27.985074 C72.3394286,28.1814849 72.7517755,28.1943342 73.080551,28.3889096 C73.3606531,28.5541151 73.5516735,28.8340466 73.8033061,29.0405534 C74.3286122,29.4728411 75.0137143,29.4911973 75.6134082,29.7591973 C76.2911633,30.062074 76.7898367,30.6292795 77.4225918,30.9725397 C77.4933061,31.0110877 78.6210612,29.4012334 78.6210612,29.4012334 C78.7321837,28.9046992 79.6560612,28.257663 79.2694286,26.9929233 C78.8864694,25.7419507 76.4032041,26.9552932 75.4986122,26.0228 C75.0825918,25.5932658 74.9108571,24.8498411 74.205551,24.7782521 C73.7307551,24.7296082 73.5140204,25.2353205 73.0989184,25.3344438 C72.5543265,25.4656904 71.8976939,25.1774986 71.3007551,25.3023205 C70.9738163,25.3711562 70.6027959,25.4785397 70.3327959,25.2830466 C70.0738163,25.0948959 70.0389184,24.7103342 69.8065714,24.4909781 C69.6127959,24.3074164 69.3225918,24.276211 69.0884082,24.1477178 C68.5089184,23.8292384 69.1453469,23.1564849 68.6512653,22.8077178 C68.2673878,22.562663 67.1561633,23.8659507 66.8925918,24.0669507 C66.0991224,24.6717863 66.2164514,24.3129233 65.3258571,23.5603205" id="Stroke-3"></path>
                    <path d="M70.8044694,24.0464836 C71.8881429,24.1905795 70.0183469,22.4550041 70.6015102,22.3586342 C71.1690612,22.2668534 71.4840612,23.6977164 71.7843673,24.0042644 C72.2380408,24.4659219 73.1867143,23.6628397 73.6780408,23.6885384 C73.9691633,23.7032233 75.3292653,24.7844014 75.3724286,24.6770178 C75.4615102,24.4494014 74.8856939,23.9813192 75.4844694,24.3943329 C75.5689592,24.451237 75.636,24.5980863 75.7379388,24.5687164 C75.9105918,24.5154836 75.5404898,23.3452781 75.826102,23.541689 C76.2990612,23.8665932 76.3550816,25.3075521 77.3827347,25.0698397 C77.4718163,25.0487301 77.4901837,24.9083055 77.4855918,24.8201959 C77.3395714,23.3324288 76.2669184,23.2479904 76.203551,22.5954288 C76.1916122,22.4880452 76.2292653,22.3641411 76.1704898,22.2732781 C75.7930408,21.7005658 75.241102,22.512826 74.7938571,22.1053192 C74.6129388,21.9382781 74.6083469,21.6142918 74.4072245,21.4738671 C74.1555918,21.3004014 73.6422245,21.4087027 73.358449,21.2875521 C72.5080408,20.928689 71.5042653,19.8686205 71.5281429,18.8755521 C71.5345714,18.7296205 72.3601837,20.1861822 72.468551,20.3073329 C72.6733469,20.5422918 75.4247755,21.6730315 75.456,21.6574288 C76.7343673,20.8901411 74.0867143,19.6896479 73.7138571,19.1839356 C73.2206939,18.5130178 73.313449,17.3529082 72.7752857,16.7196205 C72.5805918,16.4892507 72.136102,16.6755658 72.205898,16.1395658 C72.2242653,16.0211685 72.0773265,15.587963 72.1315102,14.913374 C72.1480408,14.7509219 72.5649796,14.4425384 72.3776327,14.0901 C72.3004898,13.9441685 71.0037551,11.5753055 71.1883469,11.4486479 C71.3646735,11.3265795 72.3445714,11.654237 72.406102,11.5808123 C72.5567143,11.4064288 69.6197755,10.0921274 69.6500816,9.75345616 C69.7207959,8.88337397 71.2057959,9.8351411 71.7797755,9.51757945 C71.7797755,9.51757945 72.3537551,7.53052466 72.9470204,7.53878493 C73.0195714,7.54062055 72.5631429,6.08497671 72.6017143,5.76649726 C72.6182449,5.61964795 72.8037551,5.30851096 72.8882449,5.42874384 C73.0002857,5.59486712 72.8854898,7.10741507 73.4870204,6.74855205 C73.6330408,6.66136027 73.8855918,5.91426438 74.1050816,5.15799041 C74.1078367,5.14789452 74.0187551,4.2970863 74.0738571,3.56375753 C74.1041633,3.15441507 74.8223265,2.69092192 75.2530408,3.20764795 C75.9629388,4.05753836 75.9987551,5.21489452 75.5570204,6.24283973 C75.2576327,6.93853836 74.476102,7.34237397 74.2575306,8.08396301 C74.1868163,8.32351096 74.1849796,8.57682603 74.1840612,8.82646986 C74.1803878,9.59192192 74.1840612,10.357374 74.1546735,11.1219082 C74.1271224,11.859826 73.358449,13.5614425 73.943449,13.3246479 C74.1895714,13.2649904 75.5313061,12.821689 75.5772245,13.3173055 C75.7645714,13.1979904 75.5423265,14.1965658 75.1869184,14.2323603 C74.971102,14.2543877 74.8287551,14.4645658 74.7479388,14.6655658 C74.4990612,15.2860041 75.2245714,15.5172918 75.798551,15.989963 C76.4891633,16.5461548 78.0393673,16.7324699 78.3506939,16.6021411 C78.6620204,16.4718123 78.7226327,17.1583329 78.2120204,17.2657164 C77.7004898,17.3721822 77.1825306,17.554826 77.2073265,17.6264151 C77.2991633,17.9302096 76.9171224,18.8370041 76.6462041,19.0453466 C76.6140612,19.0710452 75.6506939,18.9599904 75.7397755,19.320689 C75.7838571,19.4923192 77.2890612,20.9663192 77.425898,20.9516342 C78.6767143,20.8020315 76.4046735,20.2871411 78.0549796,20.6157164 C78.3975306,20.6863877 79.8540612,21.8721959 80.0496735,21.3811685 C80.2416122,20.8864699 79.7475306,20.9617301 79.7089592,20.6102096 C79.7006939,20.4973192 80.0423265,19.5740041 80.2269184,19.6997438 C80.766,20.0696205 79.5620204,20.7084151 80.6245714,20.9947712 C81.1416122,21.1324425 81.1204898,20.3724973 81.5218163,20.8020315 C81.7302857,21.0241411 82.3419184,20.4450041 82.801102,20.7891822 C83.2979388,20.928689 81.7844694,21.5188397 81.5594694,21.8354836 C81.333551,22.1521274 81.5383469,23.5426068 81.7174286,22.8184562 C81.9617143,22.2117849 82.9324286,22.2466616 82.8901837,22.9937575 C82.915898,23.5426068 83.230898,22.9139082 83.4017143,22.8735247 C83.4917143,22.8524151 82.8286531,24.3346753 82.8130408,24.4292096 C82.6863061,25.2350452 82.801102,25.3497712 83.0876327,25.3497712 C84.0271224,24.9367575 85.283449,23.8014288 86.2853878,23.3425247 C86.8244694,23.0947164 87.9898776,22.9120726 88.2672245,22.3375247 C88.371,22.1209219 88.2745714,21.8630178 88.3030408,21.6253055 C88.3324286,21.3857575 88.4839592,21.1820041 88.6005918,20.9690726 C88.9238571,20.3715795 88.4472245,19.6061274 88.7282449,19.0214836 C88.9624286,18.535963 89.2700816,16.2653055 89.0000816,15.760511 C89.0000816,15.760511 86.1531429,16.5975521 84.5505918,17.1032644 C84.2475306,17.1996342 82.8506939,17.8485247 82.5944694,17.7136068 C82.5476327,17.688826 81.7504898,15.2107438 81.6604898,14.9363192 C80.7145714,12.1324151 79.7594694,9.3441137 78.7189592,6.57416849 C78.2175306,5.24059315 77.7151837,3.90518219 77.2165102,2.57160685 C77.0153878,2.03652466 76.8142653,1.50236027 76.6140612,0.96819589 C76.563551,0.835113699 76.4662041,0.568031507 76.4662041,0.568031507 C63.3115102,4.65227808 50.0631429,8.43640137 36.7330408,11.9185658 C36.9644694,12.8079219 38.1849796,18.3716753 38.5054898,18.7030041 C38.9141633,19.1279493 39.4762041,17.5061822 39.6966122,17.3345521" id="Stroke-5"></path>
                    <path d="M39.6967041,17.3342767 C39.6967041,17.3324411 40.4222143,17.141537 40.4222143,17.141537 C40.4222143,17.141537 40.6003776,16.3531397 40.6003776,16.3513041 C40.8299694,15.8786329 41.3938469,15.5656603 41.621602,15.0920712 C41.763949,14.7956192 41.6987449,14.2660438 41.9953776,14.059537 C42.5197653,13.6933315 42.9468061,14.4679616 43.5097653,14.0228247 C44.0506837,13.5960438 43.9992551,12.9287973 44.3473163,12.4157425 C44.8661939,11.6512082 44.8395612,11.8402767 45.8212959,11.9449068 C46.4678265,12.0137425 48.3982347,12.3377288 48.8023163,11.5080301 C48.9979286,11.1051123 49.3946633,10.5874685 49.8033367,10.4039068 C51.9302755,9.44663288 52.3187449,9.66690685 53.1636429,9.69627671 C54.059051,9.7284 53.9029286,9.73298904 54.7891531,9.86515342 C56.291602,10.0909342 56.6947653,11.8650575 58.1705816,12.2009753" id="Stroke-7"></path>
                </g>
                <polygon id="Star" fill="#FFFFFF" points="61.5 20.1294364 58.7188471 21.5981811 59.25 18.48733 57 16.2842129 60.1094235 15.8303459 61.5 13 62.8905765 15.8303459 66 16.2842129 63.75 18.48733 64.2811529 21.5981811"></polygon>
            </g>
        </g>
    </g>
</svg>